M48
; DRILL file {KiCad (5.1.7)-1} date 01/05/21 13:25:59
; FORMAT={-:-/ absolute / inch / decimal}
; #@! TF.CreationDate,2021-01-05T13:25:59+01:00
; #@! TF.GenerationSoftware,Kicad,Pcbnew,(5.1.7)-1
; #@! TF.FileFunction,Plated,1,2,PTH
FMAT,2
INCH
T1C0.0157
T2C0.0197
T3C0.0236
T4C0.0315
T5C0.0354
T6C0.0394
T7C0.0433
T8C0.0472
T9C0.0512
T10C0.0535
T11C0.1260
%
G90
G05
T1
X7.7318Y-3.1019
X7.7575Y-3.1331
X7.7641Y-2.8233
X7.874Y-3.3858
X7.9112Y-3.0353
X7.9434Y-2.9858
X7.9746Y-3.0336
X7.9841Y-2.3394
X7.9909Y-2.7889
X8.0073Y-3.0651
X8.0266Y-3.104
X8.0731Y-2.9476
X8.0958Y-2.9136
X8.0958Y-2.7772
X8.2677Y-3.3858
T2
X10.6142Y-4.4882
X10.6418Y-4.4214
X10.6418Y-4.555
X10.7087Y-4.3937
X10.7087Y-4.5827
X10.7755Y-4.4214
X10.7755Y-4.555
X10.8031Y-4.4882
X7.3858Y-0.9843
X7.4135Y-0.9174
X7.4135Y-1.0511
X7.4803Y-0.8898
X7.4803Y-1.0787
X7.5471Y-0.9174
X7.5471Y-1.0511
X7.5748Y-0.9843
X7.3858Y-4.4882
X7.4135Y-4.4214
X7.4135Y-4.555
X7.4803Y-4.3937
X7.4803Y-4.5827
X7.5471Y-4.4214
X7.5471Y-4.555
X7.5748Y-4.4882
X10.6142Y-0.9843
X10.6418Y-0.9174
X10.6418Y-1.0511
X10.7087Y-0.8898
X10.7087Y-1.0787
X10.7755Y-0.9174
X10.7755Y-1.0511
X10.8031Y-0.9843
T3
X7.4606Y-3.3071
X7.5197Y-3.3071
T4
X7.7406Y-2.4988
X8.0406Y-2.4988
X7.7165Y-4.2126
X7.8543Y-4.2126
X10.075Y-4.025
X10.375Y-4.025
X10.075Y-4.275
X10.375Y-4.275
X8.1693Y-3.622
X8.2677Y-3.622
X9.26Y-4.0306
X9.4569Y-4.0306
X9.2Y-4.2356
X9.5Y-4.2356
X7.74Y-2.2
X8.04Y-2.2
X7.74Y-2.35
X8.04Y-2.35
X7.4016Y-2.9134
X7.5984Y-2.9134
X7.4016Y-3.0709
X7.5984Y-3.0709
X7.74Y-2.65
X8.04Y-2.65
X10.075Y-4.15
X10.375Y-4.15
X7.874Y-3.622
X7.9724Y-3.622
X7.74Y-2.05
X8.04Y-2.05
X7.9806Y-3.3858
X8.1728Y-3.3858
X7.74Y-1.9
X8.04Y-1.9
T5
X9.725Y-4.0551
X9.825Y-4.0551
T6
X8.09Y-4.4882
X8.19Y-4.4882
X8.29Y-4.4882
X8.62Y-0.91
X8.72Y-0.91
X8.82Y-0.91
X8.92Y-0.91
X9.3Y-3.55
X9.3Y-3.65
X9.3Y-3.75
X9.675Y-3.55
X9.675Y-3.65
X9.675Y-3.75
X8.59Y-4.4882
X8.69Y-4.4882
X8.79Y-4.4882
X8.89Y-4.4882
X8.99Y-4.4882
X9.67Y-4.3882
X9.67Y-4.4882
X9.77Y-4.3882
X9.77Y-4.4882
X9.87Y-4.3882
X9.87Y-4.4882
X8.3781Y-2.3
X8.575Y-2.3
X7.7323Y-1.4961
X8.0315Y-1.4961
T7
X7.42Y-2.3
X7.42Y-2.4
X7.42Y-2.5
X7.42Y-2.6
X7.42Y-2.7
X7.42Y-1.7
X7.42Y-1.8
X7.42Y-1.9
X7.42Y-2.0
X7.42Y-2.1
X7.42Y-3.66
X7.42Y-3.76
X7.42Y-3.86
X7.42Y-3.96
T8
X10.08Y-4.42
X10.08Y-4.62
X10.48Y-4.52
T9
X8.1231Y-0.95
X8.32Y-0.95
X8.475Y-2.7031
X8.475Y-2.9
X8.475Y-3.0969
X8.475Y-1.5031
X8.475Y-1.7
X8.475Y-1.8969
T10
X10.75Y-4.05
X10.75Y-4.15
X10.75Y-4.25
T11
X7.4803Y-0.9843
X7.4803Y-4.4882
X10.7087Y-0.9843
X10.7087Y-4.4882
T0
M30
