G04 #@! TF.GenerationSoftware,KiCad,Pcbnew,(5.1.7)-1*
G04 #@! TF.CreationDate,2021-01-05T13:25:27+01:00*
G04 #@! TF.ProjectId,AbsauganlageV3,41627361-7567-4616-9e6c-61676556332e,rev?*
G04 #@! TF.SameCoordinates,Original*
G04 #@! TF.FileFunction,Soldermask,Bot*
G04 #@! TF.FilePolarity,Negative*
%FSLAX46Y46*%
G04 Gerber Fmt 4.6, Leading zero omitted, Abs format (unit mm)*
G04 Created by KiCad (PCBNEW (5.1.7)-1) date 2021-01-05 13:25:27*
%MOMM*%
%LPD*%
G01*
G04 APERTURE LIST*
%ADD10C,1.500000*%
%ADD11R,1.700000X1.700000*%
%ADD12O,1.700000X1.700000*%
%ADD13R,2.000000X2.000000*%
%ADD14C,2.000000*%
%ADD15C,1.600000*%
%ADD16R,1.200000X1.200000*%
%ADD17C,1.200000*%
%ADD18R,1.600000X1.600000*%
%ADD19R,1.800000X1.800000*%
%ADD20C,1.800000*%
%ADD21C,6.400000*%
%ADD22C,0.800000*%
%ADD23C,2.500000*%
%ADD24R,1.650000X1.650000*%
%ADD25C,1.650000*%
%ADD26R,2.040000X2.040000*%
%ADD27C,2.040000*%
%ADD28O,1.600000X1.600000*%
G04 APERTURE END LIST*
D10*
X202708000Y-86000000D03*
X207588000Y-86000000D03*
D11*
X236220000Y-90170000D03*
D12*
X236220000Y-92710000D03*
X236220000Y-95250000D03*
D13*
X196400000Y-38000000D03*
D14*
X204000000Y-38000000D03*
D15*
X200000000Y-92000000D03*
X202500000Y-92000000D03*
X207500000Y-92000000D03*
X210000000Y-92000000D03*
X193000000Y-74000000D03*
X188000000Y-74000000D03*
D16*
X191000000Y-84000000D03*
D17*
X189500000Y-84000000D03*
D15*
X188000000Y-78000000D03*
X193000000Y-78000000D03*
X235204000Y-102378000D03*
X240204000Y-102378000D03*
D18*
X196000000Y-107000000D03*
D15*
X199500000Y-107000000D03*
D13*
X212805000Y-58420000D03*
D14*
X217805000Y-58420000D03*
D19*
X247015000Y-103000000D03*
D20*
X249555000Y-103000000D03*
D21*
X272000000Y-114000000D03*
D22*
X274400000Y-114000000D03*
X273697056Y-115697056D03*
X272000000Y-116400000D03*
X270302944Y-115697056D03*
X269600000Y-114000000D03*
X270302944Y-112302944D03*
X272000000Y-111600000D03*
X273697056Y-112302944D03*
X191697056Y-23302944D03*
X190000000Y-22600000D03*
X188302944Y-23302944D03*
X187600000Y-25000000D03*
X188302944Y-26697056D03*
X190000000Y-27400000D03*
X191697056Y-26697056D03*
X192400000Y-25000000D03*
D21*
X190000000Y-25000000D03*
D22*
X273697056Y-23302944D03*
X272000000Y-22600000D03*
X270302944Y-23302944D03*
X269600000Y-25000000D03*
X270302944Y-26697056D03*
X272000000Y-27400000D03*
X273697056Y-26697056D03*
X274400000Y-25000000D03*
D21*
X272000000Y-25000000D03*
X190000000Y-114000000D03*
D22*
X192400000Y-114000000D03*
X191697056Y-115697056D03*
X190000000Y-116400000D03*
X188302944Y-115697056D03*
X187600000Y-114000000D03*
X188302944Y-112302944D03*
X190000000Y-111600000D03*
X191697056Y-112302944D03*
D11*
X245618000Y-114000000D03*
D12*
X245618000Y-111460000D03*
X248158000Y-114000000D03*
X248158000Y-111460000D03*
X250698000Y-114000000D03*
X250698000Y-111460000D03*
D11*
X218186000Y-114000000D03*
D12*
X220726000Y-114000000D03*
X223266000Y-114000000D03*
X225806000Y-114000000D03*
X228346000Y-114000000D03*
D23*
X215265000Y-43180000D03*
X215265000Y-38180000D03*
X215265000Y-48180000D03*
D11*
X218948000Y-23114000D03*
D12*
X221488000Y-23114000D03*
X224028000Y-23114000D03*
X226568000Y-23114000D03*
D24*
X188468000Y-100584000D03*
D25*
X188468000Y-98044000D03*
X188468000Y-92964000D03*
X188468000Y-95504000D03*
D11*
X205486000Y-114000000D03*
D12*
X208026000Y-114000000D03*
X210566000Y-114000000D03*
D23*
X215265000Y-78660000D03*
X215265000Y-68660000D03*
X215265000Y-73660000D03*
D24*
X188468000Y-58420000D03*
D25*
X188468000Y-60960000D03*
X188468000Y-63500000D03*
X188468000Y-66040000D03*
X188468000Y-68580000D03*
D26*
X273050000Y-107950000D03*
D27*
X273050000Y-105410000D03*
X273050000Y-102870000D03*
D12*
X245745000Y-90170000D03*
X245745000Y-92710000D03*
D11*
X245745000Y-95250000D03*
D23*
X211328000Y-24130000D03*
X206328000Y-24130000D03*
D25*
X188468000Y-53340000D03*
X188468000Y-50800000D03*
X188468000Y-48260000D03*
X188468000Y-45720000D03*
D24*
X188468000Y-43180000D03*
D28*
X241300000Y-107585000D03*
D15*
X233680000Y-107585000D03*
D28*
X204216000Y-67310000D03*
D15*
X196596000Y-67310000D03*
X196611000Y-63470000D03*
D28*
X204231000Y-63470000D03*
X255905000Y-105410000D03*
D15*
X263525000Y-105410000D03*
X263525000Y-102235000D03*
D28*
X255905000Y-102235000D03*
D15*
X196596000Y-48260000D03*
D28*
X204216000Y-48260000D03*
X204216000Y-52070000D03*
D15*
X196596000Y-52070000D03*
X196596000Y-55880000D03*
D28*
X204216000Y-55880000D03*
X204216000Y-59690000D03*
D15*
X196596000Y-59690000D03*
D28*
X255905000Y-108585000D03*
D15*
X263525000Y-108585000D03*
D14*
X256032000Y-112268000D03*
X256032000Y-117348000D03*
X266192000Y-114808000D03*
M02*
