G04 #@! TF.GenerationSoftware,KiCad,Pcbnew,(5.1.7)-1*
G04 #@! TF.CreationDate,2021-01-05T13:25:27+01:00*
G04 #@! TF.ProjectId,AbsauganlageV3,41627361-7567-4616-9e6c-61676556332e,rev?*
G04 #@! TF.SameCoordinates,Original*
G04 #@! TF.FileFunction,Copper,L2,Bot*
G04 #@! TF.FilePolarity,Positive*
%FSLAX46Y46*%
G04 Gerber Fmt 4.6, Leading zero omitted, Abs format (unit mm)*
G04 Created by KiCad (PCBNEW (5.1.7)-1) date 2021-01-05 13:25:27*
%MOMM*%
%LPD*%
G01*
G04 APERTURE LIST*
G04 #@! TA.AperFunction,ComponentPad*
%ADD10C,1.500000*%
G04 #@! TD*
G04 #@! TA.AperFunction,ComponentPad*
%ADD11R,1.700000X1.700000*%
G04 #@! TD*
G04 #@! TA.AperFunction,ComponentPad*
%ADD12O,1.700000X1.700000*%
G04 #@! TD*
G04 #@! TA.AperFunction,ComponentPad*
%ADD13R,2.000000X2.000000*%
G04 #@! TD*
G04 #@! TA.AperFunction,ComponentPad*
%ADD14C,2.000000*%
G04 #@! TD*
G04 #@! TA.AperFunction,ComponentPad*
%ADD15C,1.600000*%
G04 #@! TD*
G04 #@! TA.AperFunction,ComponentPad*
%ADD16R,1.200000X1.200000*%
G04 #@! TD*
G04 #@! TA.AperFunction,ComponentPad*
%ADD17C,1.200000*%
G04 #@! TD*
G04 #@! TA.AperFunction,ComponentPad*
%ADD18R,1.600000X1.600000*%
G04 #@! TD*
G04 #@! TA.AperFunction,ComponentPad*
%ADD19R,1.800000X1.800000*%
G04 #@! TD*
G04 #@! TA.AperFunction,ComponentPad*
%ADD20C,1.800000*%
G04 #@! TD*
G04 #@! TA.AperFunction,ComponentPad*
%ADD21C,6.400000*%
G04 #@! TD*
G04 #@! TA.AperFunction,ComponentPad*
%ADD22C,0.800000*%
G04 #@! TD*
G04 #@! TA.AperFunction,ComponentPad*
%ADD23C,2.500000*%
G04 #@! TD*
G04 #@! TA.AperFunction,ComponentPad*
%ADD24R,1.650000X1.650000*%
G04 #@! TD*
G04 #@! TA.AperFunction,ComponentPad*
%ADD25C,1.650000*%
G04 #@! TD*
G04 #@! TA.AperFunction,ComponentPad*
%ADD26R,2.040000X2.040000*%
G04 #@! TD*
G04 #@! TA.AperFunction,ComponentPad*
%ADD27C,2.040000*%
G04 #@! TD*
G04 #@! TA.AperFunction,ComponentPad*
%ADD28O,1.600000X1.600000*%
G04 #@! TD*
G04 #@! TA.AperFunction,ViaPad*
%ADD29C,0.800000*%
G04 #@! TD*
G04 #@! TA.AperFunction,Conductor*
%ADD30C,0.381000*%
G04 #@! TD*
G04 #@! TA.AperFunction,Conductor*
%ADD31C,0.635000*%
G04 #@! TD*
G04 #@! TA.AperFunction,Conductor*
%ADD32C,0.254000*%
G04 #@! TD*
G04 #@! TA.AperFunction,Conductor*
%ADD33C,0.100000*%
G04 #@! TD*
G04 APERTURE END LIST*
D10*
X202708000Y-86000000D03*
X207588000Y-86000000D03*
D11*
X236220000Y-90170000D03*
D12*
X236220000Y-92710000D03*
X236220000Y-95250000D03*
D13*
X196400000Y-38000000D03*
D14*
X204000000Y-38000000D03*
D15*
X200000000Y-92000000D03*
X202500000Y-92000000D03*
X207500000Y-92000000D03*
X210000000Y-92000000D03*
X193000000Y-74000000D03*
X188000000Y-74000000D03*
D16*
X191000000Y-84000000D03*
D17*
X189500000Y-84000000D03*
D15*
X188000000Y-78000000D03*
X193000000Y-78000000D03*
X235204000Y-102378000D03*
X240204000Y-102378000D03*
D18*
X196000000Y-107000000D03*
D15*
X199500000Y-107000000D03*
D13*
X212805000Y-58420000D03*
D14*
X217805000Y-58420000D03*
D19*
X247015000Y-103000000D03*
D20*
X249555000Y-103000000D03*
D21*
X272000000Y-114000000D03*
D22*
X274400000Y-114000000D03*
X273697056Y-115697056D03*
X272000000Y-116400000D03*
X270302944Y-115697056D03*
X269600000Y-114000000D03*
X270302944Y-112302944D03*
X272000000Y-111600000D03*
X273697056Y-112302944D03*
X191697056Y-23302944D03*
X190000000Y-22600000D03*
X188302944Y-23302944D03*
X187600000Y-25000000D03*
X188302944Y-26697056D03*
X190000000Y-27400000D03*
X191697056Y-26697056D03*
X192400000Y-25000000D03*
D21*
X190000000Y-25000000D03*
D22*
X273697056Y-23302944D03*
X272000000Y-22600000D03*
X270302944Y-23302944D03*
X269600000Y-25000000D03*
X270302944Y-26697056D03*
X272000000Y-27400000D03*
X273697056Y-26697056D03*
X274400000Y-25000000D03*
D21*
X272000000Y-25000000D03*
X190000000Y-114000000D03*
D22*
X192400000Y-114000000D03*
X191697056Y-115697056D03*
X190000000Y-116400000D03*
X188302944Y-115697056D03*
X187600000Y-114000000D03*
X188302944Y-112302944D03*
X190000000Y-111600000D03*
X191697056Y-112302944D03*
D11*
X245618000Y-114000000D03*
D12*
X245618000Y-111460000D03*
X248158000Y-114000000D03*
X248158000Y-111460000D03*
X250698000Y-114000000D03*
X250698000Y-111460000D03*
D11*
X218186000Y-114000000D03*
D12*
X220726000Y-114000000D03*
X223266000Y-114000000D03*
X225806000Y-114000000D03*
X228346000Y-114000000D03*
D23*
X215265000Y-43180000D03*
X215265000Y-38180000D03*
X215265000Y-48180000D03*
D11*
X218948000Y-23114000D03*
D12*
X221488000Y-23114000D03*
X224028000Y-23114000D03*
X226568000Y-23114000D03*
D24*
X188468000Y-100584000D03*
D25*
X188468000Y-98044000D03*
X188468000Y-92964000D03*
X188468000Y-95504000D03*
D11*
X205486000Y-114000000D03*
D12*
X208026000Y-114000000D03*
X210566000Y-114000000D03*
D23*
X215265000Y-78660000D03*
X215265000Y-68660000D03*
X215265000Y-73660000D03*
D24*
X188468000Y-58420000D03*
D25*
X188468000Y-60960000D03*
X188468000Y-63500000D03*
X188468000Y-66040000D03*
X188468000Y-68580000D03*
D26*
X273050000Y-107950000D03*
D27*
X273050000Y-105410000D03*
X273050000Y-102870000D03*
D12*
X245745000Y-90170000D03*
X245745000Y-92710000D03*
D11*
X245745000Y-95250000D03*
D23*
X211328000Y-24130000D03*
X206328000Y-24130000D03*
D25*
X188468000Y-53340000D03*
X188468000Y-50800000D03*
X188468000Y-48260000D03*
X188468000Y-45720000D03*
D24*
X188468000Y-43180000D03*
D28*
X241300000Y-107585000D03*
D15*
X233680000Y-107585000D03*
D28*
X204216000Y-67310000D03*
D15*
X196596000Y-67310000D03*
X196611000Y-63470000D03*
D28*
X204231000Y-63470000D03*
X255905000Y-105410000D03*
D15*
X263525000Y-105410000D03*
X263525000Y-102235000D03*
D28*
X255905000Y-102235000D03*
D15*
X196596000Y-48260000D03*
D28*
X204216000Y-48260000D03*
X204216000Y-52070000D03*
D15*
X196596000Y-52070000D03*
X196596000Y-55880000D03*
D28*
X204216000Y-55880000D03*
X204216000Y-59690000D03*
D15*
X196596000Y-59690000D03*
D28*
X255905000Y-108585000D03*
D15*
X263525000Y-108585000D03*
D14*
X256032000Y-112268000D03*
X256032000Y-117348000D03*
X266192000Y-114808000D03*
D29*
X205055600Y-74869800D03*
X210000000Y-86000000D03*
X200000000Y-86000000D03*
X202967700Y-70838100D03*
X200944800Y-77097300D03*
X205634500Y-70541300D03*
X197208300Y-71711700D03*
X205634300Y-74006000D03*
X202554100Y-77052300D03*
X197041600Y-79580300D03*
X203875600Y-78841900D03*
X203384400Y-77853000D03*
X202795200Y-59419700D03*
X201763300Y-75838600D03*
X196387000Y-78789400D03*
D30*
X196400000Y-38000000D02*
X196400000Y-45959300D01*
X196400000Y-45959300D02*
X207006600Y-56565900D01*
X207006600Y-56565900D02*
X207006600Y-71109700D01*
X207006600Y-71109700D02*
X204778500Y-73337800D01*
X204778500Y-73337800D02*
X204778500Y-74592700D01*
X204778500Y-74592700D02*
X205055600Y-74869800D01*
X188468000Y-59096500D02*
X188468000Y-59635800D01*
X188468000Y-58420000D02*
X188468000Y-59096500D01*
X203620600Y-59690000D02*
X203620600Y-59713500D01*
X203620600Y-59713500D02*
X202453200Y-60880900D01*
X202453200Y-60880900D02*
X190252400Y-60880900D01*
X190252400Y-60880900D02*
X188468000Y-59096500D01*
X204216000Y-57070800D02*
X203620600Y-57666200D01*
X203620600Y-57666200D02*
X203620600Y-59690000D01*
X188000000Y-78000000D02*
X186068400Y-76068400D01*
X186068400Y-76068400D02*
X186068400Y-61579500D01*
X186068400Y-61579500D02*
X188012100Y-59635800D01*
X188012100Y-59635800D02*
X188468000Y-59635800D01*
X189500000Y-83009100D02*
X189500000Y-79500000D01*
X189500000Y-79500000D02*
X188000000Y-78000000D01*
X204216000Y-55880000D02*
X204216000Y-57070800D01*
X204216000Y-59690000D02*
X203620600Y-59690000D01*
X199500000Y-98044000D02*
X188468000Y-98044000D01*
X203186500Y-95000000D02*
X200142500Y-98044000D01*
X200142500Y-98044000D02*
X199500000Y-98044000D01*
X199500000Y-107000000D02*
X199500000Y-98044000D01*
X189500000Y-84000000D02*
X189500000Y-83009100D01*
X200588500Y-84411500D02*
X199186100Y-83009100D01*
X199186100Y-83009100D02*
X189500000Y-83009100D01*
D31*
X200588500Y-84411500D02*
X202000000Y-83000000D01*
X202000000Y-83000000D02*
X209000000Y-83000000D01*
X209000000Y-83000000D02*
X210000000Y-84000000D01*
X210000000Y-84000000D02*
X210000000Y-86000000D01*
X200000000Y-86000000D02*
X200000000Y-85000000D01*
X200000000Y-85000000D02*
X200588500Y-84411500D01*
D30*
X203186500Y-95000000D02*
X203000000Y-95000000D01*
X203000000Y-95000000D02*
X201000000Y-93000000D01*
X210000000Y-92000000D02*
X207000000Y-95000000D01*
X207000000Y-95000000D02*
X203186500Y-95000000D01*
X245745000Y-95250000D02*
X245745000Y-99136800D01*
X245745000Y-99136800D02*
X248311600Y-101703400D01*
X245745000Y-95250000D02*
X236220000Y-95250000D01*
X248311600Y-101703400D02*
X254182600Y-101703400D01*
X254182600Y-101703400D02*
X254714200Y-102235000D01*
X247015000Y-103000000D02*
X248311600Y-101703400D01*
X210185000Y-48260000D02*
X215265000Y-43180000D01*
X204216000Y-48260000D02*
X210185000Y-48260000D01*
X217805000Y-58420000D02*
X217805000Y-55880000D01*
X217805000Y-55880000D02*
X210185000Y-48260000D01*
D31*
X200000000Y-92000000D02*
X200000000Y-86000000D01*
D30*
X255905000Y-102235000D02*
X254714200Y-102235000D01*
X272000000Y-22600000D02*
X271005800Y-22600000D01*
X271005800Y-22600000D02*
X270302900Y-23302900D01*
X272000000Y-22600000D02*
X272994200Y-22600000D01*
X272994200Y-22600000D02*
X273697100Y-23302900D01*
X190702900Y-115697100D02*
X190000000Y-116400000D01*
X191697100Y-115697100D02*
X190702900Y-115697100D01*
X190000000Y-114000000D02*
X190702900Y-114702900D01*
X190702900Y-114702900D02*
X190702900Y-115697100D01*
X270302900Y-115697100D02*
X268652000Y-117348000D01*
X268652000Y-117348000D02*
X256032000Y-117348000D01*
X270302900Y-115697100D02*
X271297100Y-115697100D01*
X271297100Y-115697100D02*
X272000000Y-116400000D01*
X273697100Y-115697100D02*
X272702900Y-115697100D01*
X272702900Y-115697100D02*
X272000000Y-116400000D01*
X270302900Y-112302900D02*
X271297100Y-112302900D01*
X271297100Y-112302900D02*
X272000000Y-111600000D01*
X273697100Y-112302900D02*
X272702900Y-112302900D01*
X272702900Y-112302900D02*
X272000000Y-111600000D01*
X188302900Y-115697100D02*
X189297100Y-115697100D01*
X189297100Y-115697100D02*
X190000000Y-116400000D01*
X188302900Y-112302900D02*
X189297100Y-112302900D01*
X189297100Y-112302900D02*
X190000000Y-111600000D01*
X191697100Y-112302900D02*
X190702900Y-112302900D01*
X190702900Y-112302900D02*
X190000000Y-111600000D01*
D31*
X210000000Y-86000000D02*
X210000000Y-92000000D01*
D30*
X211361000Y-34276000D02*
X215265000Y-38180000D01*
X211361000Y-24130000D02*
X211361000Y-34276000D01*
X189683800Y-43180000D02*
X189683800Y-42116200D01*
X189683800Y-42116200D02*
X197524000Y-34276000D01*
X197524000Y-34276000D02*
X211361000Y-34276000D01*
X188468000Y-43180000D02*
X189683800Y-43180000D01*
X225327200Y-23114000D02*
X225327200Y-22599800D01*
X225327200Y-22599800D02*
X224551800Y-21824400D01*
X224551800Y-21824400D02*
X213666600Y-21824400D01*
X213666600Y-21824400D02*
X211361000Y-24130000D01*
X211328000Y-24130000D02*
X211361000Y-24130000D01*
X226568000Y-23114000D02*
X225327200Y-23114000D01*
X249457200Y-111460000D02*
X249457200Y-111974200D01*
X249457200Y-111974200D02*
X248701400Y-112730000D01*
X248701400Y-112730000D02*
X247580800Y-112730000D01*
X247580800Y-112730000D02*
X246888000Y-113422800D01*
X246888000Y-113422800D02*
X246888000Y-115051100D01*
X246888000Y-115051100D02*
X246698200Y-115240900D01*
X246698200Y-115240900D02*
X241335900Y-115240900D01*
X241335900Y-115240900D02*
X233680000Y-107585000D01*
X193000000Y-78000000D02*
X193000000Y-74000000D01*
X263525000Y-108585000D02*
X271004200Y-108585000D01*
X271004200Y-108585000D02*
X271639200Y-107950000D01*
X273050000Y-107950000D02*
X271639200Y-107950000D01*
X263525000Y-108585000D02*
X259842000Y-112268000D01*
X259842000Y-112268000D02*
X256032000Y-112268000D01*
X197190800Y-107000000D02*
X198962800Y-108772000D01*
X198962800Y-108772000D02*
X202565400Y-108772000D01*
X202565400Y-108772000D02*
X206785200Y-112991800D01*
X206785200Y-112991800D02*
X206785200Y-114000000D01*
X250698000Y-111460000D02*
X249457200Y-111460000D01*
X256032000Y-112268000D02*
X255224000Y-111460000D01*
X255224000Y-111460000D02*
X250698000Y-111460000D01*
X208026000Y-114000000D02*
X209266800Y-114000000D01*
X228346000Y-114000000D02*
X227105200Y-114000000D01*
X227105200Y-114000000D02*
X227105200Y-114465300D01*
X227105200Y-114465300D02*
X226311800Y-115258700D01*
X226311800Y-115258700D02*
X210011300Y-115258700D01*
X210011300Y-115258700D02*
X209266800Y-114514200D01*
X209266800Y-114514200D02*
X209266800Y-114000000D01*
X196000000Y-107000000D02*
X196000000Y-105809200D01*
X188468000Y-100584000D02*
X189683800Y-100584000D01*
X189683800Y-100584000D02*
X194909000Y-105809200D01*
X194909000Y-105809200D02*
X196000000Y-105809200D01*
X196000000Y-107000000D02*
X197190800Y-107000000D01*
X208026000Y-114000000D02*
X206785200Y-114000000D01*
X202967700Y-70838100D02*
X198248700Y-66119100D01*
X198248700Y-66119100D02*
X190239100Y-66119100D01*
X190239100Y-66119100D02*
X189102300Y-67255900D01*
X189102300Y-67255900D02*
X188031000Y-67255900D01*
X188031000Y-67255900D02*
X187238500Y-68048400D01*
X187238500Y-68048400D02*
X187238500Y-73238500D01*
X187238500Y-73238500D02*
X188000000Y-74000000D01*
X200944800Y-77097300D02*
X204022800Y-80175300D01*
X204022800Y-80175300D02*
X210393700Y-80175300D01*
X210393700Y-80175300D02*
X230518400Y-100300000D01*
X230518400Y-100300000D02*
X238126000Y-100300000D01*
X238126000Y-100300000D02*
X240204000Y-102378000D01*
X255905000Y-108585000D02*
X254714200Y-108585000D01*
X254714200Y-108585000D02*
X254714200Y-108159200D01*
X254714200Y-108159200D02*
X249555000Y-103000000D01*
X245618000Y-114000000D02*
X242739400Y-114000000D01*
X242739400Y-114000000D02*
X209496000Y-80756600D01*
X209496000Y-80756600D02*
X203463400Y-80756600D01*
X203463400Y-80756600D02*
X200138600Y-77431800D01*
X200138600Y-77431800D02*
X200138600Y-74785600D01*
X200138600Y-74785600D02*
X204007500Y-70916700D01*
X204007500Y-70916700D02*
X204007500Y-70541300D01*
X188468000Y-63500000D02*
X189792100Y-64824100D01*
X189792100Y-64824100D02*
X198290300Y-64824100D01*
X198290300Y-64824100D02*
X204007500Y-70541300D01*
X205634500Y-70541300D02*
X204007500Y-70541300D01*
X245618000Y-111460000D02*
X246858800Y-111460000D01*
X246858800Y-111460000D02*
X246858800Y-110994600D01*
X246858800Y-110994600D02*
X247634200Y-110219200D01*
X247634200Y-110219200D02*
X258715800Y-110219200D01*
X258715800Y-110219200D02*
X263525000Y-105410000D01*
X196596000Y-67310000D02*
X196417500Y-67488500D01*
X196417500Y-67488500D02*
X196417500Y-74836300D01*
X196417500Y-74836300D02*
X198889900Y-77308700D01*
X198889900Y-77308700D02*
X198889900Y-77925200D01*
X198889900Y-77925200D02*
X203232600Y-82267900D01*
X203232600Y-82267900D02*
X209292100Y-82267900D01*
X209292100Y-82267900D02*
X220726000Y-93701800D01*
X220726000Y-93701800D02*
X220726000Y-112759200D01*
X220726000Y-114000000D02*
X220726000Y-112759200D01*
X197208300Y-71711700D02*
X199471200Y-73974600D01*
X199471200Y-73974600D02*
X199471200Y-77645200D01*
X199471200Y-77645200D02*
X203163900Y-81337900D01*
X203163900Y-81337900D02*
X209189200Y-81337900D01*
X209189200Y-81337900D02*
X223266000Y-95414700D01*
X223266000Y-95414700D02*
X223266000Y-114000000D01*
X205634300Y-74006000D02*
X219211800Y-60428500D01*
X219211800Y-60428500D02*
X219211800Y-52126800D01*
X219211800Y-52126800D02*
X215265000Y-48180000D01*
X202554100Y-77052300D02*
X204085000Y-77052300D01*
X204085000Y-77052300D02*
X224028000Y-57109300D01*
X224028000Y-57109300D02*
X224028000Y-23114000D01*
X197041600Y-79580300D02*
X197186800Y-79435100D01*
X197186800Y-79435100D02*
X197186800Y-76459200D01*
X197186800Y-76459200D02*
X189307600Y-68580000D01*
X189307600Y-68580000D02*
X188468000Y-68580000D01*
X203875600Y-78841900D02*
X210746200Y-78841900D01*
X210746200Y-78841900D02*
X225913400Y-94009100D01*
X225913400Y-94009100D02*
X255299100Y-94009100D01*
X255299100Y-94009100D02*
X263525000Y-102235000D01*
X245745000Y-92710000D02*
X244504200Y-92710000D01*
X203384400Y-77853000D02*
X211067700Y-77853000D01*
X211067700Y-77853000D02*
X224625600Y-91410900D01*
X224625600Y-91410900D02*
X243205100Y-91410900D01*
X243205100Y-91410900D02*
X244504200Y-92710000D01*
X196596000Y-59690000D02*
X202524900Y-59690000D01*
X202524900Y-59690000D02*
X202795200Y-59419700D01*
X196596000Y-59690000D02*
X194818000Y-59690000D01*
X194818000Y-59690000D02*
X188468000Y-53340000D01*
X196596000Y-52070000D02*
X192278000Y-52070000D01*
X192278000Y-52070000D02*
X188468000Y-48260000D01*
X196596000Y-48260000D02*
X191008000Y-48260000D01*
X191008000Y-48260000D02*
X188468000Y-45720000D01*
X201763300Y-75838600D02*
X201763300Y-75530900D01*
X201763300Y-75530900D02*
X206425300Y-70868900D01*
X206425300Y-70868900D02*
X206425300Y-70213700D01*
X206425300Y-70213700D02*
X204712400Y-68500800D01*
X204712400Y-68500800D02*
X204216000Y-68500800D01*
X204216000Y-67310000D02*
X204216000Y-68500800D01*
X204231000Y-63470000D02*
X203040200Y-63470000D01*
X203040200Y-63470000D02*
X201800200Y-62230000D01*
X201800200Y-62230000D02*
X188014000Y-62230000D01*
X188014000Y-62230000D02*
X186657100Y-63586900D01*
X186657100Y-63586900D02*
X186657100Y-74346200D01*
X186657100Y-74346200D02*
X191507100Y-79196200D01*
X191507100Y-79196200D02*
X195980200Y-79196200D01*
X195980200Y-79196200D02*
X196387000Y-78789400D01*
D32*
X272768083Y-20731173D02*
X273511891Y-20934656D01*
X274207905Y-21266638D01*
X274834130Y-21716626D01*
X275370777Y-22270403D01*
X275800871Y-22910451D01*
X276110829Y-23616553D01*
X276292065Y-24371457D01*
X276340000Y-25024207D01*
X276340001Y-113970597D01*
X276268827Y-114768083D01*
X276065344Y-115511890D01*
X275733363Y-116207904D01*
X275283374Y-116834130D01*
X274729597Y-117370777D01*
X274089549Y-117800871D01*
X273383447Y-118110829D01*
X272628543Y-118292065D01*
X271975793Y-118340000D01*
X257203608Y-118340000D01*
X257167415Y-118303807D01*
X257431814Y-118208044D01*
X257572704Y-117918429D01*
X257654384Y-117606892D01*
X257673718Y-117285405D01*
X257629961Y-116966325D01*
X257538258Y-116700881D01*
X269478724Y-116700881D01*
X269838912Y-117190548D01*
X270502882Y-117550849D01*
X271224385Y-117774694D01*
X271975695Y-117853480D01*
X272727938Y-117784178D01*
X273452208Y-117569452D01*
X274120670Y-117217555D01*
X274161088Y-117190548D01*
X274521276Y-116700881D01*
X272000000Y-114179605D01*
X269478724Y-116700881D01*
X257538258Y-116700881D01*
X257524795Y-116661912D01*
X257431814Y-116487956D01*
X257167413Y-116392192D01*
X256211605Y-117348000D01*
X256225748Y-117362143D01*
X256046143Y-117541748D01*
X256032000Y-117527605D01*
X256017858Y-117541748D01*
X255838253Y-117362143D01*
X255852395Y-117348000D01*
X254896587Y-116392192D01*
X254632186Y-116487956D01*
X254491296Y-116777571D01*
X254409616Y-117089108D01*
X254390282Y-117410595D01*
X254434039Y-117729675D01*
X254539205Y-118034088D01*
X254632186Y-118208044D01*
X254896585Y-118303807D01*
X254860392Y-118340000D01*
X190029392Y-118340000D01*
X189231917Y-118268827D01*
X188488110Y-118065344D01*
X187792096Y-117733363D01*
X187165870Y-117283374D01*
X186629223Y-116729597D01*
X186609927Y-116700881D01*
X187478724Y-116700881D01*
X187838912Y-117190548D01*
X188502882Y-117550849D01*
X189224385Y-117774694D01*
X189975695Y-117853480D01*
X190727938Y-117784178D01*
X191452208Y-117569452D01*
X192120670Y-117217555D01*
X192161088Y-117190548D01*
X192521276Y-116700881D01*
X190000000Y-114179605D01*
X187478724Y-116700881D01*
X186609927Y-116700881D01*
X186199129Y-116089549D01*
X185889171Y-115383447D01*
X185707935Y-114628543D01*
X185660000Y-113975793D01*
X185660000Y-113975695D01*
X186146520Y-113975695D01*
X186215822Y-114727938D01*
X186430548Y-115452208D01*
X186782445Y-116120670D01*
X186809452Y-116161088D01*
X187299119Y-116521276D01*
X189820395Y-114000000D01*
X190179605Y-114000000D01*
X192700881Y-116521276D01*
X193120536Y-116212587D01*
X255076192Y-116212587D01*
X256032000Y-117168395D01*
X256987808Y-116212587D01*
X256892044Y-115948186D01*
X256602429Y-115807296D01*
X256290892Y-115725616D01*
X255969405Y-115706282D01*
X255650325Y-115750039D01*
X255345912Y-115855205D01*
X255171956Y-115948186D01*
X255076192Y-116212587D01*
X193120536Y-116212587D01*
X193190548Y-116161088D01*
X193550849Y-115497118D01*
X193751616Y-114850000D01*
X203997928Y-114850000D01*
X204010188Y-114974482D01*
X204046498Y-115094180D01*
X204105463Y-115204494D01*
X204184815Y-115301185D01*
X204281506Y-115380537D01*
X204391820Y-115439502D01*
X204511518Y-115475812D01*
X204636000Y-115488072D01*
X205200250Y-115485000D01*
X205359000Y-115326250D01*
X205359000Y-114127000D01*
X204159750Y-114127000D01*
X204001000Y-114285750D01*
X203997928Y-114850000D01*
X193751616Y-114850000D01*
X193774694Y-114775615D01*
X193853480Y-114024305D01*
X193784178Y-113272062D01*
X193569452Y-112547792D01*
X193217555Y-111879330D01*
X193190548Y-111838912D01*
X192700881Y-111478724D01*
X190179605Y-114000000D01*
X189820395Y-114000000D01*
X187299119Y-111478724D01*
X186809452Y-111838912D01*
X186449151Y-112502882D01*
X186225306Y-113224385D01*
X186146520Y-113975695D01*
X185660000Y-113975695D01*
X185660000Y-111299119D01*
X187478724Y-111299119D01*
X190000000Y-113820395D01*
X192521276Y-111299119D01*
X192161088Y-110809452D01*
X191497118Y-110449151D01*
X190775615Y-110225306D01*
X190024305Y-110146520D01*
X189272062Y-110215822D01*
X188547792Y-110430548D01*
X187879330Y-110782445D01*
X187838912Y-110809452D01*
X187478724Y-111299119D01*
X185660000Y-111299119D01*
X185660000Y-98113521D01*
X187002583Y-98113521D01*
X187044303Y-98398074D01*
X187140735Y-98669020D01*
X187210927Y-98800337D01*
X187457449Y-98874946D01*
X188288395Y-98044000D01*
X188647605Y-98044000D01*
X189478551Y-98874946D01*
X189725073Y-98800337D01*
X189848473Y-98540561D01*
X189918823Y-98261703D01*
X189933417Y-97974479D01*
X189891697Y-97689926D01*
X189795265Y-97418980D01*
X189725073Y-97287663D01*
X189478551Y-97213054D01*
X188647605Y-98044000D01*
X188288395Y-98044000D01*
X187457449Y-97213054D01*
X187210927Y-97287663D01*
X187087527Y-97547439D01*
X187017177Y-97826297D01*
X187002583Y-98113521D01*
X185660000Y-98113521D01*
X185660000Y-92820203D01*
X187008000Y-92820203D01*
X187008000Y-93107797D01*
X187064107Y-93389866D01*
X187174165Y-93655569D01*
X187333944Y-93894696D01*
X187537304Y-94098056D01*
X187740759Y-94234000D01*
X187537304Y-94369944D01*
X187333944Y-94573304D01*
X187174165Y-94812431D01*
X187064107Y-95078134D01*
X187008000Y-95360203D01*
X187008000Y-95647797D01*
X187064107Y-95929866D01*
X187174165Y-96195569D01*
X187333944Y-96434696D01*
X187537304Y-96638056D01*
X187738576Y-96772541D01*
X187711663Y-96786927D01*
X187637054Y-97033449D01*
X188468000Y-97864395D01*
X189298946Y-97033449D01*
X189224337Y-96786927D01*
X189196023Y-96773477D01*
X189398696Y-96638056D01*
X189602056Y-96434696D01*
X189761835Y-96195569D01*
X189871893Y-95929866D01*
X189928000Y-95647797D01*
X189928000Y-95360203D01*
X189871893Y-95078134D01*
X189761835Y-94812431D01*
X189602056Y-94573304D01*
X189398696Y-94369944D01*
X189195241Y-94234000D01*
X189398696Y-94098056D01*
X189602056Y-93894696D01*
X189761835Y-93655569D01*
X189871893Y-93389866D01*
X189928000Y-93107797D01*
X189928000Y-92992702D01*
X199186903Y-92992702D01*
X199258486Y-93236671D01*
X199513996Y-93357571D01*
X199788184Y-93426300D01*
X200070512Y-93440217D01*
X200350130Y-93398787D01*
X200616292Y-93303603D01*
X200741514Y-93236671D01*
X200813097Y-92992702D01*
X200000000Y-92179605D01*
X199186903Y-92992702D01*
X189928000Y-92992702D01*
X189928000Y-92820203D01*
X189871893Y-92538134D01*
X189761835Y-92272431D01*
X189626918Y-92070512D01*
X198559783Y-92070512D01*
X198601213Y-92350130D01*
X198696397Y-92616292D01*
X198763329Y-92741514D01*
X199007298Y-92813097D01*
X199820395Y-92000000D01*
X200179605Y-92000000D01*
X200992702Y-92813097D01*
X201236671Y-92741514D01*
X201250324Y-92712659D01*
X201385363Y-92914759D01*
X201585241Y-93114637D01*
X201820273Y-93271680D01*
X202081426Y-93379853D01*
X202358665Y-93435000D01*
X202641335Y-93435000D01*
X202918574Y-93379853D01*
X203179727Y-93271680D01*
X203414759Y-93114637D01*
X203614637Y-92914759D01*
X203771680Y-92679727D01*
X203879853Y-92418574D01*
X203935000Y-92141335D01*
X203935000Y-91858665D01*
X206065000Y-91858665D01*
X206065000Y-92141335D01*
X206120147Y-92418574D01*
X206228320Y-92679727D01*
X206385363Y-92914759D01*
X206585241Y-93114637D01*
X206820273Y-93271680D01*
X207081426Y-93379853D01*
X207358665Y-93435000D01*
X207641335Y-93435000D01*
X207918574Y-93379853D01*
X208179727Y-93271680D01*
X208414759Y-93114637D01*
X208536694Y-92992702D01*
X209186903Y-92992702D01*
X209258486Y-93236671D01*
X209513996Y-93357571D01*
X209788184Y-93426300D01*
X210070512Y-93440217D01*
X210350130Y-93398787D01*
X210616292Y-93303603D01*
X210741514Y-93236671D01*
X210813097Y-92992702D01*
X210000000Y-92179605D01*
X209186903Y-92992702D01*
X208536694Y-92992702D01*
X208614637Y-92914759D01*
X208748692Y-92714131D01*
X208763329Y-92741514D01*
X209007298Y-92813097D01*
X209820395Y-92000000D01*
X210179605Y-92000000D01*
X210992702Y-92813097D01*
X211236671Y-92741514D01*
X211357571Y-92486004D01*
X211426300Y-92211816D01*
X211440217Y-91929488D01*
X211398787Y-91649870D01*
X211303603Y-91383708D01*
X211236671Y-91258486D01*
X210992702Y-91186903D01*
X210179605Y-92000000D01*
X209820395Y-92000000D01*
X209007298Y-91186903D01*
X208763329Y-91258486D01*
X208749676Y-91287341D01*
X208614637Y-91085241D01*
X208536694Y-91007298D01*
X209186903Y-91007298D01*
X210000000Y-91820395D01*
X210813097Y-91007298D01*
X210741514Y-90763329D01*
X210486004Y-90642429D01*
X210211816Y-90573700D01*
X209929488Y-90559783D01*
X209649870Y-90601213D01*
X209383708Y-90696397D01*
X209258486Y-90763329D01*
X209186903Y-91007298D01*
X208536694Y-91007298D01*
X208414759Y-90885363D01*
X208179727Y-90728320D01*
X207918574Y-90620147D01*
X207641335Y-90565000D01*
X207358665Y-90565000D01*
X207081426Y-90620147D01*
X206820273Y-90728320D01*
X206585241Y-90885363D01*
X206385363Y-91085241D01*
X206228320Y-91320273D01*
X206120147Y-91581426D01*
X206065000Y-91858665D01*
X203935000Y-91858665D01*
X203879853Y-91581426D01*
X203771680Y-91320273D01*
X203614637Y-91085241D01*
X203414759Y-90885363D01*
X203179727Y-90728320D01*
X202918574Y-90620147D01*
X202641335Y-90565000D01*
X202358665Y-90565000D01*
X202081426Y-90620147D01*
X201820273Y-90728320D01*
X201585241Y-90885363D01*
X201385363Y-91085241D01*
X201251308Y-91285869D01*
X201236671Y-91258486D01*
X200992702Y-91186903D01*
X200179605Y-92000000D01*
X199820395Y-92000000D01*
X199007298Y-91186903D01*
X198763329Y-91258486D01*
X198642429Y-91513996D01*
X198573700Y-91788184D01*
X198559783Y-92070512D01*
X189626918Y-92070512D01*
X189602056Y-92033304D01*
X189398696Y-91829944D01*
X189159569Y-91670165D01*
X188893866Y-91560107D01*
X188611797Y-91504000D01*
X188324203Y-91504000D01*
X188042134Y-91560107D01*
X187776431Y-91670165D01*
X187537304Y-91829944D01*
X187333944Y-92033304D01*
X187174165Y-92272431D01*
X187064107Y-92538134D01*
X187008000Y-92820203D01*
X185660000Y-92820203D01*
X185660000Y-91007298D01*
X199186903Y-91007298D01*
X200000000Y-91820395D01*
X200813097Y-91007298D01*
X200741514Y-90763329D01*
X200486004Y-90642429D01*
X200211816Y-90573700D01*
X199929488Y-90559783D01*
X199649870Y-90601213D01*
X199383708Y-90696397D01*
X199258486Y-90763329D01*
X199186903Y-91007298D01*
X185660000Y-91007298D01*
X185660000Y-85863589D01*
X201323000Y-85863589D01*
X201323000Y-86136411D01*
X201376225Y-86403989D01*
X201480629Y-86656043D01*
X201632201Y-86882886D01*
X201825114Y-87075799D01*
X202051957Y-87227371D01*
X202304011Y-87331775D01*
X202571589Y-87385000D01*
X202844411Y-87385000D01*
X203111989Y-87331775D01*
X203364043Y-87227371D01*
X203590886Y-87075799D01*
X203783799Y-86882886D01*
X203935371Y-86656043D01*
X204039775Y-86403989D01*
X204093000Y-86136411D01*
X204093000Y-85863589D01*
X206203000Y-85863589D01*
X206203000Y-86136411D01*
X206256225Y-86403989D01*
X206360629Y-86656043D01*
X206512201Y-86882886D01*
X206705114Y-87075799D01*
X206931957Y-87227371D01*
X207184011Y-87331775D01*
X207451589Y-87385000D01*
X207724411Y-87385000D01*
X207991989Y-87331775D01*
X208244043Y-87227371D01*
X208470886Y-87075799D01*
X208663799Y-86882886D01*
X208815371Y-86656043D01*
X208919775Y-86403989D01*
X208973000Y-86136411D01*
X208973000Y-85863589D01*
X208919775Y-85596011D01*
X208815371Y-85343957D01*
X208663799Y-85117114D01*
X208470886Y-84924201D01*
X208244043Y-84772629D01*
X207991989Y-84668225D01*
X207724411Y-84615000D01*
X207451589Y-84615000D01*
X207184011Y-84668225D01*
X206931957Y-84772629D01*
X206705114Y-84924201D01*
X206512201Y-85117114D01*
X206360629Y-85343957D01*
X206256225Y-85596011D01*
X206203000Y-85863589D01*
X204093000Y-85863589D01*
X204039775Y-85596011D01*
X203935371Y-85343957D01*
X203783799Y-85117114D01*
X203590886Y-84924201D01*
X203364043Y-84772629D01*
X203111989Y-84668225D01*
X202844411Y-84615000D01*
X202571589Y-84615000D01*
X202304011Y-84668225D01*
X202051957Y-84772629D01*
X201825114Y-84924201D01*
X201632201Y-85117114D01*
X201480629Y-85343957D01*
X201376225Y-85596011D01*
X201323000Y-85863589D01*
X185660000Y-85863589D01*
X185660000Y-84078438D01*
X188261505Y-84078438D01*
X188300605Y-84318549D01*
X188385798Y-84546418D01*
X188426652Y-84622852D01*
X188650236Y-84670159D01*
X189320395Y-84000000D01*
X188650236Y-83329841D01*
X188426652Y-83377148D01*
X188325763Y-83598516D01*
X188270000Y-83835313D01*
X188261505Y-84078438D01*
X185660000Y-84078438D01*
X185660000Y-83150236D01*
X188829841Y-83150236D01*
X189500000Y-83820395D01*
X189514143Y-83806253D01*
X189693748Y-83985858D01*
X189679605Y-84000000D01*
X189693748Y-84014143D01*
X189514143Y-84193748D01*
X189500000Y-84179605D01*
X188829841Y-84849764D01*
X188877148Y-85073348D01*
X189098516Y-85174237D01*
X189335313Y-85230000D01*
X189578438Y-85238495D01*
X189818549Y-85199395D01*
X190032117Y-85119549D01*
X190045506Y-85130537D01*
X190155820Y-85189502D01*
X190275518Y-85225812D01*
X190400000Y-85238072D01*
X191600000Y-85238072D01*
X191724482Y-85225812D01*
X191844180Y-85189502D01*
X191954494Y-85130537D01*
X192051185Y-85051185D01*
X192130537Y-84954494D01*
X192189502Y-84844180D01*
X192225812Y-84724482D01*
X192238072Y-84600000D01*
X192238072Y-83400000D01*
X192225812Y-83275518D01*
X192189502Y-83155820D01*
X192130537Y-83045506D01*
X192051185Y-82948815D01*
X191954494Y-82869463D01*
X191844180Y-82810498D01*
X191724482Y-82774188D01*
X191600000Y-82761928D01*
X190400000Y-82761928D01*
X190275518Y-82774188D01*
X190155820Y-82810498D01*
X190045506Y-82869463D01*
X190028319Y-82883568D01*
X189901484Y-82825763D01*
X189664687Y-82770000D01*
X189421562Y-82761505D01*
X189181451Y-82800605D01*
X188953582Y-82885798D01*
X188877148Y-82926652D01*
X188829841Y-83150236D01*
X185660000Y-83150236D01*
X185660000Y-78992702D01*
X187186903Y-78992702D01*
X187258486Y-79236671D01*
X187513996Y-79357571D01*
X187788184Y-79426300D01*
X188070512Y-79440217D01*
X188350130Y-79398787D01*
X188616292Y-79303603D01*
X188741514Y-79236671D01*
X188813097Y-78992702D01*
X188000000Y-78179605D01*
X187186903Y-78992702D01*
X185660000Y-78992702D01*
X185660000Y-78070512D01*
X186559783Y-78070512D01*
X186601213Y-78350130D01*
X186696397Y-78616292D01*
X186763329Y-78741514D01*
X187007298Y-78813097D01*
X187820395Y-78000000D01*
X187007298Y-77186903D01*
X186763329Y-77258486D01*
X186642429Y-77513996D01*
X186573700Y-77788184D01*
X186559783Y-78070512D01*
X185660000Y-78070512D01*
X185660000Y-63586900D01*
X185827606Y-63586900D01*
X185831600Y-63627450D01*
X185831601Y-74305640D01*
X185827606Y-74346200D01*
X185843545Y-74508026D01*
X185890747Y-74663633D01*
X185967401Y-74807042D01*
X186018906Y-74869800D01*
X186070560Y-74932741D01*
X186102061Y-74958593D01*
X187732445Y-76588978D01*
X187649870Y-76601213D01*
X187383708Y-76696397D01*
X187258486Y-76763329D01*
X187186903Y-77007298D01*
X188000000Y-77820395D01*
X188014143Y-77806253D01*
X188193748Y-77985858D01*
X188179605Y-78000000D01*
X188992702Y-78813097D01*
X189236671Y-78741514D01*
X189357571Y-78486004D01*
X189412066Y-78268600D01*
X190894711Y-79751245D01*
X190920559Y-79782741D01*
X190952055Y-79808589D01*
X190952058Y-79808592D01*
X191046257Y-79885899D01*
X191153169Y-79943045D01*
X191189666Y-79962553D01*
X191345274Y-80009756D01*
X191466547Y-80021700D01*
X191466549Y-80021700D01*
X191507100Y-80025694D01*
X191547650Y-80021700D01*
X195939650Y-80021700D01*
X195980200Y-80025694D01*
X196020750Y-80021700D01*
X196020753Y-80021700D01*
X196100889Y-80013808D01*
X196124395Y-80070556D01*
X196237663Y-80240074D01*
X196381826Y-80384237D01*
X196551344Y-80497505D01*
X196739702Y-80575526D01*
X196939661Y-80615300D01*
X197143539Y-80615300D01*
X197343498Y-80575526D01*
X197531856Y-80497505D01*
X197701374Y-80384237D01*
X197845537Y-80240074D01*
X197958805Y-80070556D01*
X198036826Y-79882198D01*
X198076600Y-79682239D01*
X198076600Y-79478361D01*
X198036826Y-79278402D01*
X198012300Y-79219191D01*
X198012300Y-77598534D01*
X198064400Y-77650634D01*
X198064400Y-77884650D01*
X198060406Y-77925200D01*
X198064400Y-77965750D01*
X198064400Y-77965753D01*
X198076344Y-78087026D01*
X198123547Y-78242634D01*
X198150248Y-78292587D01*
X198200201Y-78386042D01*
X198244107Y-78439541D01*
X198303360Y-78511741D01*
X198334861Y-78537593D01*
X202620207Y-82822940D01*
X202646059Y-82854441D01*
X202684268Y-82885798D01*
X202771757Y-82957599D01*
X202821711Y-82984299D01*
X202915166Y-83034253D01*
X203070774Y-83081456D01*
X203192047Y-83093400D01*
X203192049Y-83093400D01*
X203232599Y-83097394D01*
X203273150Y-83093400D01*
X208950168Y-83093400D01*
X219900500Y-94043733D01*
X219900501Y-112718647D01*
X219900501Y-112765587D01*
X219779368Y-112846525D01*
X219647513Y-112978380D01*
X219625502Y-112905820D01*
X219566537Y-112795506D01*
X219487185Y-112698815D01*
X219390494Y-112619463D01*
X219280180Y-112560498D01*
X219160482Y-112524188D01*
X219036000Y-112511928D01*
X218471750Y-112515000D01*
X218313000Y-112673750D01*
X218313000Y-113873000D01*
X218333000Y-113873000D01*
X218333000Y-114127000D01*
X218313000Y-114127000D01*
X218313000Y-114147000D01*
X218059000Y-114147000D01*
X218059000Y-114127000D01*
X216859750Y-114127000D01*
X216701000Y-114285750D01*
X216700197Y-114433200D01*
X211993915Y-114433200D01*
X211993932Y-114433158D01*
X212051000Y-114146260D01*
X212051000Y-113853740D01*
X211993932Y-113566842D01*
X211881990Y-113296589D01*
X211784043Y-113150000D01*
X216697928Y-113150000D01*
X216701000Y-113714250D01*
X216859750Y-113873000D01*
X218059000Y-113873000D01*
X218059000Y-112673750D01*
X217900250Y-112515000D01*
X217336000Y-112511928D01*
X217211518Y-112524188D01*
X217091820Y-112560498D01*
X216981506Y-112619463D01*
X216884815Y-112698815D01*
X216805463Y-112795506D01*
X216746498Y-112905820D01*
X216710188Y-113025518D01*
X216697928Y-113150000D01*
X211784043Y-113150000D01*
X211719475Y-113053368D01*
X211512632Y-112846525D01*
X211269411Y-112684010D01*
X210999158Y-112572068D01*
X210712260Y-112515000D01*
X210419740Y-112515000D01*
X210132842Y-112572068D01*
X209862589Y-112684010D01*
X209619368Y-112846525D01*
X209412525Y-113053368D01*
X209330091Y-113176739D01*
X209307353Y-113174500D01*
X209266800Y-113170506D01*
X209258303Y-113171343D01*
X209179475Y-113053368D01*
X208972632Y-112846525D01*
X208729411Y-112684010D01*
X208459158Y-112572068D01*
X208172260Y-112515000D01*
X207879740Y-112515000D01*
X207592842Y-112572068D01*
X207514269Y-112604614D01*
X207474899Y-112530958D01*
X207371741Y-112405259D01*
X207340241Y-112379408D01*
X203177798Y-108216966D01*
X203151941Y-108185459D01*
X203026242Y-108082301D01*
X202882834Y-108005647D01*
X202727226Y-107958444D01*
X202605953Y-107946500D01*
X202605950Y-107946500D01*
X202565400Y-107942506D01*
X202524850Y-107946500D01*
X200591847Y-107946500D01*
X200608977Y-107929370D01*
X200492704Y-107813097D01*
X200736671Y-107741514D01*
X200857571Y-107486004D01*
X200926300Y-107211816D01*
X200940217Y-106929488D01*
X200898787Y-106649870D01*
X200803603Y-106383708D01*
X200736671Y-106258486D01*
X200492702Y-106186903D01*
X199679605Y-107000000D01*
X199693748Y-107014143D01*
X199514143Y-107193748D01*
X199500000Y-107179605D01*
X199485858Y-107193748D01*
X199306253Y-107014143D01*
X199320395Y-107000000D01*
X198507298Y-106186903D01*
X198263329Y-106258486D01*
X198142429Y-106513996D01*
X198088274Y-106730042D01*
X197803198Y-106444966D01*
X197777341Y-106413459D01*
X197651642Y-106310301D01*
X197508234Y-106233647D01*
X197438072Y-106212364D01*
X197438072Y-106200000D01*
X197425812Y-106075518D01*
X197405118Y-106007298D01*
X198686903Y-106007298D01*
X199500000Y-106820395D01*
X200313097Y-106007298D01*
X200241514Y-105763329D01*
X199986004Y-105642429D01*
X199711816Y-105573700D01*
X199429488Y-105559783D01*
X199149870Y-105601213D01*
X198883708Y-105696397D01*
X198758486Y-105763329D01*
X198686903Y-106007298D01*
X197405118Y-106007298D01*
X197389502Y-105955820D01*
X197330537Y-105845506D01*
X197251185Y-105748815D01*
X197154494Y-105669463D01*
X197044180Y-105610498D01*
X196924482Y-105574188D01*
X196800000Y-105561928D01*
X196787636Y-105561928D01*
X196766353Y-105491766D01*
X196689699Y-105348358D01*
X196586541Y-105222659D01*
X196460842Y-105119501D01*
X196317434Y-105042847D01*
X196161826Y-104995644D01*
X196040553Y-104983700D01*
X196000000Y-104979706D01*
X195959447Y-104983700D01*
X195250934Y-104983700D01*
X190296198Y-100028966D01*
X190270341Y-99997459D01*
X190144642Y-99894301D01*
X190001234Y-99817647D01*
X189931072Y-99796364D01*
X189931072Y-99759000D01*
X189918812Y-99634518D01*
X189882502Y-99514820D01*
X189823537Y-99404506D01*
X189744185Y-99307815D01*
X189647494Y-99228463D01*
X189537180Y-99169498D01*
X189417482Y-99133188D01*
X189293000Y-99120928D01*
X189278857Y-99120928D01*
X189298946Y-99054551D01*
X188468000Y-98223605D01*
X187637054Y-99054551D01*
X187657143Y-99120928D01*
X187643000Y-99120928D01*
X187518518Y-99133188D01*
X187398820Y-99169498D01*
X187288506Y-99228463D01*
X187191815Y-99307815D01*
X187112463Y-99404506D01*
X187053498Y-99514820D01*
X187017188Y-99634518D01*
X187004928Y-99759000D01*
X187004928Y-101409000D01*
X187017188Y-101533482D01*
X187053498Y-101653180D01*
X187112463Y-101763494D01*
X187191815Y-101860185D01*
X187288506Y-101939537D01*
X187398820Y-101998502D01*
X187518518Y-102034812D01*
X187643000Y-102047072D01*
X189293000Y-102047072D01*
X189417482Y-102034812D01*
X189537180Y-101998502D01*
X189647494Y-101939537D01*
X189744185Y-101860185D01*
X189765987Y-101833619D01*
X194296611Y-106364245D01*
X194322459Y-106395741D01*
X194353955Y-106421589D01*
X194353958Y-106421592D01*
X194448157Y-106498899D01*
X194561928Y-106559711D01*
X194561928Y-107800000D01*
X194574188Y-107924482D01*
X194610498Y-108044180D01*
X194669463Y-108154494D01*
X194748815Y-108251185D01*
X194845506Y-108330537D01*
X194955820Y-108389502D01*
X195075518Y-108425812D01*
X195200000Y-108438072D01*
X196800000Y-108438072D01*
X196924482Y-108425812D01*
X197044180Y-108389502D01*
X197154494Y-108330537D01*
X197251185Y-108251185D01*
X197261718Y-108238350D01*
X198350406Y-109327039D01*
X198376259Y-109358541D01*
X198433656Y-109405645D01*
X198501956Y-109461698D01*
X198501958Y-109461699D01*
X198645366Y-109538353D01*
X198800974Y-109585556D01*
X198922247Y-109597500D01*
X198922256Y-109597500D01*
X198962799Y-109601493D01*
X199003342Y-109597500D01*
X202223468Y-109597500D01*
X205140643Y-112514675D01*
X204636000Y-112511928D01*
X204511518Y-112524188D01*
X204391820Y-112560498D01*
X204281506Y-112619463D01*
X204184815Y-112698815D01*
X204105463Y-112795506D01*
X204046498Y-112905820D01*
X204010188Y-113025518D01*
X203997928Y-113150000D01*
X204001000Y-113714250D01*
X204159750Y-113873000D01*
X205359000Y-113873000D01*
X205359000Y-113853000D01*
X205613000Y-113853000D01*
X205613000Y-113873000D01*
X205633000Y-113873000D01*
X205633000Y-114127000D01*
X205613000Y-114127000D01*
X205613000Y-115326250D01*
X205771750Y-115485000D01*
X206336000Y-115488072D01*
X206460482Y-115475812D01*
X206580180Y-115439502D01*
X206690494Y-115380537D01*
X206787185Y-115301185D01*
X206866537Y-115204494D01*
X206925502Y-115094180D01*
X206947513Y-115021620D01*
X207079368Y-115153475D01*
X207322589Y-115315990D01*
X207592842Y-115427932D01*
X207879740Y-115485000D01*
X208172260Y-115485000D01*
X208459158Y-115427932D01*
X208729411Y-115315990D01*
X208832366Y-115247198D01*
X209398906Y-115813739D01*
X209424759Y-115845241D01*
X209488896Y-115897877D01*
X209550457Y-115948399D01*
X209660565Y-116007253D01*
X209693866Y-116025053D01*
X209849474Y-116072256D01*
X209970747Y-116084200D01*
X209970749Y-116084200D01*
X210011300Y-116088194D01*
X210051850Y-116084200D01*
X226271250Y-116084200D01*
X226311800Y-116088194D01*
X226352350Y-116084200D01*
X226352353Y-116084200D01*
X226473626Y-116072256D01*
X226629234Y-116025053D01*
X226772642Y-115948399D01*
X226898341Y-115845241D01*
X226924198Y-115813734D01*
X227510321Y-115227612D01*
X227642589Y-115315990D01*
X227912842Y-115427932D01*
X228199740Y-115485000D01*
X228492260Y-115485000D01*
X228779158Y-115427932D01*
X229049411Y-115315990D01*
X229292632Y-115153475D01*
X229499475Y-114946632D01*
X229661990Y-114703411D01*
X229773932Y-114433158D01*
X229831000Y-114146260D01*
X229831000Y-113853740D01*
X229773932Y-113566842D01*
X229661990Y-113296589D01*
X229499475Y-113053368D01*
X229292632Y-112846525D01*
X229049411Y-112684010D01*
X228779158Y-112572068D01*
X228492260Y-112515000D01*
X228199740Y-112515000D01*
X227912842Y-112572068D01*
X227642589Y-112684010D01*
X227399368Y-112846525D01*
X227192525Y-113053368D01*
X227113697Y-113171343D01*
X227105200Y-113170506D01*
X227064647Y-113174500D01*
X227041909Y-113176739D01*
X226959475Y-113053368D01*
X226752632Y-112846525D01*
X226509411Y-112684010D01*
X226239158Y-112572068D01*
X225952260Y-112515000D01*
X225659740Y-112515000D01*
X225372842Y-112572068D01*
X225102589Y-112684010D01*
X224859368Y-112846525D01*
X224652525Y-113053368D01*
X224536000Y-113227760D01*
X224419475Y-113053368D01*
X224212632Y-112846525D01*
X224091500Y-112765587D01*
X224091500Y-96519532D01*
X233721967Y-106150000D01*
X233538665Y-106150000D01*
X233261426Y-106205147D01*
X233000273Y-106313320D01*
X232765241Y-106470363D01*
X232565363Y-106670241D01*
X232408320Y-106905273D01*
X232300147Y-107166426D01*
X232245000Y-107443665D01*
X232245000Y-107726335D01*
X232300147Y-108003574D01*
X232408320Y-108264727D01*
X232565363Y-108499759D01*
X232765241Y-108699637D01*
X233000273Y-108856680D01*
X233261426Y-108964853D01*
X233538665Y-109020000D01*
X233821335Y-109020000D01*
X233926624Y-108999056D01*
X240723511Y-115795945D01*
X240749359Y-115827441D01*
X240780855Y-115853289D01*
X240780858Y-115853292D01*
X240875057Y-115930599D01*
X240974903Y-115983968D01*
X241018466Y-116007253D01*
X241174074Y-116054456D01*
X241295347Y-116066400D01*
X241295349Y-116066400D01*
X241335900Y-116070394D01*
X241376450Y-116066400D01*
X246657650Y-116066400D01*
X246698200Y-116070394D01*
X246738750Y-116066400D01*
X246738753Y-116066400D01*
X246860026Y-116054456D01*
X247015634Y-116007253D01*
X247159042Y-115930599D01*
X247284741Y-115827441D01*
X247310597Y-115795935D01*
X247443038Y-115663494D01*
X247474541Y-115637641D01*
X247577699Y-115511942D01*
X247641136Y-115393260D01*
X247724842Y-115427932D01*
X248011740Y-115485000D01*
X248304260Y-115485000D01*
X248591158Y-115427932D01*
X248861411Y-115315990D01*
X249104632Y-115153475D01*
X249311475Y-114946632D01*
X249428000Y-114772240D01*
X249544525Y-114946632D01*
X249751368Y-115153475D01*
X249994589Y-115315990D01*
X250264842Y-115427932D01*
X250551740Y-115485000D01*
X250844260Y-115485000D01*
X251131158Y-115427932D01*
X251401411Y-115315990D01*
X251644632Y-115153475D01*
X251851475Y-114946632D01*
X252013990Y-114703411D01*
X252037369Y-114646967D01*
X264557000Y-114646967D01*
X264557000Y-114969033D01*
X264619832Y-115284912D01*
X264743082Y-115582463D01*
X264922013Y-115850252D01*
X265149748Y-116077987D01*
X265417537Y-116256918D01*
X265715088Y-116380168D01*
X266030967Y-116443000D01*
X266353033Y-116443000D01*
X266668912Y-116380168D01*
X266966463Y-116256918D01*
X267234252Y-116077987D01*
X267461987Y-115850252D01*
X267640918Y-115582463D01*
X267764168Y-115284912D01*
X267827000Y-114969033D01*
X267827000Y-114646967D01*
X267764168Y-114331088D01*
X267640918Y-114033537D01*
X267602270Y-113975695D01*
X268146520Y-113975695D01*
X268215822Y-114727938D01*
X268430548Y-115452208D01*
X268782445Y-116120670D01*
X268809452Y-116161088D01*
X269299119Y-116521276D01*
X271820395Y-114000000D01*
X272179605Y-114000000D01*
X274700881Y-116521276D01*
X275190548Y-116161088D01*
X275550849Y-115497118D01*
X275774694Y-114775615D01*
X275853480Y-114024305D01*
X275784178Y-113272062D01*
X275569452Y-112547792D01*
X275217555Y-111879330D01*
X275190548Y-111838912D01*
X274700881Y-111478724D01*
X272179605Y-114000000D01*
X271820395Y-114000000D01*
X269299119Y-111478724D01*
X268809452Y-111838912D01*
X268449151Y-112502882D01*
X268225306Y-113224385D01*
X268146520Y-113975695D01*
X267602270Y-113975695D01*
X267461987Y-113765748D01*
X267234252Y-113538013D01*
X266966463Y-113359082D01*
X266668912Y-113235832D01*
X266353033Y-113173000D01*
X266030967Y-113173000D01*
X265715088Y-113235832D01*
X265417537Y-113359082D01*
X265149748Y-113538013D01*
X264922013Y-113765748D01*
X264743082Y-114033537D01*
X264619832Y-114331088D01*
X264557000Y-114646967D01*
X252037369Y-114646967D01*
X252125932Y-114433158D01*
X252183000Y-114146260D01*
X252183000Y-113853740D01*
X252125932Y-113566842D01*
X252013990Y-113296589D01*
X251851475Y-113053368D01*
X251644632Y-112846525D01*
X251470240Y-112730000D01*
X251644632Y-112613475D01*
X251851475Y-112406632D01*
X251932413Y-112285500D01*
X254397000Y-112285500D01*
X254397000Y-112429033D01*
X254459832Y-112744912D01*
X254583082Y-113042463D01*
X254762013Y-113310252D01*
X254989748Y-113537987D01*
X255257537Y-113716918D01*
X255555088Y-113840168D01*
X255870967Y-113903000D01*
X256193033Y-113903000D01*
X256508912Y-113840168D01*
X256806463Y-113716918D01*
X257074252Y-113537987D01*
X257301987Y-113310252D01*
X257446816Y-113093500D01*
X259801450Y-113093500D01*
X259842000Y-113097494D01*
X259882550Y-113093500D01*
X259882553Y-113093500D01*
X260003826Y-113081556D01*
X260159434Y-113034353D01*
X260302842Y-112957699D01*
X260428541Y-112854541D01*
X260454398Y-112823034D01*
X261978314Y-111299119D01*
X269478724Y-111299119D01*
X272000000Y-113820395D01*
X274521276Y-111299119D01*
X274161088Y-110809452D01*
X273497118Y-110449151D01*
X272775615Y-110225306D01*
X272024305Y-110146520D01*
X271272062Y-110215822D01*
X270547792Y-110430548D01*
X269879330Y-110782445D01*
X269838912Y-110809452D01*
X269478724Y-111299119D01*
X261978314Y-111299119D01*
X263278377Y-109999057D01*
X263383665Y-110020000D01*
X263666335Y-110020000D01*
X263943574Y-109964853D01*
X264204727Y-109856680D01*
X264439759Y-109699637D01*
X264639637Y-109499759D01*
X264699278Y-109410500D01*
X270963650Y-109410500D01*
X271004200Y-109414494D01*
X271044750Y-109410500D01*
X271044753Y-109410500D01*
X271166026Y-109398556D01*
X271321634Y-109351353D01*
X271465042Y-109274699D01*
X271470467Y-109270247D01*
X271499463Y-109324494D01*
X271578815Y-109421185D01*
X271675506Y-109500537D01*
X271785820Y-109559502D01*
X271905518Y-109595812D01*
X272030000Y-109608072D01*
X274070000Y-109608072D01*
X274194482Y-109595812D01*
X274314180Y-109559502D01*
X274424494Y-109500537D01*
X274521185Y-109421185D01*
X274600537Y-109324494D01*
X274659502Y-109214180D01*
X274695812Y-109094482D01*
X274708072Y-108970000D01*
X274708072Y-106930000D01*
X274695812Y-106805518D01*
X274659502Y-106685820D01*
X274600537Y-106575506D01*
X274521185Y-106478815D01*
X274424494Y-106399463D01*
X274391204Y-106381669D01*
X274516642Y-106193937D01*
X274641399Y-105892746D01*
X274705000Y-105573003D01*
X274705000Y-105246997D01*
X274641399Y-104927254D01*
X274516642Y-104626063D01*
X274335523Y-104354999D01*
X274120524Y-104140000D01*
X274335523Y-103925001D01*
X274516642Y-103653937D01*
X274641399Y-103352746D01*
X274705000Y-103033003D01*
X274705000Y-102706997D01*
X274641399Y-102387254D01*
X274516642Y-102086063D01*
X274335523Y-101814999D01*
X274105001Y-101584477D01*
X273833937Y-101403358D01*
X273532746Y-101278601D01*
X273213003Y-101215000D01*
X272886997Y-101215000D01*
X272567254Y-101278601D01*
X272266063Y-101403358D01*
X271994999Y-101584477D01*
X271764477Y-101814999D01*
X271583358Y-102086063D01*
X271458601Y-102387254D01*
X271395000Y-102706997D01*
X271395000Y-103033003D01*
X271458601Y-103352746D01*
X271583358Y-103653937D01*
X271764477Y-103925001D01*
X271979476Y-104140000D01*
X271764477Y-104354999D01*
X271583358Y-104626063D01*
X271458601Y-104927254D01*
X271395000Y-105246997D01*
X271395000Y-105573003D01*
X271458601Y-105892746D01*
X271583358Y-106193937D01*
X271708796Y-106381669D01*
X271675506Y-106399463D01*
X271578815Y-106478815D01*
X271499463Y-106575506D01*
X271440498Y-106685820D01*
X271404188Y-106805518D01*
X271391928Y-106930000D01*
X271391928Y-107162364D01*
X271335091Y-107179605D01*
X271321766Y-107183647D01*
X271178357Y-107260301D01*
X271084158Y-107337608D01*
X271084155Y-107337611D01*
X271052659Y-107363459D01*
X271026810Y-107394956D01*
X270662267Y-107759500D01*
X264699278Y-107759500D01*
X264639637Y-107670241D01*
X264439759Y-107470363D01*
X264204727Y-107313320D01*
X263943574Y-107205147D01*
X263666335Y-107150000D01*
X263383665Y-107150000D01*
X263106426Y-107205147D01*
X262845273Y-107313320D01*
X262676027Y-107426406D01*
X263278377Y-106824057D01*
X263383665Y-106845000D01*
X263666335Y-106845000D01*
X263943574Y-106789853D01*
X264204727Y-106681680D01*
X264439759Y-106524637D01*
X264639637Y-106324759D01*
X264796680Y-106089727D01*
X264904853Y-105828574D01*
X264960000Y-105551335D01*
X264960000Y-105268665D01*
X264904853Y-104991426D01*
X264796680Y-104730273D01*
X264639637Y-104495241D01*
X264439759Y-104295363D01*
X264204727Y-104138320D01*
X263943574Y-104030147D01*
X263666335Y-103975000D01*
X263383665Y-103975000D01*
X263106426Y-104030147D01*
X262845273Y-104138320D01*
X262610241Y-104295363D01*
X262410363Y-104495241D01*
X262253320Y-104730273D01*
X262145147Y-104991426D01*
X262090000Y-105268665D01*
X262090000Y-105551335D01*
X262110943Y-105656623D01*
X258373868Y-109393700D01*
X257090503Y-109393700D01*
X257176680Y-109264727D01*
X257284853Y-109003574D01*
X257340000Y-108726335D01*
X257340000Y-108443665D01*
X257284853Y-108166426D01*
X257176680Y-107905273D01*
X257019637Y-107670241D01*
X256819759Y-107470363D01*
X256584727Y-107313320D01*
X256323574Y-107205147D01*
X256046335Y-107150000D01*
X255763665Y-107150000D01*
X255486426Y-107205147D01*
X255225273Y-107313320D01*
X255111665Y-107389231D01*
X253481473Y-105759039D01*
X254513096Y-105759039D01*
X254553754Y-105893087D01*
X254673963Y-106147420D01*
X254841481Y-106373414D01*
X255049869Y-106562385D01*
X255291119Y-106707070D01*
X255555960Y-106801909D01*
X255778000Y-106680624D01*
X255778000Y-105537000D01*
X256032000Y-105537000D01*
X256032000Y-106680624D01*
X256254040Y-106801909D01*
X256518881Y-106707070D01*
X256760131Y-106562385D01*
X256968519Y-106373414D01*
X257136037Y-106147420D01*
X257256246Y-105893087D01*
X257296904Y-105759039D01*
X257174915Y-105537000D01*
X256032000Y-105537000D01*
X255778000Y-105537000D01*
X254635085Y-105537000D01*
X254513096Y-105759039D01*
X253481473Y-105759039D01*
X252783395Y-105060961D01*
X254513096Y-105060961D01*
X254635085Y-105283000D01*
X255778000Y-105283000D01*
X255778000Y-104139376D01*
X256032000Y-104139376D01*
X256032000Y-105283000D01*
X257174915Y-105283000D01*
X257296904Y-105060961D01*
X257256246Y-104926913D01*
X257136037Y-104672580D01*
X256968519Y-104446586D01*
X256760131Y-104257615D01*
X256518881Y-104112930D01*
X256254040Y-104018091D01*
X256032000Y-104139376D01*
X255778000Y-104139376D01*
X255555960Y-104018091D01*
X255291119Y-104112930D01*
X255049869Y-104257615D01*
X254841481Y-104446586D01*
X254673963Y-104672580D01*
X254553754Y-104926913D01*
X254513096Y-105060961D01*
X252783395Y-105060961D01*
X251054100Y-103331667D01*
X251090000Y-103151184D01*
X251090000Y-102848816D01*
X251037333Y-102584039D01*
X254513096Y-102584039D01*
X254553754Y-102718087D01*
X254673963Y-102972420D01*
X254841481Y-103198414D01*
X255049869Y-103387385D01*
X255291119Y-103532070D01*
X255555960Y-103626909D01*
X255778000Y-103505624D01*
X255778000Y-102362000D01*
X256032000Y-102362000D01*
X256032000Y-103505624D01*
X256254040Y-103626909D01*
X256518881Y-103532070D01*
X256760131Y-103387385D01*
X256968519Y-103198414D01*
X257136037Y-102972420D01*
X257256246Y-102718087D01*
X257296904Y-102584039D01*
X257174915Y-102362000D01*
X256032000Y-102362000D01*
X255778000Y-102362000D01*
X254635085Y-102362000D01*
X254513096Y-102584039D01*
X251037333Y-102584039D01*
X251031011Y-102552257D01*
X250915299Y-102272905D01*
X250747312Y-102021495D01*
X250611778Y-101885961D01*
X254513096Y-101885961D01*
X254635085Y-102108000D01*
X255778000Y-102108000D01*
X255778000Y-100964376D01*
X256032000Y-100964376D01*
X256032000Y-102108000D01*
X257174915Y-102108000D01*
X257296904Y-101885961D01*
X257256246Y-101751913D01*
X257136037Y-101497580D01*
X256968519Y-101271586D01*
X256760131Y-101082615D01*
X256518881Y-100937930D01*
X256254040Y-100843091D01*
X256032000Y-100964376D01*
X255778000Y-100964376D01*
X255555960Y-100843091D01*
X255291119Y-100937930D01*
X255049869Y-101082615D01*
X254841481Y-101271586D01*
X254673963Y-101497580D01*
X254553754Y-101751913D01*
X254513096Y-101885961D01*
X250611778Y-101885961D01*
X250533505Y-101807688D01*
X250282095Y-101639701D01*
X250002743Y-101523989D01*
X249706184Y-101465000D01*
X249403816Y-101465000D01*
X249107257Y-101523989D01*
X248827905Y-101639701D01*
X248576495Y-101807688D01*
X248510056Y-101874127D01*
X248504502Y-101855820D01*
X248445537Y-101745506D01*
X248366185Y-101648815D01*
X248269494Y-101569463D01*
X248159180Y-101510498D01*
X248039482Y-101474188D01*
X247915000Y-101461928D01*
X247300750Y-101465000D01*
X247142000Y-101623750D01*
X247142000Y-102873000D01*
X247162000Y-102873000D01*
X247162000Y-103127000D01*
X247142000Y-103127000D01*
X247142000Y-104376250D01*
X247300750Y-104535000D01*
X247915000Y-104538072D01*
X248039482Y-104525812D01*
X248159180Y-104489502D01*
X248269494Y-104430537D01*
X248366185Y-104351185D01*
X248445537Y-104254494D01*
X248504502Y-104144180D01*
X248510056Y-104125873D01*
X248576495Y-104192312D01*
X248827905Y-104360299D01*
X249107257Y-104476011D01*
X249403816Y-104535000D01*
X249706184Y-104535000D01*
X249886667Y-104499100D01*
X253888700Y-108501134D01*
X253888700Y-108544447D01*
X253884706Y-108585000D01*
X253900644Y-108746826D01*
X253947847Y-108902434D01*
X254024501Y-109045842D01*
X254060276Y-109089434D01*
X254127659Y-109171541D01*
X254253358Y-109274699D01*
X254396766Y-109351353D01*
X254536366Y-109393700D01*
X247674750Y-109393700D01*
X247634199Y-109389706D01*
X247593649Y-109393700D01*
X247593647Y-109393700D01*
X247472374Y-109405644D01*
X247316766Y-109452847D01*
X247229001Y-109499759D01*
X247173357Y-109529501D01*
X247136801Y-109559502D01*
X247047659Y-109632659D01*
X247021808Y-109664159D01*
X246453619Y-110232349D01*
X246321411Y-110144010D01*
X246051158Y-110032068D01*
X245764260Y-109975000D01*
X245471740Y-109975000D01*
X245184842Y-110032068D01*
X244914589Y-110144010D01*
X244671368Y-110306525D01*
X244464525Y-110513368D01*
X244302010Y-110756589D01*
X244190068Y-111026842D01*
X244133000Y-111313740D01*
X244133000Y-111606260D01*
X244190068Y-111893158D01*
X244302010Y-112163411D01*
X244464525Y-112406632D01*
X244596380Y-112538487D01*
X244523820Y-112560498D01*
X244413506Y-112619463D01*
X244316815Y-112698815D01*
X244237463Y-112795506D01*
X244178498Y-112905820D01*
X244142188Y-113025518D01*
X244129928Y-113150000D01*
X244129928Y-113174500D01*
X243081333Y-113174500D01*
X237350498Y-107443665D01*
X239865000Y-107443665D01*
X239865000Y-107726335D01*
X239920147Y-108003574D01*
X240028320Y-108264727D01*
X240185363Y-108499759D01*
X240385241Y-108699637D01*
X240620273Y-108856680D01*
X240881426Y-108964853D01*
X241158665Y-109020000D01*
X241441335Y-109020000D01*
X241718574Y-108964853D01*
X241979727Y-108856680D01*
X242214759Y-108699637D01*
X242414637Y-108499759D01*
X242571680Y-108264727D01*
X242679853Y-108003574D01*
X242735000Y-107726335D01*
X242735000Y-107443665D01*
X242679853Y-107166426D01*
X242571680Y-106905273D01*
X242414637Y-106670241D01*
X242214759Y-106470363D01*
X241979727Y-106313320D01*
X241718574Y-106205147D01*
X241441335Y-106150000D01*
X241158665Y-106150000D01*
X240881426Y-106205147D01*
X240620273Y-106313320D01*
X240385241Y-106470363D01*
X240185363Y-106670241D01*
X240028320Y-106905273D01*
X239920147Y-107166426D01*
X239865000Y-107443665D01*
X237350498Y-107443665D01*
X233806833Y-103900000D01*
X245476928Y-103900000D01*
X245489188Y-104024482D01*
X245525498Y-104144180D01*
X245584463Y-104254494D01*
X245663815Y-104351185D01*
X245760506Y-104430537D01*
X245870820Y-104489502D01*
X245990518Y-104525812D01*
X246115000Y-104538072D01*
X246729250Y-104535000D01*
X246888000Y-104376250D01*
X246888000Y-103127000D01*
X245638750Y-103127000D01*
X245480000Y-103285750D01*
X245476928Y-103900000D01*
X233806833Y-103900000D01*
X231032333Y-101125500D01*
X234495568Y-101125500D01*
X234289241Y-101263363D01*
X234089363Y-101463241D01*
X233932320Y-101698273D01*
X233824147Y-101959426D01*
X233769000Y-102236665D01*
X233769000Y-102519335D01*
X233824147Y-102796574D01*
X233932320Y-103057727D01*
X234089363Y-103292759D01*
X234289241Y-103492637D01*
X234524273Y-103649680D01*
X234785426Y-103757853D01*
X235062665Y-103813000D01*
X235345335Y-103813000D01*
X235622574Y-103757853D01*
X235883727Y-103649680D01*
X236118759Y-103492637D01*
X236318637Y-103292759D01*
X236475680Y-103057727D01*
X236583853Y-102796574D01*
X236639000Y-102519335D01*
X236639000Y-102236665D01*
X236583853Y-101959426D01*
X236475680Y-101698273D01*
X236318637Y-101463241D01*
X236118759Y-101263363D01*
X235912432Y-101125500D01*
X237784068Y-101125500D01*
X238789943Y-102131377D01*
X238769000Y-102236665D01*
X238769000Y-102519335D01*
X238824147Y-102796574D01*
X238932320Y-103057727D01*
X239089363Y-103292759D01*
X239289241Y-103492637D01*
X239524273Y-103649680D01*
X239785426Y-103757853D01*
X240062665Y-103813000D01*
X240345335Y-103813000D01*
X240622574Y-103757853D01*
X240883727Y-103649680D01*
X241118759Y-103492637D01*
X241318637Y-103292759D01*
X241475680Y-103057727D01*
X241583853Y-102796574D01*
X241639000Y-102519335D01*
X241639000Y-102236665D01*
X241611816Y-102100000D01*
X245476928Y-102100000D01*
X245480000Y-102714250D01*
X245638750Y-102873000D01*
X246888000Y-102873000D01*
X246888000Y-101623750D01*
X246729250Y-101465000D01*
X246115000Y-101461928D01*
X245990518Y-101474188D01*
X245870820Y-101510498D01*
X245760506Y-101569463D01*
X245663815Y-101648815D01*
X245584463Y-101745506D01*
X245525498Y-101855820D01*
X245489188Y-101975518D01*
X245476928Y-102100000D01*
X241611816Y-102100000D01*
X241583853Y-101959426D01*
X241475680Y-101698273D01*
X241318637Y-101463241D01*
X241118759Y-101263363D01*
X240883727Y-101106320D01*
X240622574Y-100998147D01*
X240345335Y-100943000D01*
X240062665Y-100943000D01*
X239957377Y-100963943D01*
X238738398Y-99744966D01*
X238712541Y-99713459D01*
X238586842Y-99610301D01*
X238443434Y-99533647D01*
X238287826Y-99486444D01*
X238166553Y-99474500D01*
X238166550Y-99474500D01*
X238126000Y-99470506D01*
X238085450Y-99474500D01*
X230860334Y-99474500D01*
X226992724Y-95606890D01*
X234778524Y-95606890D01*
X234823175Y-95754099D01*
X234948359Y-96016920D01*
X235122412Y-96250269D01*
X235338645Y-96445178D01*
X235588748Y-96594157D01*
X235863109Y-96691481D01*
X236093000Y-96570814D01*
X236093000Y-95377000D01*
X236347000Y-95377000D01*
X236347000Y-96570814D01*
X236576891Y-96691481D01*
X236851252Y-96594157D01*
X237101355Y-96445178D01*
X237317588Y-96250269D01*
X237429672Y-96100000D01*
X244256928Y-96100000D01*
X244269188Y-96224482D01*
X244305498Y-96344180D01*
X244364463Y-96454494D01*
X244443815Y-96551185D01*
X244540506Y-96630537D01*
X244650820Y-96689502D01*
X244770518Y-96725812D01*
X244895000Y-96738072D01*
X245459250Y-96735000D01*
X245618000Y-96576250D01*
X245618000Y-95377000D01*
X245872000Y-95377000D01*
X245872000Y-96576250D01*
X246030750Y-96735000D01*
X246595000Y-96738072D01*
X246719482Y-96725812D01*
X246839180Y-96689502D01*
X246949494Y-96630537D01*
X247046185Y-96551185D01*
X247125537Y-96454494D01*
X247184502Y-96344180D01*
X247220812Y-96224482D01*
X247233072Y-96100000D01*
X247230000Y-95535750D01*
X247071250Y-95377000D01*
X245872000Y-95377000D01*
X245618000Y-95377000D01*
X244418750Y-95377000D01*
X244260000Y-95535750D01*
X244256928Y-96100000D01*
X237429672Y-96100000D01*
X237491641Y-96016920D01*
X237616825Y-95754099D01*
X237661476Y-95606890D01*
X237540155Y-95377000D01*
X236347000Y-95377000D01*
X236093000Y-95377000D01*
X234899845Y-95377000D01*
X234778524Y-95606890D01*
X226992724Y-95606890D01*
X226220434Y-94834600D01*
X234796271Y-94834600D01*
X234778524Y-94893110D01*
X234899845Y-95123000D01*
X236093000Y-95123000D01*
X236093000Y-95103000D01*
X236347000Y-95103000D01*
X236347000Y-95123000D01*
X237540155Y-95123000D01*
X237661476Y-94893110D01*
X237643729Y-94834600D01*
X244259294Y-94834600D01*
X244260000Y-94964250D01*
X244418750Y-95123000D01*
X245618000Y-95123000D01*
X245618000Y-95103000D01*
X245872000Y-95103000D01*
X245872000Y-95123000D01*
X247071250Y-95123000D01*
X247230000Y-94964250D01*
X247230706Y-94834600D01*
X254957168Y-94834600D01*
X262110943Y-101988376D01*
X262090000Y-102093665D01*
X262090000Y-102376335D01*
X262145147Y-102653574D01*
X262253320Y-102914727D01*
X262410363Y-103149759D01*
X262610241Y-103349637D01*
X262845273Y-103506680D01*
X263106426Y-103614853D01*
X263383665Y-103670000D01*
X263666335Y-103670000D01*
X263943574Y-103614853D01*
X264204727Y-103506680D01*
X264439759Y-103349637D01*
X264639637Y-103149759D01*
X264796680Y-102914727D01*
X264904853Y-102653574D01*
X264960000Y-102376335D01*
X264960000Y-102093665D01*
X264904853Y-101816426D01*
X264796680Y-101555273D01*
X264639637Y-101320241D01*
X264439759Y-101120363D01*
X264204727Y-100963320D01*
X263943574Y-100855147D01*
X263666335Y-100800000D01*
X263383665Y-100800000D01*
X263278376Y-100820943D01*
X255911498Y-93454066D01*
X255885641Y-93422559D01*
X255759942Y-93319401D01*
X255616534Y-93242747D01*
X255460926Y-93195544D01*
X255339653Y-93183600D01*
X255339650Y-93183600D01*
X255299100Y-93179606D01*
X255258550Y-93183600D01*
X247156180Y-93183600D01*
X247172932Y-93143158D01*
X247230000Y-92856260D01*
X247230000Y-92563740D01*
X247172932Y-92276842D01*
X247060990Y-92006589D01*
X246898475Y-91763368D01*
X246691632Y-91556525D01*
X246517240Y-91440000D01*
X246691632Y-91323475D01*
X246898475Y-91116632D01*
X247060990Y-90873411D01*
X247172932Y-90603158D01*
X247230000Y-90316260D01*
X247230000Y-90023740D01*
X247172932Y-89736842D01*
X247060990Y-89466589D01*
X246898475Y-89223368D01*
X246691632Y-89016525D01*
X246448411Y-88854010D01*
X246178158Y-88742068D01*
X245891260Y-88685000D01*
X245598740Y-88685000D01*
X245311842Y-88742068D01*
X245041589Y-88854010D01*
X244798368Y-89016525D01*
X244591525Y-89223368D01*
X244429010Y-89466589D01*
X244317068Y-89736842D01*
X244260000Y-90023740D01*
X244260000Y-90316260D01*
X244317068Y-90603158D01*
X244429010Y-90873411D01*
X244591525Y-91116632D01*
X244798368Y-91323475D01*
X244972760Y-91440000D01*
X244798368Y-91556525D01*
X244658263Y-91696630D01*
X243817498Y-90855866D01*
X243791641Y-90824359D01*
X243665942Y-90721201D01*
X243522534Y-90644547D01*
X243366926Y-90597344D01*
X243245653Y-90585400D01*
X243245650Y-90585400D01*
X243205100Y-90581406D01*
X243164550Y-90585400D01*
X237708072Y-90585400D01*
X237708072Y-89320000D01*
X237695812Y-89195518D01*
X237659502Y-89075820D01*
X237600537Y-88965506D01*
X237521185Y-88868815D01*
X237424494Y-88789463D01*
X237314180Y-88730498D01*
X237194482Y-88694188D01*
X237070000Y-88681928D01*
X235370000Y-88681928D01*
X235245518Y-88694188D01*
X235125820Y-88730498D01*
X235015506Y-88789463D01*
X234918815Y-88868815D01*
X234839463Y-88965506D01*
X234780498Y-89075820D01*
X234744188Y-89195518D01*
X234731928Y-89320000D01*
X234731928Y-90585400D01*
X224967533Y-90585400D01*
X215445025Y-81062892D01*
X225760666Y-81062892D01*
X225760666Y-81497108D01*
X225845377Y-81922981D01*
X226011544Y-82324144D01*
X226252782Y-82685181D01*
X226559819Y-82992218D01*
X226920856Y-83233456D01*
X227322019Y-83399623D01*
X227747892Y-83484334D01*
X228182108Y-83484334D01*
X228607981Y-83399623D01*
X229009144Y-83233456D01*
X229370181Y-82992218D01*
X229677218Y-82685181D01*
X229918456Y-82324144D01*
X230084623Y-81922981D01*
X230169334Y-81497108D01*
X230169334Y-81062892D01*
X271480666Y-81062892D01*
X271480666Y-81497108D01*
X271565377Y-81922981D01*
X271731544Y-82324144D01*
X271972782Y-82685181D01*
X272279819Y-82992218D01*
X272640856Y-83233456D01*
X273042019Y-83399623D01*
X273467892Y-83484334D01*
X273902108Y-83484334D01*
X274327981Y-83399623D01*
X274729144Y-83233456D01*
X275090181Y-82992218D01*
X275397218Y-82685181D01*
X275638456Y-82324144D01*
X275804623Y-81922981D01*
X275889334Y-81497108D01*
X275889334Y-81062892D01*
X275804623Y-80637019D01*
X275638456Y-80235856D01*
X275397218Y-79874819D01*
X275090181Y-79567782D01*
X274729144Y-79326544D01*
X274327981Y-79160377D01*
X273902108Y-79075666D01*
X273467892Y-79075666D01*
X273042019Y-79160377D01*
X272640856Y-79326544D01*
X272279819Y-79567782D01*
X271972782Y-79874819D01*
X271731544Y-80235856D01*
X271565377Y-80637019D01*
X271480666Y-81062892D01*
X230169334Y-81062892D01*
X230084623Y-80637019D01*
X229918456Y-80235856D01*
X229677218Y-79874819D01*
X229370181Y-79567782D01*
X229009144Y-79326544D01*
X228607981Y-79160377D01*
X228182108Y-79075666D01*
X227747892Y-79075666D01*
X227322019Y-79160377D01*
X226920856Y-79326544D01*
X226559819Y-79567782D01*
X226252782Y-79874819D01*
X226011544Y-80235856D01*
X225845377Y-80637019D01*
X225760666Y-81062892D01*
X215445025Y-81062892D01*
X214889338Y-80507206D01*
X215079344Y-80545000D01*
X215450656Y-80545000D01*
X215814834Y-80472561D01*
X216157882Y-80330466D01*
X216466618Y-80124175D01*
X216729175Y-79861618D01*
X216935466Y-79552882D01*
X217077561Y-79209834D01*
X217150000Y-78845656D01*
X217150000Y-78474344D01*
X217077561Y-78110166D01*
X216935466Y-77767118D01*
X216729175Y-77458382D01*
X216466618Y-77195825D01*
X216157882Y-76989534D01*
X215814834Y-76847439D01*
X215450656Y-76775000D01*
X215079344Y-76775000D01*
X214715166Y-76847439D01*
X214372118Y-76989534D01*
X214063382Y-77195825D01*
X213800825Y-77458382D01*
X213594534Y-77767118D01*
X213452439Y-78110166D01*
X213380000Y-78474344D01*
X213380000Y-78845656D01*
X213417794Y-79035662D01*
X211680098Y-77297966D01*
X211654241Y-77266459D01*
X211528542Y-77163301D01*
X211385134Y-77086647D01*
X211229526Y-77039444D01*
X211108253Y-77027500D01*
X211108250Y-77027500D01*
X211067700Y-77023506D01*
X211027150Y-77027500D01*
X205277232Y-77027500D01*
X207331127Y-74973605D01*
X214131000Y-74973605D01*
X214256914Y-75263577D01*
X214589126Y-75429433D01*
X214947312Y-75527290D01*
X215317706Y-75553389D01*
X215686075Y-75506725D01*
X216038262Y-75389094D01*
X216273086Y-75263577D01*
X216399000Y-74973605D01*
X215265000Y-73839605D01*
X214131000Y-74973605D01*
X207331127Y-74973605D01*
X208592026Y-73712706D01*
X213371611Y-73712706D01*
X213418275Y-74081075D01*
X213535906Y-74433262D01*
X213661423Y-74668086D01*
X213951395Y-74794000D01*
X215085395Y-73660000D01*
X215444605Y-73660000D01*
X216578605Y-74794000D01*
X216868577Y-74668086D01*
X217034433Y-74335874D01*
X217132290Y-73977688D01*
X217158389Y-73607294D01*
X217111725Y-73238925D01*
X216994094Y-72886738D01*
X216868577Y-72651914D01*
X216578605Y-72526000D01*
X215444605Y-73660000D01*
X215085395Y-73660000D01*
X213951395Y-72526000D01*
X213661423Y-72651914D01*
X213495567Y-72984126D01*
X213397710Y-73342312D01*
X213371611Y-73712706D01*
X208592026Y-73712706D01*
X209958337Y-72346395D01*
X214131000Y-72346395D01*
X215265000Y-73480395D01*
X216399000Y-72346395D01*
X216273086Y-72056423D01*
X215940874Y-71890567D01*
X215582688Y-71792710D01*
X215212294Y-71766611D01*
X214843925Y-71813275D01*
X214491738Y-71930906D01*
X214256914Y-72056423D01*
X214131000Y-72346395D01*
X209958337Y-72346395D01*
X213393120Y-68911613D01*
X213452439Y-69209834D01*
X213594534Y-69552882D01*
X213800825Y-69861618D01*
X214063382Y-70124175D01*
X214372118Y-70330466D01*
X214715166Y-70472561D01*
X215079344Y-70545000D01*
X215450656Y-70545000D01*
X215814834Y-70472561D01*
X216157882Y-70330466D01*
X216466618Y-70124175D01*
X216729175Y-69861618D01*
X216935466Y-69552882D01*
X217077561Y-69209834D01*
X217150000Y-68845656D01*
X217150000Y-68474344D01*
X217077561Y-68110166D01*
X216935466Y-67767118D01*
X216729175Y-67458382D01*
X216466618Y-67195825D01*
X216157882Y-66989534D01*
X215814834Y-66847439D01*
X215516613Y-66788120D01*
X221561841Y-60742892D01*
X225760666Y-60742892D01*
X225760666Y-61177108D01*
X225845377Y-61602981D01*
X226011544Y-62004144D01*
X226252782Y-62365181D01*
X226559819Y-62672218D01*
X226920856Y-62913456D01*
X227322019Y-63079623D01*
X227747892Y-63164334D01*
X228182108Y-63164334D01*
X228607981Y-63079623D01*
X229009144Y-62913456D01*
X229370181Y-62672218D01*
X229677218Y-62365181D01*
X229918456Y-62004144D01*
X230084623Y-61602981D01*
X230169334Y-61177108D01*
X230169334Y-60742892D01*
X271480666Y-60742892D01*
X271480666Y-61177108D01*
X271565377Y-61602981D01*
X271731544Y-62004144D01*
X271972782Y-62365181D01*
X272279819Y-62672218D01*
X272640856Y-62913456D01*
X273042019Y-63079623D01*
X273467892Y-63164334D01*
X273902108Y-63164334D01*
X274327981Y-63079623D01*
X274729144Y-62913456D01*
X275090181Y-62672218D01*
X275397218Y-62365181D01*
X275638456Y-62004144D01*
X275804623Y-61602981D01*
X275889334Y-61177108D01*
X275889334Y-60742892D01*
X275804623Y-60317019D01*
X275638456Y-59915856D01*
X275397218Y-59554819D01*
X275090181Y-59247782D01*
X274729144Y-59006544D01*
X274327981Y-58840377D01*
X273902108Y-58755666D01*
X273467892Y-58755666D01*
X273042019Y-58840377D01*
X272640856Y-59006544D01*
X272279819Y-59247782D01*
X271972782Y-59554819D01*
X271731544Y-59915856D01*
X271565377Y-60317019D01*
X271480666Y-60742892D01*
X230169334Y-60742892D01*
X230084623Y-60317019D01*
X229918456Y-59915856D01*
X229677218Y-59554819D01*
X229370181Y-59247782D01*
X229009144Y-59006544D01*
X228607981Y-58840377D01*
X228182108Y-58755666D01*
X227747892Y-58755666D01*
X227322019Y-58840377D01*
X226920856Y-59006544D01*
X226559819Y-59247782D01*
X226252782Y-59554819D01*
X226011544Y-59915856D01*
X225845377Y-60317019D01*
X225760666Y-60742892D01*
X221561841Y-60742892D01*
X224583041Y-57721692D01*
X224614541Y-57695841D01*
X224697299Y-57595000D01*
X224717699Y-57570143D01*
X224794353Y-57426734D01*
X224828247Y-57315000D01*
X224841556Y-57271126D01*
X224853500Y-57149853D01*
X224853500Y-57149851D01*
X224857494Y-57109301D01*
X224853500Y-57068750D01*
X224853500Y-53122892D01*
X225760666Y-53122892D01*
X225760666Y-53557108D01*
X225845377Y-53982981D01*
X226011544Y-54384144D01*
X226252782Y-54745181D01*
X226559819Y-55052218D01*
X226920856Y-55293456D01*
X227322019Y-55459623D01*
X227747892Y-55544334D01*
X228182108Y-55544334D01*
X228607981Y-55459623D01*
X229009144Y-55293456D01*
X229370181Y-55052218D01*
X229677218Y-54745181D01*
X229918456Y-54384144D01*
X230084623Y-53982981D01*
X230169334Y-53557108D01*
X230169334Y-53122892D01*
X271480666Y-53122892D01*
X271480666Y-53557108D01*
X271565377Y-53982981D01*
X271731544Y-54384144D01*
X271972782Y-54745181D01*
X272279819Y-55052218D01*
X272640856Y-55293456D01*
X273042019Y-55459623D01*
X273467892Y-55544334D01*
X273902108Y-55544334D01*
X274327981Y-55459623D01*
X274729144Y-55293456D01*
X275090181Y-55052218D01*
X275397218Y-54745181D01*
X275638456Y-54384144D01*
X275804623Y-53982981D01*
X275889334Y-53557108D01*
X275889334Y-53122892D01*
X275804623Y-52697019D01*
X275638456Y-52295856D01*
X275397218Y-51934819D01*
X275090181Y-51627782D01*
X274729144Y-51386544D01*
X274327981Y-51220377D01*
X273902108Y-51135666D01*
X273467892Y-51135666D01*
X273042019Y-51220377D01*
X272640856Y-51386544D01*
X272279819Y-51627782D01*
X271972782Y-51934819D01*
X271731544Y-52295856D01*
X271565377Y-52697019D01*
X271480666Y-53122892D01*
X230169334Y-53122892D01*
X230084623Y-52697019D01*
X229918456Y-52295856D01*
X229677218Y-51934819D01*
X229370181Y-51627782D01*
X229009144Y-51386544D01*
X228607981Y-51220377D01*
X228182108Y-51135666D01*
X227747892Y-51135666D01*
X227322019Y-51220377D01*
X226920856Y-51386544D01*
X226559819Y-51627782D01*
X226252782Y-51934819D01*
X226011544Y-52295856D01*
X225845377Y-52697019D01*
X225760666Y-53122892D01*
X224853500Y-53122892D01*
X224853500Y-32802892D01*
X225760666Y-32802892D01*
X225760666Y-33237108D01*
X225845377Y-33662981D01*
X226011544Y-34064144D01*
X226252782Y-34425181D01*
X226559819Y-34732218D01*
X226920856Y-34973456D01*
X227322019Y-35139623D01*
X227747892Y-35224334D01*
X228182108Y-35224334D01*
X228607981Y-35139623D01*
X229009144Y-34973456D01*
X229370181Y-34732218D01*
X229677218Y-34425181D01*
X229918456Y-34064144D01*
X230084623Y-33662981D01*
X230169334Y-33237108D01*
X230169334Y-32802892D01*
X271480666Y-32802892D01*
X271480666Y-33237108D01*
X271565377Y-33662981D01*
X271731544Y-34064144D01*
X271972782Y-34425181D01*
X272279819Y-34732218D01*
X272640856Y-34973456D01*
X273042019Y-35139623D01*
X273467892Y-35224334D01*
X273902108Y-35224334D01*
X274327981Y-35139623D01*
X274729144Y-34973456D01*
X275090181Y-34732218D01*
X275397218Y-34425181D01*
X275638456Y-34064144D01*
X275804623Y-33662981D01*
X275889334Y-33237108D01*
X275889334Y-32802892D01*
X275804623Y-32377019D01*
X275638456Y-31975856D01*
X275397218Y-31614819D01*
X275090181Y-31307782D01*
X274729144Y-31066544D01*
X274327981Y-30900377D01*
X273902108Y-30815666D01*
X273467892Y-30815666D01*
X273042019Y-30900377D01*
X272640856Y-31066544D01*
X272279819Y-31307782D01*
X271972782Y-31614819D01*
X271731544Y-31975856D01*
X271565377Y-32377019D01*
X271480666Y-32802892D01*
X230169334Y-32802892D01*
X230084623Y-32377019D01*
X229918456Y-31975856D01*
X229677218Y-31614819D01*
X229370181Y-31307782D01*
X229009144Y-31066544D01*
X228607981Y-30900377D01*
X228182108Y-30815666D01*
X227747892Y-30815666D01*
X227322019Y-30900377D01*
X226920856Y-31066544D01*
X226559819Y-31307782D01*
X226252782Y-31614819D01*
X226011544Y-31975856D01*
X225845377Y-32377019D01*
X225760666Y-32802892D01*
X224853500Y-32802892D01*
X224853500Y-27700881D01*
X269478724Y-27700881D01*
X269838912Y-28190548D01*
X270502882Y-28550849D01*
X271224385Y-28774694D01*
X271975695Y-28853480D01*
X272727938Y-28784178D01*
X273452208Y-28569452D01*
X274120670Y-28217555D01*
X274161088Y-28190548D01*
X274521276Y-27700881D01*
X272000000Y-25179605D01*
X269478724Y-27700881D01*
X224853500Y-27700881D01*
X224853500Y-24975695D01*
X268146520Y-24975695D01*
X268215822Y-25727938D01*
X268430548Y-26452208D01*
X268782445Y-27120670D01*
X268809452Y-27161088D01*
X269299119Y-27521276D01*
X271820395Y-25000000D01*
X272179605Y-25000000D01*
X274700881Y-27521276D01*
X275190548Y-27161088D01*
X275550849Y-26497118D01*
X275774694Y-25775615D01*
X275853480Y-25024305D01*
X275784178Y-24272062D01*
X275569452Y-23547792D01*
X275217555Y-22879330D01*
X275190548Y-22838912D01*
X274700881Y-22478724D01*
X272179605Y-25000000D01*
X271820395Y-25000000D01*
X269299119Y-22478724D01*
X268809452Y-22838912D01*
X268449151Y-23502882D01*
X268225306Y-24224385D01*
X268146520Y-24975695D01*
X224853500Y-24975695D01*
X224853500Y-24348413D01*
X224974632Y-24267475D01*
X225181475Y-24060632D01*
X225263909Y-23937261D01*
X225327200Y-23943494D01*
X225335697Y-23942657D01*
X225414525Y-24060632D01*
X225621368Y-24267475D01*
X225864589Y-24429990D01*
X226134842Y-24541932D01*
X226421740Y-24599000D01*
X226714260Y-24599000D01*
X227001158Y-24541932D01*
X227271411Y-24429990D01*
X227514632Y-24267475D01*
X227721475Y-24060632D01*
X227883990Y-23817411D01*
X227995932Y-23547158D01*
X228053000Y-23260260D01*
X228053000Y-22967740D01*
X227995932Y-22680842D01*
X227883990Y-22410589D01*
X227809509Y-22299119D01*
X269478724Y-22299119D01*
X272000000Y-24820395D01*
X274521276Y-22299119D01*
X274161088Y-21809452D01*
X273497118Y-21449151D01*
X272775615Y-21225306D01*
X272024305Y-21146520D01*
X271272062Y-21215822D01*
X270547792Y-21430548D01*
X269879330Y-21782445D01*
X269838912Y-21809452D01*
X269478724Y-22299119D01*
X227809509Y-22299119D01*
X227721475Y-22167368D01*
X227514632Y-21960525D01*
X227271411Y-21798010D01*
X227001158Y-21686068D01*
X226714260Y-21629000D01*
X226421740Y-21629000D01*
X226134842Y-21686068D01*
X225864589Y-21798010D01*
X225761635Y-21866802D01*
X225164198Y-21269366D01*
X225138341Y-21237859D01*
X225012642Y-21134701D01*
X224869234Y-21058047D01*
X224713626Y-21010844D01*
X224592353Y-20998900D01*
X224592350Y-20998900D01*
X224551800Y-20994906D01*
X224511250Y-20998900D01*
X213707150Y-20998900D01*
X213666600Y-20994906D01*
X213626049Y-20998900D01*
X213626047Y-20998900D01*
X213504774Y-21010844D01*
X213357236Y-21055599D01*
X213349166Y-21058047D01*
X213205757Y-21134701D01*
X213111558Y-21212008D01*
X213111557Y-21212009D01*
X213080059Y-21237859D01*
X213054211Y-21269355D01*
X211968552Y-22355015D01*
X211877834Y-22317439D01*
X211513656Y-22245000D01*
X211142344Y-22245000D01*
X210778166Y-22317439D01*
X210435118Y-22459534D01*
X210126382Y-22665825D01*
X209863825Y-22928382D01*
X209657534Y-23237118D01*
X209515439Y-23580166D01*
X209443000Y-23944344D01*
X209443000Y-24315656D01*
X209515439Y-24679834D01*
X209657534Y-25022882D01*
X209863825Y-25331618D01*
X210126382Y-25594175D01*
X210435118Y-25800466D01*
X210535500Y-25842046D01*
X210535501Y-33450500D01*
X197564550Y-33450500D01*
X197523999Y-33446506D01*
X197483449Y-33450500D01*
X197483447Y-33450500D01*
X197362174Y-33462444D01*
X197206566Y-33509647D01*
X197063157Y-33586301D01*
X197001596Y-33636823D01*
X196937459Y-33689459D01*
X196911607Y-33720960D01*
X189128761Y-41503807D01*
X189097260Y-41529659D01*
X189071409Y-41561159D01*
X188994101Y-41655358D01*
X188961191Y-41716928D01*
X187643000Y-41716928D01*
X187518518Y-41729188D01*
X187398820Y-41765498D01*
X187288506Y-41824463D01*
X187191815Y-41903815D01*
X187112463Y-42000506D01*
X187053498Y-42110820D01*
X187017188Y-42230518D01*
X187004928Y-42355000D01*
X187004928Y-44005000D01*
X187017188Y-44129482D01*
X187053498Y-44249180D01*
X187112463Y-44359494D01*
X187191815Y-44456185D01*
X187288506Y-44535537D01*
X187398820Y-44594502D01*
X187498506Y-44624742D01*
X187333944Y-44789304D01*
X187174165Y-45028431D01*
X187064107Y-45294134D01*
X187008000Y-45576203D01*
X187008000Y-45863797D01*
X187064107Y-46145866D01*
X187174165Y-46411569D01*
X187333944Y-46650696D01*
X187537304Y-46854056D01*
X187740759Y-46990000D01*
X187537304Y-47125944D01*
X187333944Y-47329304D01*
X187174165Y-47568431D01*
X187064107Y-47834134D01*
X187008000Y-48116203D01*
X187008000Y-48403797D01*
X187064107Y-48685866D01*
X187174165Y-48951569D01*
X187333944Y-49190696D01*
X187537304Y-49394056D01*
X187740759Y-49530000D01*
X187537304Y-49665944D01*
X187333944Y-49869304D01*
X187174165Y-50108431D01*
X187064107Y-50374134D01*
X187008000Y-50656203D01*
X187008000Y-50943797D01*
X187064107Y-51225866D01*
X187174165Y-51491569D01*
X187333944Y-51730696D01*
X187537304Y-51934056D01*
X187740759Y-52070000D01*
X187537304Y-52205944D01*
X187333944Y-52409304D01*
X187174165Y-52648431D01*
X187064107Y-52914134D01*
X187008000Y-53196203D01*
X187008000Y-53483797D01*
X187064107Y-53765866D01*
X187174165Y-54031569D01*
X187333944Y-54270696D01*
X187537304Y-54474056D01*
X187776431Y-54633835D01*
X188042134Y-54743893D01*
X188324203Y-54800000D01*
X188611797Y-54800000D01*
X188735885Y-54775317D01*
X194205607Y-60245040D01*
X194231459Y-60276541D01*
X194280782Y-60317019D01*
X194357157Y-60379699D01*
X194448457Y-60428500D01*
X194500566Y-60456353D01*
X194656174Y-60503556D01*
X194777447Y-60515500D01*
X194777449Y-60515500D01*
X194817999Y-60519494D01*
X194858550Y-60515500D01*
X195421722Y-60515500D01*
X195481363Y-60604759D01*
X195681241Y-60804637D01*
X195916273Y-60961680D01*
X196177426Y-61069853D01*
X196454665Y-61125000D01*
X196737335Y-61125000D01*
X197014574Y-61069853D01*
X197275727Y-60961680D01*
X197510759Y-60804637D01*
X197710637Y-60604759D01*
X197770278Y-60515500D01*
X202484350Y-60515500D01*
X202524900Y-60519494D01*
X202565450Y-60515500D01*
X202565453Y-60515500D01*
X202686726Y-60503556D01*
X202842334Y-60456353D01*
X202845427Y-60454700D01*
X202897139Y-60454700D01*
X202991301Y-60435970D01*
X203152481Y-60653414D01*
X203360869Y-60842385D01*
X203602119Y-60987070D01*
X203866960Y-61081909D01*
X204089000Y-60960624D01*
X204089000Y-59817000D01*
X204343000Y-59817000D01*
X204343000Y-60960624D01*
X204565040Y-61081909D01*
X204829881Y-60987070D01*
X205071131Y-60842385D01*
X205279519Y-60653414D01*
X205447037Y-60427420D01*
X205567246Y-60173087D01*
X205607904Y-60039039D01*
X205485915Y-59817000D01*
X204343000Y-59817000D01*
X204089000Y-59817000D01*
X204069000Y-59817000D01*
X204069000Y-59563000D01*
X204089000Y-59563000D01*
X204089000Y-58419376D01*
X204343000Y-58419376D01*
X204343000Y-59563000D01*
X205485915Y-59563000D01*
X205607904Y-59340961D01*
X205567246Y-59206913D01*
X205447037Y-58952580D01*
X205279519Y-58726586D01*
X205071131Y-58537615D01*
X204829881Y-58392930D01*
X204565040Y-58298091D01*
X204343000Y-58419376D01*
X204089000Y-58419376D01*
X203866960Y-58298091D01*
X203602119Y-58392930D01*
X203360869Y-58537615D01*
X203351174Y-58546406D01*
X203285456Y-58502495D01*
X203097098Y-58424474D01*
X202897139Y-58384700D01*
X202693261Y-58384700D01*
X202493302Y-58424474D01*
X202304944Y-58502495D01*
X202135426Y-58615763D01*
X201991263Y-58759926D01*
X201921389Y-58864500D01*
X197770278Y-58864500D01*
X197710637Y-58775241D01*
X197510759Y-58575363D01*
X197275727Y-58418320D01*
X197014574Y-58310147D01*
X196737335Y-58255000D01*
X196454665Y-58255000D01*
X196177426Y-58310147D01*
X195916273Y-58418320D01*
X195681241Y-58575363D01*
X195481363Y-58775241D01*
X195421722Y-58864500D01*
X195159933Y-58864500D01*
X192034098Y-55738665D01*
X195161000Y-55738665D01*
X195161000Y-56021335D01*
X195216147Y-56298574D01*
X195324320Y-56559727D01*
X195481363Y-56794759D01*
X195681241Y-56994637D01*
X195916273Y-57151680D01*
X196177426Y-57259853D01*
X196454665Y-57315000D01*
X196737335Y-57315000D01*
X197014574Y-57259853D01*
X197275727Y-57151680D01*
X197510759Y-56994637D01*
X197710637Y-56794759D01*
X197867680Y-56559727D01*
X197975853Y-56298574D01*
X197989684Y-56229039D01*
X202824096Y-56229039D01*
X202864754Y-56363087D01*
X202984963Y-56617420D01*
X203152481Y-56843414D01*
X203360869Y-57032385D01*
X203602119Y-57177070D01*
X203866960Y-57271909D01*
X204089000Y-57150624D01*
X204089000Y-56007000D01*
X202946085Y-56007000D01*
X202824096Y-56229039D01*
X197989684Y-56229039D01*
X198031000Y-56021335D01*
X198031000Y-55738665D01*
X197975853Y-55461426D01*
X197867680Y-55200273D01*
X197710637Y-54965241D01*
X197510759Y-54765363D01*
X197275727Y-54608320D01*
X197014574Y-54500147D01*
X196737335Y-54445000D01*
X196454665Y-54445000D01*
X196177426Y-54500147D01*
X195916273Y-54608320D01*
X195681241Y-54765363D01*
X195481363Y-54965241D01*
X195324320Y-55200273D01*
X195216147Y-55461426D01*
X195161000Y-55738665D01*
X192034098Y-55738665D01*
X189903317Y-53607885D01*
X189928000Y-53483797D01*
X189928000Y-53196203D01*
X189871893Y-52914134D01*
X189761835Y-52648431D01*
X189602056Y-52409304D01*
X189398696Y-52205944D01*
X189195241Y-52070000D01*
X189398696Y-51934056D01*
X189602056Y-51730696D01*
X189761835Y-51491569D01*
X189871893Y-51225866D01*
X189928000Y-50943797D01*
X189928000Y-50887433D01*
X191665611Y-52625045D01*
X191691459Y-52656541D01*
X191722955Y-52682389D01*
X191722958Y-52682392D01*
X191817157Y-52759699D01*
X191923422Y-52816499D01*
X191960566Y-52836353D01*
X192116174Y-52883556D01*
X192237447Y-52895500D01*
X192237449Y-52895500D01*
X192278000Y-52899494D01*
X192318550Y-52895500D01*
X195421722Y-52895500D01*
X195481363Y-52984759D01*
X195681241Y-53184637D01*
X195916273Y-53341680D01*
X196177426Y-53449853D01*
X196454665Y-53505000D01*
X196737335Y-53505000D01*
X197014574Y-53449853D01*
X197275727Y-53341680D01*
X197510759Y-53184637D01*
X197710637Y-52984759D01*
X197867680Y-52749727D01*
X197975853Y-52488574D01*
X198031000Y-52211335D01*
X198031000Y-51928665D01*
X197975853Y-51651426D01*
X197867680Y-51390273D01*
X197710637Y-51155241D01*
X197510759Y-50955363D01*
X197275727Y-50798320D01*
X197014574Y-50690147D01*
X196737335Y-50635000D01*
X196454665Y-50635000D01*
X196177426Y-50690147D01*
X195916273Y-50798320D01*
X195681241Y-50955363D01*
X195481363Y-51155241D01*
X195421722Y-51244500D01*
X192619934Y-51244500D01*
X189903317Y-48527885D01*
X189928000Y-48403797D01*
X189928000Y-48347433D01*
X190395606Y-48815039D01*
X190421459Y-48846541D01*
X190491033Y-48903639D01*
X190547156Y-48949698D01*
X190547158Y-48949699D01*
X190690566Y-49026353D01*
X190846174Y-49073556D01*
X190967447Y-49085500D01*
X190967456Y-49085500D01*
X191007999Y-49089493D01*
X191048542Y-49085500D01*
X195421722Y-49085500D01*
X195481363Y-49174759D01*
X195681241Y-49374637D01*
X195916273Y-49531680D01*
X196177426Y-49639853D01*
X196454665Y-49695000D01*
X196737335Y-49695000D01*
X197014574Y-49639853D01*
X197275727Y-49531680D01*
X197510759Y-49374637D01*
X197710637Y-49174759D01*
X197867680Y-48939727D01*
X197968820Y-48695553D01*
X203789202Y-54515936D01*
X203602119Y-54582930D01*
X203360869Y-54727615D01*
X203152481Y-54916586D01*
X202984963Y-55142580D01*
X202864754Y-55396913D01*
X202824096Y-55530961D01*
X202946085Y-55753000D01*
X204089000Y-55753000D01*
X204089000Y-55733000D01*
X204343000Y-55733000D01*
X204343000Y-55753000D01*
X204363000Y-55753000D01*
X204363000Y-56007000D01*
X204343000Y-56007000D01*
X204343000Y-57150624D01*
X204565040Y-57271909D01*
X204829881Y-57177070D01*
X205071131Y-57032385D01*
X205279519Y-56843414D01*
X205447037Y-56617420D01*
X205567246Y-56363087D01*
X205583329Y-56310063D01*
X206181100Y-56907834D01*
X206181101Y-68802068D01*
X205440047Y-68061015D01*
X205487680Y-67989727D01*
X205595853Y-67728574D01*
X205651000Y-67451335D01*
X205651000Y-67168665D01*
X205595853Y-66891426D01*
X205487680Y-66630273D01*
X205330637Y-66395241D01*
X205130759Y-66195363D01*
X204895727Y-66038320D01*
X204634574Y-65930147D01*
X204357335Y-65875000D01*
X204074665Y-65875000D01*
X203797426Y-65930147D01*
X203536273Y-66038320D01*
X203301241Y-66195363D01*
X203101363Y-66395241D01*
X202944320Y-66630273D01*
X202836147Y-66891426D01*
X202781000Y-67168665D01*
X202781000Y-67451335D01*
X202836147Y-67728574D01*
X202944320Y-67989727D01*
X203101363Y-68224759D01*
X203301241Y-68424637D01*
X203388279Y-68482794D01*
X203386506Y-68500800D01*
X203402444Y-68662626D01*
X203448680Y-68815046D01*
X198902698Y-64269066D01*
X198876841Y-64237559D01*
X198751142Y-64134401D01*
X198607734Y-64057747D01*
X198452126Y-64010544D01*
X198330853Y-63998600D01*
X198330850Y-63998600D01*
X198290300Y-63994606D01*
X198249750Y-63998600D01*
X197945279Y-63998600D01*
X197990853Y-63888574D01*
X198046000Y-63611335D01*
X198046000Y-63328665D01*
X197991663Y-63055500D01*
X201458268Y-63055500D01*
X202427811Y-64025045D01*
X202453659Y-64056541D01*
X202485155Y-64082389D01*
X202485158Y-64082392D01*
X202579357Y-64159699D01*
X202722766Y-64236353D01*
X202878374Y-64283556D01*
X202999647Y-64295500D01*
X202999649Y-64295500D01*
X203040200Y-64299494D01*
X203058206Y-64297721D01*
X203116363Y-64384759D01*
X203316241Y-64584637D01*
X203551273Y-64741680D01*
X203812426Y-64849853D01*
X204089665Y-64905000D01*
X204372335Y-64905000D01*
X204649574Y-64849853D01*
X204910727Y-64741680D01*
X205145759Y-64584637D01*
X205345637Y-64384759D01*
X205502680Y-64149727D01*
X205610853Y-63888574D01*
X205666000Y-63611335D01*
X205666000Y-63328665D01*
X205610853Y-63051426D01*
X205502680Y-62790273D01*
X205345637Y-62555241D01*
X205145759Y-62355363D01*
X204910727Y-62198320D01*
X204649574Y-62090147D01*
X204372335Y-62035000D01*
X204089665Y-62035000D01*
X203812426Y-62090147D01*
X203551273Y-62198320D01*
X203316241Y-62355363D01*
X203204619Y-62466985D01*
X202412598Y-61674966D01*
X202386741Y-61643459D01*
X202261042Y-61540301D01*
X202117634Y-61463647D01*
X201962026Y-61416444D01*
X201840753Y-61404500D01*
X201840750Y-61404500D01*
X201800200Y-61400506D01*
X201759650Y-61404500D01*
X189864175Y-61404500D01*
X189871893Y-61385866D01*
X189928000Y-61103797D01*
X189928000Y-60816203D01*
X189871893Y-60534134D01*
X189761835Y-60268431D01*
X189602056Y-60029304D01*
X189437494Y-59864742D01*
X189537180Y-59834502D01*
X189647494Y-59775537D01*
X189744185Y-59696185D01*
X189823537Y-59599494D01*
X189882502Y-59489180D01*
X189918812Y-59369482D01*
X189931072Y-59245000D01*
X189928000Y-58705750D01*
X189769250Y-58547000D01*
X188595000Y-58547000D01*
X188595000Y-58567000D01*
X188341000Y-58567000D01*
X188341000Y-58547000D01*
X187166750Y-58547000D01*
X187008000Y-58705750D01*
X187004928Y-59245000D01*
X187017188Y-59369482D01*
X187053498Y-59489180D01*
X187112463Y-59599494D01*
X187191815Y-59696185D01*
X187288506Y-59775537D01*
X187398820Y-59834502D01*
X187498506Y-59864742D01*
X187333944Y-60029304D01*
X187174165Y-60268431D01*
X187064107Y-60534134D01*
X187008000Y-60816203D01*
X187008000Y-61103797D01*
X187064107Y-61385866D01*
X187174165Y-61651569D01*
X187274634Y-61801933D01*
X186102066Y-62974502D01*
X186070559Y-63000359D01*
X186025307Y-63055500D01*
X185967401Y-63126058D01*
X185890748Y-63269466D01*
X185890747Y-63269467D01*
X185843544Y-63425075D01*
X185836165Y-63500000D01*
X185827606Y-63586900D01*
X185660000Y-63586900D01*
X185660000Y-57595000D01*
X187004928Y-57595000D01*
X187008000Y-58134250D01*
X187166750Y-58293000D01*
X188341000Y-58293000D01*
X188341000Y-57118750D01*
X188595000Y-57118750D01*
X188595000Y-58293000D01*
X189769250Y-58293000D01*
X189928000Y-58134250D01*
X189931072Y-57595000D01*
X189918812Y-57470518D01*
X189882502Y-57350820D01*
X189823537Y-57240506D01*
X189744185Y-57143815D01*
X189647494Y-57064463D01*
X189537180Y-57005498D01*
X189417482Y-56969188D01*
X189293000Y-56956928D01*
X188753750Y-56960000D01*
X188595000Y-57118750D01*
X188341000Y-57118750D01*
X188182250Y-56960000D01*
X187643000Y-56956928D01*
X187518518Y-56969188D01*
X187398820Y-57005498D01*
X187288506Y-57064463D01*
X187191815Y-57143815D01*
X187112463Y-57240506D01*
X187053498Y-57350820D01*
X187017188Y-57470518D01*
X187004928Y-57595000D01*
X185660000Y-57595000D01*
X185660000Y-27700881D01*
X187478724Y-27700881D01*
X187838912Y-28190548D01*
X188502882Y-28550849D01*
X189224385Y-28774694D01*
X189975695Y-28853480D01*
X190727938Y-28784178D01*
X191452208Y-28569452D01*
X192120670Y-28217555D01*
X192161088Y-28190548D01*
X192521276Y-27700881D01*
X190000000Y-25179605D01*
X187478724Y-27700881D01*
X185660000Y-27700881D01*
X185660000Y-25029392D01*
X185664792Y-24975695D01*
X186146520Y-24975695D01*
X186215822Y-25727938D01*
X186430548Y-26452208D01*
X186782445Y-27120670D01*
X186809452Y-27161088D01*
X187299119Y-27521276D01*
X189820395Y-25000000D01*
X190179605Y-25000000D01*
X192700881Y-27521276D01*
X193190548Y-27161088D01*
X193550849Y-26497118D01*
X193774694Y-25775615D01*
X193809510Y-25443605D01*
X205194000Y-25443605D01*
X205319914Y-25733577D01*
X205652126Y-25899433D01*
X206010312Y-25997290D01*
X206380706Y-26023389D01*
X206749075Y-25976725D01*
X207101262Y-25859094D01*
X207336086Y-25733577D01*
X207462000Y-25443605D01*
X206328000Y-24309605D01*
X205194000Y-25443605D01*
X193809510Y-25443605D01*
X193853480Y-25024305D01*
X193784178Y-24272062D01*
X193757687Y-24182706D01*
X204434611Y-24182706D01*
X204481275Y-24551075D01*
X204598906Y-24903262D01*
X204724423Y-25138086D01*
X205014395Y-25264000D01*
X206148395Y-24130000D01*
X206507605Y-24130000D01*
X207641605Y-25264000D01*
X207931577Y-25138086D01*
X208097433Y-24805874D01*
X208195290Y-24447688D01*
X208221389Y-24077294D01*
X208174725Y-23708925D01*
X208057094Y-23356738D01*
X207931577Y-23121914D01*
X207641605Y-22996000D01*
X206507605Y-24130000D01*
X206148395Y-24130000D01*
X205014395Y-22996000D01*
X204724423Y-23121914D01*
X204558567Y-23454126D01*
X204460710Y-23812312D01*
X204434611Y-24182706D01*
X193757687Y-24182706D01*
X193569452Y-23547792D01*
X193217555Y-22879330D01*
X193190548Y-22838912D01*
X193159937Y-22816395D01*
X205194000Y-22816395D01*
X206328000Y-23950395D01*
X207462000Y-22816395D01*
X207336086Y-22526423D01*
X207003874Y-22360567D01*
X206645688Y-22262710D01*
X206275294Y-22236611D01*
X205906925Y-22283275D01*
X205554738Y-22400906D01*
X205319914Y-22526423D01*
X205194000Y-22816395D01*
X193159937Y-22816395D01*
X192700881Y-22478724D01*
X190179605Y-25000000D01*
X189820395Y-25000000D01*
X187299119Y-22478724D01*
X186809452Y-22838912D01*
X186449151Y-23502882D01*
X186225306Y-24224385D01*
X186146520Y-24975695D01*
X185664792Y-24975695D01*
X185731173Y-24231917D01*
X185934656Y-23488109D01*
X186266638Y-22792095D01*
X186620876Y-22299119D01*
X187478724Y-22299119D01*
X190000000Y-24820395D01*
X192521276Y-22299119D01*
X192161088Y-21809452D01*
X191497118Y-21449151D01*
X190775615Y-21225306D01*
X190024305Y-21146520D01*
X189272062Y-21215822D01*
X188547792Y-21430548D01*
X187879330Y-21782445D01*
X187838912Y-21809452D01*
X187478724Y-22299119D01*
X186620876Y-22299119D01*
X186716626Y-22165870D01*
X187270403Y-21629223D01*
X187910451Y-21199129D01*
X188616553Y-20889171D01*
X189371457Y-20707935D01*
X190024207Y-20660000D01*
X271970608Y-20660000D01*
X272768083Y-20731173D01*
G04 #@! TA.AperFunction,Conductor*
D33*
G36*
X272768083Y-20731173D02*
G01*
X273511891Y-20934656D01*
X274207905Y-21266638D01*
X274834130Y-21716626D01*
X275370777Y-22270403D01*
X275800871Y-22910451D01*
X276110829Y-23616553D01*
X276292065Y-24371457D01*
X276340000Y-25024207D01*
X276340001Y-113970597D01*
X276268827Y-114768083D01*
X276065344Y-115511890D01*
X275733363Y-116207904D01*
X275283374Y-116834130D01*
X274729597Y-117370777D01*
X274089549Y-117800871D01*
X273383447Y-118110829D01*
X272628543Y-118292065D01*
X271975793Y-118340000D01*
X257203608Y-118340000D01*
X257167415Y-118303807D01*
X257431814Y-118208044D01*
X257572704Y-117918429D01*
X257654384Y-117606892D01*
X257673718Y-117285405D01*
X257629961Y-116966325D01*
X257538258Y-116700881D01*
X269478724Y-116700881D01*
X269838912Y-117190548D01*
X270502882Y-117550849D01*
X271224385Y-117774694D01*
X271975695Y-117853480D01*
X272727938Y-117784178D01*
X273452208Y-117569452D01*
X274120670Y-117217555D01*
X274161088Y-117190548D01*
X274521276Y-116700881D01*
X272000000Y-114179605D01*
X269478724Y-116700881D01*
X257538258Y-116700881D01*
X257524795Y-116661912D01*
X257431814Y-116487956D01*
X257167413Y-116392192D01*
X256211605Y-117348000D01*
X256225748Y-117362143D01*
X256046143Y-117541748D01*
X256032000Y-117527605D01*
X256017858Y-117541748D01*
X255838253Y-117362143D01*
X255852395Y-117348000D01*
X254896587Y-116392192D01*
X254632186Y-116487956D01*
X254491296Y-116777571D01*
X254409616Y-117089108D01*
X254390282Y-117410595D01*
X254434039Y-117729675D01*
X254539205Y-118034088D01*
X254632186Y-118208044D01*
X254896585Y-118303807D01*
X254860392Y-118340000D01*
X190029392Y-118340000D01*
X189231917Y-118268827D01*
X188488110Y-118065344D01*
X187792096Y-117733363D01*
X187165870Y-117283374D01*
X186629223Y-116729597D01*
X186609927Y-116700881D01*
X187478724Y-116700881D01*
X187838912Y-117190548D01*
X188502882Y-117550849D01*
X189224385Y-117774694D01*
X189975695Y-117853480D01*
X190727938Y-117784178D01*
X191452208Y-117569452D01*
X192120670Y-117217555D01*
X192161088Y-117190548D01*
X192521276Y-116700881D01*
X190000000Y-114179605D01*
X187478724Y-116700881D01*
X186609927Y-116700881D01*
X186199129Y-116089549D01*
X185889171Y-115383447D01*
X185707935Y-114628543D01*
X185660000Y-113975793D01*
X185660000Y-113975695D01*
X186146520Y-113975695D01*
X186215822Y-114727938D01*
X186430548Y-115452208D01*
X186782445Y-116120670D01*
X186809452Y-116161088D01*
X187299119Y-116521276D01*
X189820395Y-114000000D01*
X190179605Y-114000000D01*
X192700881Y-116521276D01*
X193120536Y-116212587D01*
X255076192Y-116212587D01*
X256032000Y-117168395D01*
X256987808Y-116212587D01*
X256892044Y-115948186D01*
X256602429Y-115807296D01*
X256290892Y-115725616D01*
X255969405Y-115706282D01*
X255650325Y-115750039D01*
X255345912Y-115855205D01*
X255171956Y-115948186D01*
X255076192Y-116212587D01*
X193120536Y-116212587D01*
X193190548Y-116161088D01*
X193550849Y-115497118D01*
X193751616Y-114850000D01*
X203997928Y-114850000D01*
X204010188Y-114974482D01*
X204046498Y-115094180D01*
X204105463Y-115204494D01*
X204184815Y-115301185D01*
X204281506Y-115380537D01*
X204391820Y-115439502D01*
X204511518Y-115475812D01*
X204636000Y-115488072D01*
X205200250Y-115485000D01*
X205359000Y-115326250D01*
X205359000Y-114127000D01*
X204159750Y-114127000D01*
X204001000Y-114285750D01*
X203997928Y-114850000D01*
X193751616Y-114850000D01*
X193774694Y-114775615D01*
X193853480Y-114024305D01*
X193784178Y-113272062D01*
X193569452Y-112547792D01*
X193217555Y-111879330D01*
X193190548Y-111838912D01*
X192700881Y-111478724D01*
X190179605Y-114000000D01*
X189820395Y-114000000D01*
X187299119Y-111478724D01*
X186809452Y-111838912D01*
X186449151Y-112502882D01*
X186225306Y-113224385D01*
X186146520Y-113975695D01*
X185660000Y-113975695D01*
X185660000Y-111299119D01*
X187478724Y-111299119D01*
X190000000Y-113820395D01*
X192521276Y-111299119D01*
X192161088Y-110809452D01*
X191497118Y-110449151D01*
X190775615Y-110225306D01*
X190024305Y-110146520D01*
X189272062Y-110215822D01*
X188547792Y-110430548D01*
X187879330Y-110782445D01*
X187838912Y-110809452D01*
X187478724Y-111299119D01*
X185660000Y-111299119D01*
X185660000Y-98113521D01*
X187002583Y-98113521D01*
X187044303Y-98398074D01*
X187140735Y-98669020D01*
X187210927Y-98800337D01*
X187457449Y-98874946D01*
X188288395Y-98044000D01*
X188647605Y-98044000D01*
X189478551Y-98874946D01*
X189725073Y-98800337D01*
X189848473Y-98540561D01*
X189918823Y-98261703D01*
X189933417Y-97974479D01*
X189891697Y-97689926D01*
X189795265Y-97418980D01*
X189725073Y-97287663D01*
X189478551Y-97213054D01*
X188647605Y-98044000D01*
X188288395Y-98044000D01*
X187457449Y-97213054D01*
X187210927Y-97287663D01*
X187087527Y-97547439D01*
X187017177Y-97826297D01*
X187002583Y-98113521D01*
X185660000Y-98113521D01*
X185660000Y-92820203D01*
X187008000Y-92820203D01*
X187008000Y-93107797D01*
X187064107Y-93389866D01*
X187174165Y-93655569D01*
X187333944Y-93894696D01*
X187537304Y-94098056D01*
X187740759Y-94234000D01*
X187537304Y-94369944D01*
X187333944Y-94573304D01*
X187174165Y-94812431D01*
X187064107Y-95078134D01*
X187008000Y-95360203D01*
X187008000Y-95647797D01*
X187064107Y-95929866D01*
X187174165Y-96195569D01*
X187333944Y-96434696D01*
X187537304Y-96638056D01*
X187738576Y-96772541D01*
X187711663Y-96786927D01*
X187637054Y-97033449D01*
X188468000Y-97864395D01*
X189298946Y-97033449D01*
X189224337Y-96786927D01*
X189196023Y-96773477D01*
X189398696Y-96638056D01*
X189602056Y-96434696D01*
X189761835Y-96195569D01*
X189871893Y-95929866D01*
X189928000Y-95647797D01*
X189928000Y-95360203D01*
X189871893Y-95078134D01*
X189761835Y-94812431D01*
X189602056Y-94573304D01*
X189398696Y-94369944D01*
X189195241Y-94234000D01*
X189398696Y-94098056D01*
X189602056Y-93894696D01*
X189761835Y-93655569D01*
X189871893Y-93389866D01*
X189928000Y-93107797D01*
X189928000Y-92992702D01*
X199186903Y-92992702D01*
X199258486Y-93236671D01*
X199513996Y-93357571D01*
X199788184Y-93426300D01*
X200070512Y-93440217D01*
X200350130Y-93398787D01*
X200616292Y-93303603D01*
X200741514Y-93236671D01*
X200813097Y-92992702D01*
X200000000Y-92179605D01*
X199186903Y-92992702D01*
X189928000Y-92992702D01*
X189928000Y-92820203D01*
X189871893Y-92538134D01*
X189761835Y-92272431D01*
X189626918Y-92070512D01*
X198559783Y-92070512D01*
X198601213Y-92350130D01*
X198696397Y-92616292D01*
X198763329Y-92741514D01*
X199007298Y-92813097D01*
X199820395Y-92000000D01*
X200179605Y-92000000D01*
X200992702Y-92813097D01*
X201236671Y-92741514D01*
X201250324Y-92712659D01*
X201385363Y-92914759D01*
X201585241Y-93114637D01*
X201820273Y-93271680D01*
X202081426Y-93379853D01*
X202358665Y-93435000D01*
X202641335Y-93435000D01*
X202918574Y-93379853D01*
X203179727Y-93271680D01*
X203414759Y-93114637D01*
X203614637Y-92914759D01*
X203771680Y-92679727D01*
X203879853Y-92418574D01*
X203935000Y-92141335D01*
X203935000Y-91858665D01*
X206065000Y-91858665D01*
X206065000Y-92141335D01*
X206120147Y-92418574D01*
X206228320Y-92679727D01*
X206385363Y-92914759D01*
X206585241Y-93114637D01*
X206820273Y-93271680D01*
X207081426Y-93379853D01*
X207358665Y-93435000D01*
X207641335Y-93435000D01*
X207918574Y-93379853D01*
X208179727Y-93271680D01*
X208414759Y-93114637D01*
X208536694Y-92992702D01*
X209186903Y-92992702D01*
X209258486Y-93236671D01*
X209513996Y-93357571D01*
X209788184Y-93426300D01*
X210070512Y-93440217D01*
X210350130Y-93398787D01*
X210616292Y-93303603D01*
X210741514Y-93236671D01*
X210813097Y-92992702D01*
X210000000Y-92179605D01*
X209186903Y-92992702D01*
X208536694Y-92992702D01*
X208614637Y-92914759D01*
X208748692Y-92714131D01*
X208763329Y-92741514D01*
X209007298Y-92813097D01*
X209820395Y-92000000D01*
X210179605Y-92000000D01*
X210992702Y-92813097D01*
X211236671Y-92741514D01*
X211357571Y-92486004D01*
X211426300Y-92211816D01*
X211440217Y-91929488D01*
X211398787Y-91649870D01*
X211303603Y-91383708D01*
X211236671Y-91258486D01*
X210992702Y-91186903D01*
X210179605Y-92000000D01*
X209820395Y-92000000D01*
X209007298Y-91186903D01*
X208763329Y-91258486D01*
X208749676Y-91287341D01*
X208614637Y-91085241D01*
X208536694Y-91007298D01*
X209186903Y-91007298D01*
X210000000Y-91820395D01*
X210813097Y-91007298D01*
X210741514Y-90763329D01*
X210486004Y-90642429D01*
X210211816Y-90573700D01*
X209929488Y-90559783D01*
X209649870Y-90601213D01*
X209383708Y-90696397D01*
X209258486Y-90763329D01*
X209186903Y-91007298D01*
X208536694Y-91007298D01*
X208414759Y-90885363D01*
X208179727Y-90728320D01*
X207918574Y-90620147D01*
X207641335Y-90565000D01*
X207358665Y-90565000D01*
X207081426Y-90620147D01*
X206820273Y-90728320D01*
X206585241Y-90885363D01*
X206385363Y-91085241D01*
X206228320Y-91320273D01*
X206120147Y-91581426D01*
X206065000Y-91858665D01*
X203935000Y-91858665D01*
X203879853Y-91581426D01*
X203771680Y-91320273D01*
X203614637Y-91085241D01*
X203414759Y-90885363D01*
X203179727Y-90728320D01*
X202918574Y-90620147D01*
X202641335Y-90565000D01*
X202358665Y-90565000D01*
X202081426Y-90620147D01*
X201820273Y-90728320D01*
X201585241Y-90885363D01*
X201385363Y-91085241D01*
X201251308Y-91285869D01*
X201236671Y-91258486D01*
X200992702Y-91186903D01*
X200179605Y-92000000D01*
X199820395Y-92000000D01*
X199007298Y-91186903D01*
X198763329Y-91258486D01*
X198642429Y-91513996D01*
X198573700Y-91788184D01*
X198559783Y-92070512D01*
X189626918Y-92070512D01*
X189602056Y-92033304D01*
X189398696Y-91829944D01*
X189159569Y-91670165D01*
X188893866Y-91560107D01*
X188611797Y-91504000D01*
X188324203Y-91504000D01*
X188042134Y-91560107D01*
X187776431Y-91670165D01*
X187537304Y-91829944D01*
X187333944Y-92033304D01*
X187174165Y-92272431D01*
X187064107Y-92538134D01*
X187008000Y-92820203D01*
X185660000Y-92820203D01*
X185660000Y-91007298D01*
X199186903Y-91007298D01*
X200000000Y-91820395D01*
X200813097Y-91007298D01*
X200741514Y-90763329D01*
X200486004Y-90642429D01*
X200211816Y-90573700D01*
X199929488Y-90559783D01*
X199649870Y-90601213D01*
X199383708Y-90696397D01*
X199258486Y-90763329D01*
X199186903Y-91007298D01*
X185660000Y-91007298D01*
X185660000Y-85863589D01*
X201323000Y-85863589D01*
X201323000Y-86136411D01*
X201376225Y-86403989D01*
X201480629Y-86656043D01*
X201632201Y-86882886D01*
X201825114Y-87075799D01*
X202051957Y-87227371D01*
X202304011Y-87331775D01*
X202571589Y-87385000D01*
X202844411Y-87385000D01*
X203111989Y-87331775D01*
X203364043Y-87227371D01*
X203590886Y-87075799D01*
X203783799Y-86882886D01*
X203935371Y-86656043D01*
X204039775Y-86403989D01*
X204093000Y-86136411D01*
X204093000Y-85863589D01*
X206203000Y-85863589D01*
X206203000Y-86136411D01*
X206256225Y-86403989D01*
X206360629Y-86656043D01*
X206512201Y-86882886D01*
X206705114Y-87075799D01*
X206931957Y-87227371D01*
X207184011Y-87331775D01*
X207451589Y-87385000D01*
X207724411Y-87385000D01*
X207991989Y-87331775D01*
X208244043Y-87227371D01*
X208470886Y-87075799D01*
X208663799Y-86882886D01*
X208815371Y-86656043D01*
X208919775Y-86403989D01*
X208973000Y-86136411D01*
X208973000Y-85863589D01*
X208919775Y-85596011D01*
X208815371Y-85343957D01*
X208663799Y-85117114D01*
X208470886Y-84924201D01*
X208244043Y-84772629D01*
X207991989Y-84668225D01*
X207724411Y-84615000D01*
X207451589Y-84615000D01*
X207184011Y-84668225D01*
X206931957Y-84772629D01*
X206705114Y-84924201D01*
X206512201Y-85117114D01*
X206360629Y-85343957D01*
X206256225Y-85596011D01*
X206203000Y-85863589D01*
X204093000Y-85863589D01*
X204039775Y-85596011D01*
X203935371Y-85343957D01*
X203783799Y-85117114D01*
X203590886Y-84924201D01*
X203364043Y-84772629D01*
X203111989Y-84668225D01*
X202844411Y-84615000D01*
X202571589Y-84615000D01*
X202304011Y-84668225D01*
X202051957Y-84772629D01*
X201825114Y-84924201D01*
X201632201Y-85117114D01*
X201480629Y-85343957D01*
X201376225Y-85596011D01*
X201323000Y-85863589D01*
X185660000Y-85863589D01*
X185660000Y-84078438D01*
X188261505Y-84078438D01*
X188300605Y-84318549D01*
X188385798Y-84546418D01*
X188426652Y-84622852D01*
X188650236Y-84670159D01*
X189320395Y-84000000D01*
X188650236Y-83329841D01*
X188426652Y-83377148D01*
X188325763Y-83598516D01*
X188270000Y-83835313D01*
X188261505Y-84078438D01*
X185660000Y-84078438D01*
X185660000Y-83150236D01*
X188829841Y-83150236D01*
X189500000Y-83820395D01*
X189514143Y-83806253D01*
X189693748Y-83985858D01*
X189679605Y-84000000D01*
X189693748Y-84014143D01*
X189514143Y-84193748D01*
X189500000Y-84179605D01*
X188829841Y-84849764D01*
X188877148Y-85073348D01*
X189098516Y-85174237D01*
X189335313Y-85230000D01*
X189578438Y-85238495D01*
X189818549Y-85199395D01*
X190032117Y-85119549D01*
X190045506Y-85130537D01*
X190155820Y-85189502D01*
X190275518Y-85225812D01*
X190400000Y-85238072D01*
X191600000Y-85238072D01*
X191724482Y-85225812D01*
X191844180Y-85189502D01*
X191954494Y-85130537D01*
X192051185Y-85051185D01*
X192130537Y-84954494D01*
X192189502Y-84844180D01*
X192225812Y-84724482D01*
X192238072Y-84600000D01*
X192238072Y-83400000D01*
X192225812Y-83275518D01*
X192189502Y-83155820D01*
X192130537Y-83045506D01*
X192051185Y-82948815D01*
X191954494Y-82869463D01*
X191844180Y-82810498D01*
X191724482Y-82774188D01*
X191600000Y-82761928D01*
X190400000Y-82761928D01*
X190275518Y-82774188D01*
X190155820Y-82810498D01*
X190045506Y-82869463D01*
X190028319Y-82883568D01*
X189901484Y-82825763D01*
X189664687Y-82770000D01*
X189421562Y-82761505D01*
X189181451Y-82800605D01*
X188953582Y-82885798D01*
X188877148Y-82926652D01*
X188829841Y-83150236D01*
X185660000Y-83150236D01*
X185660000Y-78992702D01*
X187186903Y-78992702D01*
X187258486Y-79236671D01*
X187513996Y-79357571D01*
X187788184Y-79426300D01*
X188070512Y-79440217D01*
X188350130Y-79398787D01*
X188616292Y-79303603D01*
X188741514Y-79236671D01*
X188813097Y-78992702D01*
X188000000Y-78179605D01*
X187186903Y-78992702D01*
X185660000Y-78992702D01*
X185660000Y-78070512D01*
X186559783Y-78070512D01*
X186601213Y-78350130D01*
X186696397Y-78616292D01*
X186763329Y-78741514D01*
X187007298Y-78813097D01*
X187820395Y-78000000D01*
X187007298Y-77186903D01*
X186763329Y-77258486D01*
X186642429Y-77513996D01*
X186573700Y-77788184D01*
X186559783Y-78070512D01*
X185660000Y-78070512D01*
X185660000Y-63586900D01*
X185827606Y-63586900D01*
X185831600Y-63627450D01*
X185831601Y-74305640D01*
X185827606Y-74346200D01*
X185843545Y-74508026D01*
X185890747Y-74663633D01*
X185967401Y-74807042D01*
X186018906Y-74869800D01*
X186070560Y-74932741D01*
X186102061Y-74958593D01*
X187732445Y-76588978D01*
X187649870Y-76601213D01*
X187383708Y-76696397D01*
X187258486Y-76763329D01*
X187186903Y-77007298D01*
X188000000Y-77820395D01*
X188014143Y-77806253D01*
X188193748Y-77985858D01*
X188179605Y-78000000D01*
X188992702Y-78813097D01*
X189236671Y-78741514D01*
X189357571Y-78486004D01*
X189412066Y-78268600D01*
X190894711Y-79751245D01*
X190920559Y-79782741D01*
X190952055Y-79808589D01*
X190952058Y-79808592D01*
X191046257Y-79885899D01*
X191153169Y-79943045D01*
X191189666Y-79962553D01*
X191345274Y-80009756D01*
X191466547Y-80021700D01*
X191466549Y-80021700D01*
X191507100Y-80025694D01*
X191547650Y-80021700D01*
X195939650Y-80021700D01*
X195980200Y-80025694D01*
X196020750Y-80021700D01*
X196020753Y-80021700D01*
X196100889Y-80013808D01*
X196124395Y-80070556D01*
X196237663Y-80240074D01*
X196381826Y-80384237D01*
X196551344Y-80497505D01*
X196739702Y-80575526D01*
X196939661Y-80615300D01*
X197143539Y-80615300D01*
X197343498Y-80575526D01*
X197531856Y-80497505D01*
X197701374Y-80384237D01*
X197845537Y-80240074D01*
X197958805Y-80070556D01*
X198036826Y-79882198D01*
X198076600Y-79682239D01*
X198076600Y-79478361D01*
X198036826Y-79278402D01*
X198012300Y-79219191D01*
X198012300Y-77598534D01*
X198064400Y-77650634D01*
X198064400Y-77884650D01*
X198060406Y-77925200D01*
X198064400Y-77965750D01*
X198064400Y-77965753D01*
X198076344Y-78087026D01*
X198123547Y-78242634D01*
X198150248Y-78292587D01*
X198200201Y-78386042D01*
X198244107Y-78439541D01*
X198303360Y-78511741D01*
X198334861Y-78537593D01*
X202620207Y-82822940D01*
X202646059Y-82854441D01*
X202684268Y-82885798D01*
X202771757Y-82957599D01*
X202821711Y-82984299D01*
X202915166Y-83034253D01*
X203070774Y-83081456D01*
X203192047Y-83093400D01*
X203192049Y-83093400D01*
X203232599Y-83097394D01*
X203273150Y-83093400D01*
X208950168Y-83093400D01*
X219900500Y-94043733D01*
X219900501Y-112718647D01*
X219900501Y-112765587D01*
X219779368Y-112846525D01*
X219647513Y-112978380D01*
X219625502Y-112905820D01*
X219566537Y-112795506D01*
X219487185Y-112698815D01*
X219390494Y-112619463D01*
X219280180Y-112560498D01*
X219160482Y-112524188D01*
X219036000Y-112511928D01*
X218471750Y-112515000D01*
X218313000Y-112673750D01*
X218313000Y-113873000D01*
X218333000Y-113873000D01*
X218333000Y-114127000D01*
X218313000Y-114127000D01*
X218313000Y-114147000D01*
X218059000Y-114147000D01*
X218059000Y-114127000D01*
X216859750Y-114127000D01*
X216701000Y-114285750D01*
X216700197Y-114433200D01*
X211993915Y-114433200D01*
X211993932Y-114433158D01*
X212051000Y-114146260D01*
X212051000Y-113853740D01*
X211993932Y-113566842D01*
X211881990Y-113296589D01*
X211784043Y-113150000D01*
X216697928Y-113150000D01*
X216701000Y-113714250D01*
X216859750Y-113873000D01*
X218059000Y-113873000D01*
X218059000Y-112673750D01*
X217900250Y-112515000D01*
X217336000Y-112511928D01*
X217211518Y-112524188D01*
X217091820Y-112560498D01*
X216981506Y-112619463D01*
X216884815Y-112698815D01*
X216805463Y-112795506D01*
X216746498Y-112905820D01*
X216710188Y-113025518D01*
X216697928Y-113150000D01*
X211784043Y-113150000D01*
X211719475Y-113053368D01*
X211512632Y-112846525D01*
X211269411Y-112684010D01*
X210999158Y-112572068D01*
X210712260Y-112515000D01*
X210419740Y-112515000D01*
X210132842Y-112572068D01*
X209862589Y-112684010D01*
X209619368Y-112846525D01*
X209412525Y-113053368D01*
X209330091Y-113176739D01*
X209307353Y-113174500D01*
X209266800Y-113170506D01*
X209258303Y-113171343D01*
X209179475Y-113053368D01*
X208972632Y-112846525D01*
X208729411Y-112684010D01*
X208459158Y-112572068D01*
X208172260Y-112515000D01*
X207879740Y-112515000D01*
X207592842Y-112572068D01*
X207514269Y-112604614D01*
X207474899Y-112530958D01*
X207371741Y-112405259D01*
X207340241Y-112379408D01*
X203177798Y-108216966D01*
X203151941Y-108185459D01*
X203026242Y-108082301D01*
X202882834Y-108005647D01*
X202727226Y-107958444D01*
X202605953Y-107946500D01*
X202605950Y-107946500D01*
X202565400Y-107942506D01*
X202524850Y-107946500D01*
X200591847Y-107946500D01*
X200608977Y-107929370D01*
X200492704Y-107813097D01*
X200736671Y-107741514D01*
X200857571Y-107486004D01*
X200926300Y-107211816D01*
X200940217Y-106929488D01*
X200898787Y-106649870D01*
X200803603Y-106383708D01*
X200736671Y-106258486D01*
X200492702Y-106186903D01*
X199679605Y-107000000D01*
X199693748Y-107014143D01*
X199514143Y-107193748D01*
X199500000Y-107179605D01*
X199485858Y-107193748D01*
X199306253Y-107014143D01*
X199320395Y-107000000D01*
X198507298Y-106186903D01*
X198263329Y-106258486D01*
X198142429Y-106513996D01*
X198088274Y-106730042D01*
X197803198Y-106444966D01*
X197777341Y-106413459D01*
X197651642Y-106310301D01*
X197508234Y-106233647D01*
X197438072Y-106212364D01*
X197438072Y-106200000D01*
X197425812Y-106075518D01*
X197405118Y-106007298D01*
X198686903Y-106007298D01*
X199500000Y-106820395D01*
X200313097Y-106007298D01*
X200241514Y-105763329D01*
X199986004Y-105642429D01*
X199711816Y-105573700D01*
X199429488Y-105559783D01*
X199149870Y-105601213D01*
X198883708Y-105696397D01*
X198758486Y-105763329D01*
X198686903Y-106007298D01*
X197405118Y-106007298D01*
X197389502Y-105955820D01*
X197330537Y-105845506D01*
X197251185Y-105748815D01*
X197154494Y-105669463D01*
X197044180Y-105610498D01*
X196924482Y-105574188D01*
X196800000Y-105561928D01*
X196787636Y-105561928D01*
X196766353Y-105491766D01*
X196689699Y-105348358D01*
X196586541Y-105222659D01*
X196460842Y-105119501D01*
X196317434Y-105042847D01*
X196161826Y-104995644D01*
X196040553Y-104983700D01*
X196000000Y-104979706D01*
X195959447Y-104983700D01*
X195250934Y-104983700D01*
X190296198Y-100028966D01*
X190270341Y-99997459D01*
X190144642Y-99894301D01*
X190001234Y-99817647D01*
X189931072Y-99796364D01*
X189931072Y-99759000D01*
X189918812Y-99634518D01*
X189882502Y-99514820D01*
X189823537Y-99404506D01*
X189744185Y-99307815D01*
X189647494Y-99228463D01*
X189537180Y-99169498D01*
X189417482Y-99133188D01*
X189293000Y-99120928D01*
X189278857Y-99120928D01*
X189298946Y-99054551D01*
X188468000Y-98223605D01*
X187637054Y-99054551D01*
X187657143Y-99120928D01*
X187643000Y-99120928D01*
X187518518Y-99133188D01*
X187398820Y-99169498D01*
X187288506Y-99228463D01*
X187191815Y-99307815D01*
X187112463Y-99404506D01*
X187053498Y-99514820D01*
X187017188Y-99634518D01*
X187004928Y-99759000D01*
X187004928Y-101409000D01*
X187017188Y-101533482D01*
X187053498Y-101653180D01*
X187112463Y-101763494D01*
X187191815Y-101860185D01*
X187288506Y-101939537D01*
X187398820Y-101998502D01*
X187518518Y-102034812D01*
X187643000Y-102047072D01*
X189293000Y-102047072D01*
X189417482Y-102034812D01*
X189537180Y-101998502D01*
X189647494Y-101939537D01*
X189744185Y-101860185D01*
X189765987Y-101833619D01*
X194296611Y-106364245D01*
X194322459Y-106395741D01*
X194353955Y-106421589D01*
X194353958Y-106421592D01*
X194448157Y-106498899D01*
X194561928Y-106559711D01*
X194561928Y-107800000D01*
X194574188Y-107924482D01*
X194610498Y-108044180D01*
X194669463Y-108154494D01*
X194748815Y-108251185D01*
X194845506Y-108330537D01*
X194955820Y-108389502D01*
X195075518Y-108425812D01*
X195200000Y-108438072D01*
X196800000Y-108438072D01*
X196924482Y-108425812D01*
X197044180Y-108389502D01*
X197154494Y-108330537D01*
X197251185Y-108251185D01*
X197261718Y-108238350D01*
X198350406Y-109327039D01*
X198376259Y-109358541D01*
X198433656Y-109405645D01*
X198501956Y-109461698D01*
X198501958Y-109461699D01*
X198645366Y-109538353D01*
X198800974Y-109585556D01*
X198922247Y-109597500D01*
X198922256Y-109597500D01*
X198962799Y-109601493D01*
X199003342Y-109597500D01*
X202223468Y-109597500D01*
X205140643Y-112514675D01*
X204636000Y-112511928D01*
X204511518Y-112524188D01*
X204391820Y-112560498D01*
X204281506Y-112619463D01*
X204184815Y-112698815D01*
X204105463Y-112795506D01*
X204046498Y-112905820D01*
X204010188Y-113025518D01*
X203997928Y-113150000D01*
X204001000Y-113714250D01*
X204159750Y-113873000D01*
X205359000Y-113873000D01*
X205359000Y-113853000D01*
X205613000Y-113853000D01*
X205613000Y-113873000D01*
X205633000Y-113873000D01*
X205633000Y-114127000D01*
X205613000Y-114127000D01*
X205613000Y-115326250D01*
X205771750Y-115485000D01*
X206336000Y-115488072D01*
X206460482Y-115475812D01*
X206580180Y-115439502D01*
X206690494Y-115380537D01*
X206787185Y-115301185D01*
X206866537Y-115204494D01*
X206925502Y-115094180D01*
X206947513Y-115021620D01*
X207079368Y-115153475D01*
X207322589Y-115315990D01*
X207592842Y-115427932D01*
X207879740Y-115485000D01*
X208172260Y-115485000D01*
X208459158Y-115427932D01*
X208729411Y-115315990D01*
X208832366Y-115247198D01*
X209398906Y-115813739D01*
X209424759Y-115845241D01*
X209488896Y-115897877D01*
X209550457Y-115948399D01*
X209660565Y-116007253D01*
X209693866Y-116025053D01*
X209849474Y-116072256D01*
X209970747Y-116084200D01*
X209970749Y-116084200D01*
X210011300Y-116088194D01*
X210051850Y-116084200D01*
X226271250Y-116084200D01*
X226311800Y-116088194D01*
X226352350Y-116084200D01*
X226352353Y-116084200D01*
X226473626Y-116072256D01*
X226629234Y-116025053D01*
X226772642Y-115948399D01*
X226898341Y-115845241D01*
X226924198Y-115813734D01*
X227510321Y-115227612D01*
X227642589Y-115315990D01*
X227912842Y-115427932D01*
X228199740Y-115485000D01*
X228492260Y-115485000D01*
X228779158Y-115427932D01*
X229049411Y-115315990D01*
X229292632Y-115153475D01*
X229499475Y-114946632D01*
X229661990Y-114703411D01*
X229773932Y-114433158D01*
X229831000Y-114146260D01*
X229831000Y-113853740D01*
X229773932Y-113566842D01*
X229661990Y-113296589D01*
X229499475Y-113053368D01*
X229292632Y-112846525D01*
X229049411Y-112684010D01*
X228779158Y-112572068D01*
X228492260Y-112515000D01*
X228199740Y-112515000D01*
X227912842Y-112572068D01*
X227642589Y-112684010D01*
X227399368Y-112846525D01*
X227192525Y-113053368D01*
X227113697Y-113171343D01*
X227105200Y-113170506D01*
X227064647Y-113174500D01*
X227041909Y-113176739D01*
X226959475Y-113053368D01*
X226752632Y-112846525D01*
X226509411Y-112684010D01*
X226239158Y-112572068D01*
X225952260Y-112515000D01*
X225659740Y-112515000D01*
X225372842Y-112572068D01*
X225102589Y-112684010D01*
X224859368Y-112846525D01*
X224652525Y-113053368D01*
X224536000Y-113227760D01*
X224419475Y-113053368D01*
X224212632Y-112846525D01*
X224091500Y-112765587D01*
X224091500Y-96519532D01*
X233721967Y-106150000D01*
X233538665Y-106150000D01*
X233261426Y-106205147D01*
X233000273Y-106313320D01*
X232765241Y-106470363D01*
X232565363Y-106670241D01*
X232408320Y-106905273D01*
X232300147Y-107166426D01*
X232245000Y-107443665D01*
X232245000Y-107726335D01*
X232300147Y-108003574D01*
X232408320Y-108264727D01*
X232565363Y-108499759D01*
X232765241Y-108699637D01*
X233000273Y-108856680D01*
X233261426Y-108964853D01*
X233538665Y-109020000D01*
X233821335Y-109020000D01*
X233926624Y-108999056D01*
X240723511Y-115795945D01*
X240749359Y-115827441D01*
X240780855Y-115853289D01*
X240780858Y-115853292D01*
X240875057Y-115930599D01*
X240974903Y-115983968D01*
X241018466Y-116007253D01*
X241174074Y-116054456D01*
X241295347Y-116066400D01*
X241295349Y-116066400D01*
X241335900Y-116070394D01*
X241376450Y-116066400D01*
X246657650Y-116066400D01*
X246698200Y-116070394D01*
X246738750Y-116066400D01*
X246738753Y-116066400D01*
X246860026Y-116054456D01*
X247015634Y-116007253D01*
X247159042Y-115930599D01*
X247284741Y-115827441D01*
X247310597Y-115795935D01*
X247443038Y-115663494D01*
X247474541Y-115637641D01*
X247577699Y-115511942D01*
X247641136Y-115393260D01*
X247724842Y-115427932D01*
X248011740Y-115485000D01*
X248304260Y-115485000D01*
X248591158Y-115427932D01*
X248861411Y-115315990D01*
X249104632Y-115153475D01*
X249311475Y-114946632D01*
X249428000Y-114772240D01*
X249544525Y-114946632D01*
X249751368Y-115153475D01*
X249994589Y-115315990D01*
X250264842Y-115427932D01*
X250551740Y-115485000D01*
X250844260Y-115485000D01*
X251131158Y-115427932D01*
X251401411Y-115315990D01*
X251644632Y-115153475D01*
X251851475Y-114946632D01*
X252013990Y-114703411D01*
X252037369Y-114646967D01*
X264557000Y-114646967D01*
X264557000Y-114969033D01*
X264619832Y-115284912D01*
X264743082Y-115582463D01*
X264922013Y-115850252D01*
X265149748Y-116077987D01*
X265417537Y-116256918D01*
X265715088Y-116380168D01*
X266030967Y-116443000D01*
X266353033Y-116443000D01*
X266668912Y-116380168D01*
X266966463Y-116256918D01*
X267234252Y-116077987D01*
X267461987Y-115850252D01*
X267640918Y-115582463D01*
X267764168Y-115284912D01*
X267827000Y-114969033D01*
X267827000Y-114646967D01*
X267764168Y-114331088D01*
X267640918Y-114033537D01*
X267602270Y-113975695D01*
X268146520Y-113975695D01*
X268215822Y-114727938D01*
X268430548Y-115452208D01*
X268782445Y-116120670D01*
X268809452Y-116161088D01*
X269299119Y-116521276D01*
X271820395Y-114000000D01*
X272179605Y-114000000D01*
X274700881Y-116521276D01*
X275190548Y-116161088D01*
X275550849Y-115497118D01*
X275774694Y-114775615D01*
X275853480Y-114024305D01*
X275784178Y-113272062D01*
X275569452Y-112547792D01*
X275217555Y-111879330D01*
X275190548Y-111838912D01*
X274700881Y-111478724D01*
X272179605Y-114000000D01*
X271820395Y-114000000D01*
X269299119Y-111478724D01*
X268809452Y-111838912D01*
X268449151Y-112502882D01*
X268225306Y-113224385D01*
X268146520Y-113975695D01*
X267602270Y-113975695D01*
X267461987Y-113765748D01*
X267234252Y-113538013D01*
X266966463Y-113359082D01*
X266668912Y-113235832D01*
X266353033Y-113173000D01*
X266030967Y-113173000D01*
X265715088Y-113235832D01*
X265417537Y-113359082D01*
X265149748Y-113538013D01*
X264922013Y-113765748D01*
X264743082Y-114033537D01*
X264619832Y-114331088D01*
X264557000Y-114646967D01*
X252037369Y-114646967D01*
X252125932Y-114433158D01*
X252183000Y-114146260D01*
X252183000Y-113853740D01*
X252125932Y-113566842D01*
X252013990Y-113296589D01*
X251851475Y-113053368D01*
X251644632Y-112846525D01*
X251470240Y-112730000D01*
X251644632Y-112613475D01*
X251851475Y-112406632D01*
X251932413Y-112285500D01*
X254397000Y-112285500D01*
X254397000Y-112429033D01*
X254459832Y-112744912D01*
X254583082Y-113042463D01*
X254762013Y-113310252D01*
X254989748Y-113537987D01*
X255257537Y-113716918D01*
X255555088Y-113840168D01*
X255870967Y-113903000D01*
X256193033Y-113903000D01*
X256508912Y-113840168D01*
X256806463Y-113716918D01*
X257074252Y-113537987D01*
X257301987Y-113310252D01*
X257446816Y-113093500D01*
X259801450Y-113093500D01*
X259842000Y-113097494D01*
X259882550Y-113093500D01*
X259882553Y-113093500D01*
X260003826Y-113081556D01*
X260159434Y-113034353D01*
X260302842Y-112957699D01*
X260428541Y-112854541D01*
X260454398Y-112823034D01*
X261978314Y-111299119D01*
X269478724Y-111299119D01*
X272000000Y-113820395D01*
X274521276Y-111299119D01*
X274161088Y-110809452D01*
X273497118Y-110449151D01*
X272775615Y-110225306D01*
X272024305Y-110146520D01*
X271272062Y-110215822D01*
X270547792Y-110430548D01*
X269879330Y-110782445D01*
X269838912Y-110809452D01*
X269478724Y-111299119D01*
X261978314Y-111299119D01*
X263278377Y-109999057D01*
X263383665Y-110020000D01*
X263666335Y-110020000D01*
X263943574Y-109964853D01*
X264204727Y-109856680D01*
X264439759Y-109699637D01*
X264639637Y-109499759D01*
X264699278Y-109410500D01*
X270963650Y-109410500D01*
X271004200Y-109414494D01*
X271044750Y-109410500D01*
X271044753Y-109410500D01*
X271166026Y-109398556D01*
X271321634Y-109351353D01*
X271465042Y-109274699D01*
X271470467Y-109270247D01*
X271499463Y-109324494D01*
X271578815Y-109421185D01*
X271675506Y-109500537D01*
X271785820Y-109559502D01*
X271905518Y-109595812D01*
X272030000Y-109608072D01*
X274070000Y-109608072D01*
X274194482Y-109595812D01*
X274314180Y-109559502D01*
X274424494Y-109500537D01*
X274521185Y-109421185D01*
X274600537Y-109324494D01*
X274659502Y-109214180D01*
X274695812Y-109094482D01*
X274708072Y-108970000D01*
X274708072Y-106930000D01*
X274695812Y-106805518D01*
X274659502Y-106685820D01*
X274600537Y-106575506D01*
X274521185Y-106478815D01*
X274424494Y-106399463D01*
X274391204Y-106381669D01*
X274516642Y-106193937D01*
X274641399Y-105892746D01*
X274705000Y-105573003D01*
X274705000Y-105246997D01*
X274641399Y-104927254D01*
X274516642Y-104626063D01*
X274335523Y-104354999D01*
X274120524Y-104140000D01*
X274335523Y-103925001D01*
X274516642Y-103653937D01*
X274641399Y-103352746D01*
X274705000Y-103033003D01*
X274705000Y-102706997D01*
X274641399Y-102387254D01*
X274516642Y-102086063D01*
X274335523Y-101814999D01*
X274105001Y-101584477D01*
X273833937Y-101403358D01*
X273532746Y-101278601D01*
X273213003Y-101215000D01*
X272886997Y-101215000D01*
X272567254Y-101278601D01*
X272266063Y-101403358D01*
X271994999Y-101584477D01*
X271764477Y-101814999D01*
X271583358Y-102086063D01*
X271458601Y-102387254D01*
X271395000Y-102706997D01*
X271395000Y-103033003D01*
X271458601Y-103352746D01*
X271583358Y-103653937D01*
X271764477Y-103925001D01*
X271979476Y-104140000D01*
X271764477Y-104354999D01*
X271583358Y-104626063D01*
X271458601Y-104927254D01*
X271395000Y-105246997D01*
X271395000Y-105573003D01*
X271458601Y-105892746D01*
X271583358Y-106193937D01*
X271708796Y-106381669D01*
X271675506Y-106399463D01*
X271578815Y-106478815D01*
X271499463Y-106575506D01*
X271440498Y-106685820D01*
X271404188Y-106805518D01*
X271391928Y-106930000D01*
X271391928Y-107162364D01*
X271335091Y-107179605D01*
X271321766Y-107183647D01*
X271178357Y-107260301D01*
X271084158Y-107337608D01*
X271084155Y-107337611D01*
X271052659Y-107363459D01*
X271026810Y-107394956D01*
X270662267Y-107759500D01*
X264699278Y-107759500D01*
X264639637Y-107670241D01*
X264439759Y-107470363D01*
X264204727Y-107313320D01*
X263943574Y-107205147D01*
X263666335Y-107150000D01*
X263383665Y-107150000D01*
X263106426Y-107205147D01*
X262845273Y-107313320D01*
X262676027Y-107426406D01*
X263278377Y-106824057D01*
X263383665Y-106845000D01*
X263666335Y-106845000D01*
X263943574Y-106789853D01*
X264204727Y-106681680D01*
X264439759Y-106524637D01*
X264639637Y-106324759D01*
X264796680Y-106089727D01*
X264904853Y-105828574D01*
X264960000Y-105551335D01*
X264960000Y-105268665D01*
X264904853Y-104991426D01*
X264796680Y-104730273D01*
X264639637Y-104495241D01*
X264439759Y-104295363D01*
X264204727Y-104138320D01*
X263943574Y-104030147D01*
X263666335Y-103975000D01*
X263383665Y-103975000D01*
X263106426Y-104030147D01*
X262845273Y-104138320D01*
X262610241Y-104295363D01*
X262410363Y-104495241D01*
X262253320Y-104730273D01*
X262145147Y-104991426D01*
X262090000Y-105268665D01*
X262090000Y-105551335D01*
X262110943Y-105656623D01*
X258373868Y-109393700D01*
X257090503Y-109393700D01*
X257176680Y-109264727D01*
X257284853Y-109003574D01*
X257340000Y-108726335D01*
X257340000Y-108443665D01*
X257284853Y-108166426D01*
X257176680Y-107905273D01*
X257019637Y-107670241D01*
X256819759Y-107470363D01*
X256584727Y-107313320D01*
X256323574Y-107205147D01*
X256046335Y-107150000D01*
X255763665Y-107150000D01*
X255486426Y-107205147D01*
X255225273Y-107313320D01*
X255111665Y-107389231D01*
X253481473Y-105759039D01*
X254513096Y-105759039D01*
X254553754Y-105893087D01*
X254673963Y-106147420D01*
X254841481Y-106373414D01*
X255049869Y-106562385D01*
X255291119Y-106707070D01*
X255555960Y-106801909D01*
X255778000Y-106680624D01*
X255778000Y-105537000D01*
X256032000Y-105537000D01*
X256032000Y-106680624D01*
X256254040Y-106801909D01*
X256518881Y-106707070D01*
X256760131Y-106562385D01*
X256968519Y-106373414D01*
X257136037Y-106147420D01*
X257256246Y-105893087D01*
X257296904Y-105759039D01*
X257174915Y-105537000D01*
X256032000Y-105537000D01*
X255778000Y-105537000D01*
X254635085Y-105537000D01*
X254513096Y-105759039D01*
X253481473Y-105759039D01*
X252783395Y-105060961D01*
X254513096Y-105060961D01*
X254635085Y-105283000D01*
X255778000Y-105283000D01*
X255778000Y-104139376D01*
X256032000Y-104139376D01*
X256032000Y-105283000D01*
X257174915Y-105283000D01*
X257296904Y-105060961D01*
X257256246Y-104926913D01*
X257136037Y-104672580D01*
X256968519Y-104446586D01*
X256760131Y-104257615D01*
X256518881Y-104112930D01*
X256254040Y-104018091D01*
X256032000Y-104139376D01*
X255778000Y-104139376D01*
X255555960Y-104018091D01*
X255291119Y-104112930D01*
X255049869Y-104257615D01*
X254841481Y-104446586D01*
X254673963Y-104672580D01*
X254553754Y-104926913D01*
X254513096Y-105060961D01*
X252783395Y-105060961D01*
X251054100Y-103331667D01*
X251090000Y-103151184D01*
X251090000Y-102848816D01*
X251037333Y-102584039D01*
X254513096Y-102584039D01*
X254553754Y-102718087D01*
X254673963Y-102972420D01*
X254841481Y-103198414D01*
X255049869Y-103387385D01*
X255291119Y-103532070D01*
X255555960Y-103626909D01*
X255778000Y-103505624D01*
X255778000Y-102362000D01*
X256032000Y-102362000D01*
X256032000Y-103505624D01*
X256254040Y-103626909D01*
X256518881Y-103532070D01*
X256760131Y-103387385D01*
X256968519Y-103198414D01*
X257136037Y-102972420D01*
X257256246Y-102718087D01*
X257296904Y-102584039D01*
X257174915Y-102362000D01*
X256032000Y-102362000D01*
X255778000Y-102362000D01*
X254635085Y-102362000D01*
X254513096Y-102584039D01*
X251037333Y-102584039D01*
X251031011Y-102552257D01*
X250915299Y-102272905D01*
X250747312Y-102021495D01*
X250611778Y-101885961D01*
X254513096Y-101885961D01*
X254635085Y-102108000D01*
X255778000Y-102108000D01*
X255778000Y-100964376D01*
X256032000Y-100964376D01*
X256032000Y-102108000D01*
X257174915Y-102108000D01*
X257296904Y-101885961D01*
X257256246Y-101751913D01*
X257136037Y-101497580D01*
X256968519Y-101271586D01*
X256760131Y-101082615D01*
X256518881Y-100937930D01*
X256254040Y-100843091D01*
X256032000Y-100964376D01*
X255778000Y-100964376D01*
X255555960Y-100843091D01*
X255291119Y-100937930D01*
X255049869Y-101082615D01*
X254841481Y-101271586D01*
X254673963Y-101497580D01*
X254553754Y-101751913D01*
X254513096Y-101885961D01*
X250611778Y-101885961D01*
X250533505Y-101807688D01*
X250282095Y-101639701D01*
X250002743Y-101523989D01*
X249706184Y-101465000D01*
X249403816Y-101465000D01*
X249107257Y-101523989D01*
X248827905Y-101639701D01*
X248576495Y-101807688D01*
X248510056Y-101874127D01*
X248504502Y-101855820D01*
X248445537Y-101745506D01*
X248366185Y-101648815D01*
X248269494Y-101569463D01*
X248159180Y-101510498D01*
X248039482Y-101474188D01*
X247915000Y-101461928D01*
X247300750Y-101465000D01*
X247142000Y-101623750D01*
X247142000Y-102873000D01*
X247162000Y-102873000D01*
X247162000Y-103127000D01*
X247142000Y-103127000D01*
X247142000Y-104376250D01*
X247300750Y-104535000D01*
X247915000Y-104538072D01*
X248039482Y-104525812D01*
X248159180Y-104489502D01*
X248269494Y-104430537D01*
X248366185Y-104351185D01*
X248445537Y-104254494D01*
X248504502Y-104144180D01*
X248510056Y-104125873D01*
X248576495Y-104192312D01*
X248827905Y-104360299D01*
X249107257Y-104476011D01*
X249403816Y-104535000D01*
X249706184Y-104535000D01*
X249886667Y-104499100D01*
X253888700Y-108501134D01*
X253888700Y-108544447D01*
X253884706Y-108585000D01*
X253900644Y-108746826D01*
X253947847Y-108902434D01*
X254024501Y-109045842D01*
X254060276Y-109089434D01*
X254127659Y-109171541D01*
X254253358Y-109274699D01*
X254396766Y-109351353D01*
X254536366Y-109393700D01*
X247674750Y-109393700D01*
X247634199Y-109389706D01*
X247593649Y-109393700D01*
X247593647Y-109393700D01*
X247472374Y-109405644D01*
X247316766Y-109452847D01*
X247229001Y-109499759D01*
X247173357Y-109529501D01*
X247136801Y-109559502D01*
X247047659Y-109632659D01*
X247021808Y-109664159D01*
X246453619Y-110232349D01*
X246321411Y-110144010D01*
X246051158Y-110032068D01*
X245764260Y-109975000D01*
X245471740Y-109975000D01*
X245184842Y-110032068D01*
X244914589Y-110144010D01*
X244671368Y-110306525D01*
X244464525Y-110513368D01*
X244302010Y-110756589D01*
X244190068Y-111026842D01*
X244133000Y-111313740D01*
X244133000Y-111606260D01*
X244190068Y-111893158D01*
X244302010Y-112163411D01*
X244464525Y-112406632D01*
X244596380Y-112538487D01*
X244523820Y-112560498D01*
X244413506Y-112619463D01*
X244316815Y-112698815D01*
X244237463Y-112795506D01*
X244178498Y-112905820D01*
X244142188Y-113025518D01*
X244129928Y-113150000D01*
X244129928Y-113174500D01*
X243081333Y-113174500D01*
X237350498Y-107443665D01*
X239865000Y-107443665D01*
X239865000Y-107726335D01*
X239920147Y-108003574D01*
X240028320Y-108264727D01*
X240185363Y-108499759D01*
X240385241Y-108699637D01*
X240620273Y-108856680D01*
X240881426Y-108964853D01*
X241158665Y-109020000D01*
X241441335Y-109020000D01*
X241718574Y-108964853D01*
X241979727Y-108856680D01*
X242214759Y-108699637D01*
X242414637Y-108499759D01*
X242571680Y-108264727D01*
X242679853Y-108003574D01*
X242735000Y-107726335D01*
X242735000Y-107443665D01*
X242679853Y-107166426D01*
X242571680Y-106905273D01*
X242414637Y-106670241D01*
X242214759Y-106470363D01*
X241979727Y-106313320D01*
X241718574Y-106205147D01*
X241441335Y-106150000D01*
X241158665Y-106150000D01*
X240881426Y-106205147D01*
X240620273Y-106313320D01*
X240385241Y-106470363D01*
X240185363Y-106670241D01*
X240028320Y-106905273D01*
X239920147Y-107166426D01*
X239865000Y-107443665D01*
X237350498Y-107443665D01*
X233806833Y-103900000D01*
X245476928Y-103900000D01*
X245489188Y-104024482D01*
X245525498Y-104144180D01*
X245584463Y-104254494D01*
X245663815Y-104351185D01*
X245760506Y-104430537D01*
X245870820Y-104489502D01*
X245990518Y-104525812D01*
X246115000Y-104538072D01*
X246729250Y-104535000D01*
X246888000Y-104376250D01*
X246888000Y-103127000D01*
X245638750Y-103127000D01*
X245480000Y-103285750D01*
X245476928Y-103900000D01*
X233806833Y-103900000D01*
X231032333Y-101125500D01*
X234495568Y-101125500D01*
X234289241Y-101263363D01*
X234089363Y-101463241D01*
X233932320Y-101698273D01*
X233824147Y-101959426D01*
X233769000Y-102236665D01*
X233769000Y-102519335D01*
X233824147Y-102796574D01*
X233932320Y-103057727D01*
X234089363Y-103292759D01*
X234289241Y-103492637D01*
X234524273Y-103649680D01*
X234785426Y-103757853D01*
X235062665Y-103813000D01*
X235345335Y-103813000D01*
X235622574Y-103757853D01*
X235883727Y-103649680D01*
X236118759Y-103492637D01*
X236318637Y-103292759D01*
X236475680Y-103057727D01*
X236583853Y-102796574D01*
X236639000Y-102519335D01*
X236639000Y-102236665D01*
X236583853Y-101959426D01*
X236475680Y-101698273D01*
X236318637Y-101463241D01*
X236118759Y-101263363D01*
X235912432Y-101125500D01*
X237784068Y-101125500D01*
X238789943Y-102131377D01*
X238769000Y-102236665D01*
X238769000Y-102519335D01*
X238824147Y-102796574D01*
X238932320Y-103057727D01*
X239089363Y-103292759D01*
X239289241Y-103492637D01*
X239524273Y-103649680D01*
X239785426Y-103757853D01*
X240062665Y-103813000D01*
X240345335Y-103813000D01*
X240622574Y-103757853D01*
X240883727Y-103649680D01*
X241118759Y-103492637D01*
X241318637Y-103292759D01*
X241475680Y-103057727D01*
X241583853Y-102796574D01*
X241639000Y-102519335D01*
X241639000Y-102236665D01*
X241611816Y-102100000D01*
X245476928Y-102100000D01*
X245480000Y-102714250D01*
X245638750Y-102873000D01*
X246888000Y-102873000D01*
X246888000Y-101623750D01*
X246729250Y-101465000D01*
X246115000Y-101461928D01*
X245990518Y-101474188D01*
X245870820Y-101510498D01*
X245760506Y-101569463D01*
X245663815Y-101648815D01*
X245584463Y-101745506D01*
X245525498Y-101855820D01*
X245489188Y-101975518D01*
X245476928Y-102100000D01*
X241611816Y-102100000D01*
X241583853Y-101959426D01*
X241475680Y-101698273D01*
X241318637Y-101463241D01*
X241118759Y-101263363D01*
X240883727Y-101106320D01*
X240622574Y-100998147D01*
X240345335Y-100943000D01*
X240062665Y-100943000D01*
X239957377Y-100963943D01*
X238738398Y-99744966D01*
X238712541Y-99713459D01*
X238586842Y-99610301D01*
X238443434Y-99533647D01*
X238287826Y-99486444D01*
X238166553Y-99474500D01*
X238166550Y-99474500D01*
X238126000Y-99470506D01*
X238085450Y-99474500D01*
X230860334Y-99474500D01*
X226992724Y-95606890D01*
X234778524Y-95606890D01*
X234823175Y-95754099D01*
X234948359Y-96016920D01*
X235122412Y-96250269D01*
X235338645Y-96445178D01*
X235588748Y-96594157D01*
X235863109Y-96691481D01*
X236093000Y-96570814D01*
X236093000Y-95377000D01*
X236347000Y-95377000D01*
X236347000Y-96570814D01*
X236576891Y-96691481D01*
X236851252Y-96594157D01*
X237101355Y-96445178D01*
X237317588Y-96250269D01*
X237429672Y-96100000D01*
X244256928Y-96100000D01*
X244269188Y-96224482D01*
X244305498Y-96344180D01*
X244364463Y-96454494D01*
X244443815Y-96551185D01*
X244540506Y-96630537D01*
X244650820Y-96689502D01*
X244770518Y-96725812D01*
X244895000Y-96738072D01*
X245459250Y-96735000D01*
X245618000Y-96576250D01*
X245618000Y-95377000D01*
X245872000Y-95377000D01*
X245872000Y-96576250D01*
X246030750Y-96735000D01*
X246595000Y-96738072D01*
X246719482Y-96725812D01*
X246839180Y-96689502D01*
X246949494Y-96630537D01*
X247046185Y-96551185D01*
X247125537Y-96454494D01*
X247184502Y-96344180D01*
X247220812Y-96224482D01*
X247233072Y-96100000D01*
X247230000Y-95535750D01*
X247071250Y-95377000D01*
X245872000Y-95377000D01*
X245618000Y-95377000D01*
X244418750Y-95377000D01*
X244260000Y-95535750D01*
X244256928Y-96100000D01*
X237429672Y-96100000D01*
X237491641Y-96016920D01*
X237616825Y-95754099D01*
X237661476Y-95606890D01*
X237540155Y-95377000D01*
X236347000Y-95377000D01*
X236093000Y-95377000D01*
X234899845Y-95377000D01*
X234778524Y-95606890D01*
X226992724Y-95606890D01*
X226220434Y-94834600D01*
X234796271Y-94834600D01*
X234778524Y-94893110D01*
X234899845Y-95123000D01*
X236093000Y-95123000D01*
X236093000Y-95103000D01*
X236347000Y-95103000D01*
X236347000Y-95123000D01*
X237540155Y-95123000D01*
X237661476Y-94893110D01*
X237643729Y-94834600D01*
X244259294Y-94834600D01*
X244260000Y-94964250D01*
X244418750Y-95123000D01*
X245618000Y-95123000D01*
X245618000Y-95103000D01*
X245872000Y-95103000D01*
X245872000Y-95123000D01*
X247071250Y-95123000D01*
X247230000Y-94964250D01*
X247230706Y-94834600D01*
X254957168Y-94834600D01*
X262110943Y-101988376D01*
X262090000Y-102093665D01*
X262090000Y-102376335D01*
X262145147Y-102653574D01*
X262253320Y-102914727D01*
X262410363Y-103149759D01*
X262610241Y-103349637D01*
X262845273Y-103506680D01*
X263106426Y-103614853D01*
X263383665Y-103670000D01*
X263666335Y-103670000D01*
X263943574Y-103614853D01*
X264204727Y-103506680D01*
X264439759Y-103349637D01*
X264639637Y-103149759D01*
X264796680Y-102914727D01*
X264904853Y-102653574D01*
X264960000Y-102376335D01*
X264960000Y-102093665D01*
X264904853Y-101816426D01*
X264796680Y-101555273D01*
X264639637Y-101320241D01*
X264439759Y-101120363D01*
X264204727Y-100963320D01*
X263943574Y-100855147D01*
X263666335Y-100800000D01*
X263383665Y-100800000D01*
X263278376Y-100820943D01*
X255911498Y-93454066D01*
X255885641Y-93422559D01*
X255759942Y-93319401D01*
X255616534Y-93242747D01*
X255460926Y-93195544D01*
X255339653Y-93183600D01*
X255339650Y-93183600D01*
X255299100Y-93179606D01*
X255258550Y-93183600D01*
X247156180Y-93183600D01*
X247172932Y-93143158D01*
X247230000Y-92856260D01*
X247230000Y-92563740D01*
X247172932Y-92276842D01*
X247060990Y-92006589D01*
X246898475Y-91763368D01*
X246691632Y-91556525D01*
X246517240Y-91440000D01*
X246691632Y-91323475D01*
X246898475Y-91116632D01*
X247060990Y-90873411D01*
X247172932Y-90603158D01*
X247230000Y-90316260D01*
X247230000Y-90023740D01*
X247172932Y-89736842D01*
X247060990Y-89466589D01*
X246898475Y-89223368D01*
X246691632Y-89016525D01*
X246448411Y-88854010D01*
X246178158Y-88742068D01*
X245891260Y-88685000D01*
X245598740Y-88685000D01*
X245311842Y-88742068D01*
X245041589Y-88854010D01*
X244798368Y-89016525D01*
X244591525Y-89223368D01*
X244429010Y-89466589D01*
X244317068Y-89736842D01*
X244260000Y-90023740D01*
X244260000Y-90316260D01*
X244317068Y-90603158D01*
X244429010Y-90873411D01*
X244591525Y-91116632D01*
X244798368Y-91323475D01*
X244972760Y-91440000D01*
X244798368Y-91556525D01*
X244658263Y-91696630D01*
X243817498Y-90855866D01*
X243791641Y-90824359D01*
X243665942Y-90721201D01*
X243522534Y-90644547D01*
X243366926Y-90597344D01*
X243245653Y-90585400D01*
X243245650Y-90585400D01*
X243205100Y-90581406D01*
X243164550Y-90585400D01*
X237708072Y-90585400D01*
X237708072Y-89320000D01*
X237695812Y-89195518D01*
X237659502Y-89075820D01*
X237600537Y-88965506D01*
X237521185Y-88868815D01*
X237424494Y-88789463D01*
X237314180Y-88730498D01*
X237194482Y-88694188D01*
X237070000Y-88681928D01*
X235370000Y-88681928D01*
X235245518Y-88694188D01*
X235125820Y-88730498D01*
X235015506Y-88789463D01*
X234918815Y-88868815D01*
X234839463Y-88965506D01*
X234780498Y-89075820D01*
X234744188Y-89195518D01*
X234731928Y-89320000D01*
X234731928Y-90585400D01*
X224967533Y-90585400D01*
X215445025Y-81062892D01*
X225760666Y-81062892D01*
X225760666Y-81497108D01*
X225845377Y-81922981D01*
X226011544Y-82324144D01*
X226252782Y-82685181D01*
X226559819Y-82992218D01*
X226920856Y-83233456D01*
X227322019Y-83399623D01*
X227747892Y-83484334D01*
X228182108Y-83484334D01*
X228607981Y-83399623D01*
X229009144Y-83233456D01*
X229370181Y-82992218D01*
X229677218Y-82685181D01*
X229918456Y-82324144D01*
X230084623Y-81922981D01*
X230169334Y-81497108D01*
X230169334Y-81062892D01*
X271480666Y-81062892D01*
X271480666Y-81497108D01*
X271565377Y-81922981D01*
X271731544Y-82324144D01*
X271972782Y-82685181D01*
X272279819Y-82992218D01*
X272640856Y-83233456D01*
X273042019Y-83399623D01*
X273467892Y-83484334D01*
X273902108Y-83484334D01*
X274327981Y-83399623D01*
X274729144Y-83233456D01*
X275090181Y-82992218D01*
X275397218Y-82685181D01*
X275638456Y-82324144D01*
X275804623Y-81922981D01*
X275889334Y-81497108D01*
X275889334Y-81062892D01*
X275804623Y-80637019D01*
X275638456Y-80235856D01*
X275397218Y-79874819D01*
X275090181Y-79567782D01*
X274729144Y-79326544D01*
X274327981Y-79160377D01*
X273902108Y-79075666D01*
X273467892Y-79075666D01*
X273042019Y-79160377D01*
X272640856Y-79326544D01*
X272279819Y-79567782D01*
X271972782Y-79874819D01*
X271731544Y-80235856D01*
X271565377Y-80637019D01*
X271480666Y-81062892D01*
X230169334Y-81062892D01*
X230084623Y-80637019D01*
X229918456Y-80235856D01*
X229677218Y-79874819D01*
X229370181Y-79567782D01*
X229009144Y-79326544D01*
X228607981Y-79160377D01*
X228182108Y-79075666D01*
X227747892Y-79075666D01*
X227322019Y-79160377D01*
X226920856Y-79326544D01*
X226559819Y-79567782D01*
X226252782Y-79874819D01*
X226011544Y-80235856D01*
X225845377Y-80637019D01*
X225760666Y-81062892D01*
X215445025Y-81062892D01*
X214889338Y-80507206D01*
X215079344Y-80545000D01*
X215450656Y-80545000D01*
X215814834Y-80472561D01*
X216157882Y-80330466D01*
X216466618Y-80124175D01*
X216729175Y-79861618D01*
X216935466Y-79552882D01*
X217077561Y-79209834D01*
X217150000Y-78845656D01*
X217150000Y-78474344D01*
X217077561Y-78110166D01*
X216935466Y-77767118D01*
X216729175Y-77458382D01*
X216466618Y-77195825D01*
X216157882Y-76989534D01*
X215814834Y-76847439D01*
X215450656Y-76775000D01*
X215079344Y-76775000D01*
X214715166Y-76847439D01*
X214372118Y-76989534D01*
X214063382Y-77195825D01*
X213800825Y-77458382D01*
X213594534Y-77767118D01*
X213452439Y-78110166D01*
X213380000Y-78474344D01*
X213380000Y-78845656D01*
X213417794Y-79035662D01*
X211680098Y-77297966D01*
X211654241Y-77266459D01*
X211528542Y-77163301D01*
X211385134Y-77086647D01*
X211229526Y-77039444D01*
X211108253Y-77027500D01*
X211108250Y-77027500D01*
X211067700Y-77023506D01*
X211027150Y-77027500D01*
X205277232Y-77027500D01*
X207331127Y-74973605D01*
X214131000Y-74973605D01*
X214256914Y-75263577D01*
X214589126Y-75429433D01*
X214947312Y-75527290D01*
X215317706Y-75553389D01*
X215686075Y-75506725D01*
X216038262Y-75389094D01*
X216273086Y-75263577D01*
X216399000Y-74973605D01*
X215265000Y-73839605D01*
X214131000Y-74973605D01*
X207331127Y-74973605D01*
X208592026Y-73712706D01*
X213371611Y-73712706D01*
X213418275Y-74081075D01*
X213535906Y-74433262D01*
X213661423Y-74668086D01*
X213951395Y-74794000D01*
X215085395Y-73660000D01*
X215444605Y-73660000D01*
X216578605Y-74794000D01*
X216868577Y-74668086D01*
X217034433Y-74335874D01*
X217132290Y-73977688D01*
X217158389Y-73607294D01*
X217111725Y-73238925D01*
X216994094Y-72886738D01*
X216868577Y-72651914D01*
X216578605Y-72526000D01*
X215444605Y-73660000D01*
X215085395Y-73660000D01*
X213951395Y-72526000D01*
X213661423Y-72651914D01*
X213495567Y-72984126D01*
X213397710Y-73342312D01*
X213371611Y-73712706D01*
X208592026Y-73712706D01*
X209958337Y-72346395D01*
X214131000Y-72346395D01*
X215265000Y-73480395D01*
X216399000Y-72346395D01*
X216273086Y-72056423D01*
X215940874Y-71890567D01*
X215582688Y-71792710D01*
X215212294Y-71766611D01*
X214843925Y-71813275D01*
X214491738Y-71930906D01*
X214256914Y-72056423D01*
X214131000Y-72346395D01*
X209958337Y-72346395D01*
X213393120Y-68911613D01*
X213452439Y-69209834D01*
X213594534Y-69552882D01*
X213800825Y-69861618D01*
X214063382Y-70124175D01*
X214372118Y-70330466D01*
X214715166Y-70472561D01*
X215079344Y-70545000D01*
X215450656Y-70545000D01*
X215814834Y-70472561D01*
X216157882Y-70330466D01*
X216466618Y-70124175D01*
X216729175Y-69861618D01*
X216935466Y-69552882D01*
X217077561Y-69209834D01*
X217150000Y-68845656D01*
X217150000Y-68474344D01*
X217077561Y-68110166D01*
X216935466Y-67767118D01*
X216729175Y-67458382D01*
X216466618Y-67195825D01*
X216157882Y-66989534D01*
X215814834Y-66847439D01*
X215516613Y-66788120D01*
X221561841Y-60742892D01*
X225760666Y-60742892D01*
X225760666Y-61177108D01*
X225845377Y-61602981D01*
X226011544Y-62004144D01*
X226252782Y-62365181D01*
X226559819Y-62672218D01*
X226920856Y-62913456D01*
X227322019Y-63079623D01*
X227747892Y-63164334D01*
X228182108Y-63164334D01*
X228607981Y-63079623D01*
X229009144Y-62913456D01*
X229370181Y-62672218D01*
X229677218Y-62365181D01*
X229918456Y-62004144D01*
X230084623Y-61602981D01*
X230169334Y-61177108D01*
X230169334Y-60742892D01*
X271480666Y-60742892D01*
X271480666Y-61177108D01*
X271565377Y-61602981D01*
X271731544Y-62004144D01*
X271972782Y-62365181D01*
X272279819Y-62672218D01*
X272640856Y-62913456D01*
X273042019Y-63079623D01*
X273467892Y-63164334D01*
X273902108Y-63164334D01*
X274327981Y-63079623D01*
X274729144Y-62913456D01*
X275090181Y-62672218D01*
X275397218Y-62365181D01*
X275638456Y-62004144D01*
X275804623Y-61602981D01*
X275889334Y-61177108D01*
X275889334Y-60742892D01*
X275804623Y-60317019D01*
X275638456Y-59915856D01*
X275397218Y-59554819D01*
X275090181Y-59247782D01*
X274729144Y-59006544D01*
X274327981Y-58840377D01*
X273902108Y-58755666D01*
X273467892Y-58755666D01*
X273042019Y-58840377D01*
X272640856Y-59006544D01*
X272279819Y-59247782D01*
X271972782Y-59554819D01*
X271731544Y-59915856D01*
X271565377Y-60317019D01*
X271480666Y-60742892D01*
X230169334Y-60742892D01*
X230084623Y-60317019D01*
X229918456Y-59915856D01*
X229677218Y-59554819D01*
X229370181Y-59247782D01*
X229009144Y-59006544D01*
X228607981Y-58840377D01*
X228182108Y-58755666D01*
X227747892Y-58755666D01*
X227322019Y-58840377D01*
X226920856Y-59006544D01*
X226559819Y-59247782D01*
X226252782Y-59554819D01*
X226011544Y-59915856D01*
X225845377Y-60317019D01*
X225760666Y-60742892D01*
X221561841Y-60742892D01*
X224583041Y-57721692D01*
X224614541Y-57695841D01*
X224697299Y-57595000D01*
X224717699Y-57570143D01*
X224794353Y-57426734D01*
X224828247Y-57315000D01*
X224841556Y-57271126D01*
X224853500Y-57149853D01*
X224853500Y-57149851D01*
X224857494Y-57109301D01*
X224853500Y-57068750D01*
X224853500Y-53122892D01*
X225760666Y-53122892D01*
X225760666Y-53557108D01*
X225845377Y-53982981D01*
X226011544Y-54384144D01*
X226252782Y-54745181D01*
X226559819Y-55052218D01*
X226920856Y-55293456D01*
X227322019Y-55459623D01*
X227747892Y-55544334D01*
X228182108Y-55544334D01*
X228607981Y-55459623D01*
X229009144Y-55293456D01*
X229370181Y-55052218D01*
X229677218Y-54745181D01*
X229918456Y-54384144D01*
X230084623Y-53982981D01*
X230169334Y-53557108D01*
X230169334Y-53122892D01*
X271480666Y-53122892D01*
X271480666Y-53557108D01*
X271565377Y-53982981D01*
X271731544Y-54384144D01*
X271972782Y-54745181D01*
X272279819Y-55052218D01*
X272640856Y-55293456D01*
X273042019Y-55459623D01*
X273467892Y-55544334D01*
X273902108Y-55544334D01*
X274327981Y-55459623D01*
X274729144Y-55293456D01*
X275090181Y-55052218D01*
X275397218Y-54745181D01*
X275638456Y-54384144D01*
X275804623Y-53982981D01*
X275889334Y-53557108D01*
X275889334Y-53122892D01*
X275804623Y-52697019D01*
X275638456Y-52295856D01*
X275397218Y-51934819D01*
X275090181Y-51627782D01*
X274729144Y-51386544D01*
X274327981Y-51220377D01*
X273902108Y-51135666D01*
X273467892Y-51135666D01*
X273042019Y-51220377D01*
X272640856Y-51386544D01*
X272279819Y-51627782D01*
X271972782Y-51934819D01*
X271731544Y-52295856D01*
X271565377Y-52697019D01*
X271480666Y-53122892D01*
X230169334Y-53122892D01*
X230084623Y-52697019D01*
X229918456Y-52295856D01*
X229677218Y-51934819D01*
X229370181Y-51627782D01*
X229009144Y-51386544D01*
X228607981Y-51220377D01*
X228182108Y-51135666D01*
X227747892Y-51135666D01*
X227322019Y-51220377D01*
X226920856Y-51386544D01*
X226559819Y-51627782D01*
X226252782Y-51934819D01*
X226011544Y-52295856D01*
X225845377Y-52697019D01*
X225760666Y-53122892D01*
X224853500Y-53122892D01*
X224853500Y-32802892D01*
X225760666Y-32802892D01*
X225760666Y-33237108D01*
X225845377Y-33662981D01*
X226011544Y-34064144D01*
X226252782Y-34425181D01*
X226559819Y-34732218D01*
X226920856Y-34973456D01*
X227322019Y-35139623D01*
X227747892Y-35224334D01*
X228182108Y-35224334D01*
X228607981Y-35139623D01*
X229009144Y-34973456D01*
X229370181Y-34732218D01*
X229677218Y-34425181D01*
X229918456Y-34064144D01*
X230084623Y-33662981D01*
X230169334Y-33237108D01*
X230169334Y-32802892D01*
X271480666Y-32802892D01*
X271480666Y-33237108D01*
X271565377Y-33662981D01*
X271731544Y-34064144D01*
X271972782Y-34425181D01*
X272279819Y-34732218D01*
X272640856Y-34973456D01*
X273042019Y-35139623D01*
X273467892Y-35224334D01*
X273902108Y-35224334D01*
X274327981Y-35139623D01*
X274729144Y-34973456D01*
X275090181Y-34732218D01*
X275397218Y-34425181D01*
X275638456Y-34064144D01*
X275804623Y-33662981D01*
X275889334Y-33237108D01*
X275889334Y-32802892D01*
X275804623Y-32377019D01*
X275638456Y-31975856D01*
X275397218Y-31614819D01*
X275090181Y-31307782D01*
X274729144Y-31066544D01*
X274327981Y-30900377D01*
X273902108Y-30815666D01*
X273467892Y-30815666D01*
X273042019Y-30900377D01*
X272640856Y-31066544D01*
X272279819Y-31307782D01*
X271972782Y-31614819D01*
X271731544Y-31975856D01*
X271565377Y-32377019D01*
X271480666Y-32802892D01*
X230169334Y-32802892D01*
X230084623Y-32377019D01*
X229918456Y-31975856D01*
X229677218Y-31614819D01*
X229370181Y-31307782D01*
X229009144Y-31066544D01*
X228607981Y-30900377D01*
X228182108Y-30815666D01*
X227747892Y-30815666D01*
X227322019Y-30900377D01*
X226920856Y-31066544D01*
X226559819Y-31307782D01*
X226252782Y-31614819D01*
X226011544Y-31975856D01*
X225845377Y-32377019D01*
X225760666Y-32802892D01*
X224853500Y-32802892D01*
X224853500Y-27700881D01*
X269478724Y-27700881D01*
X269838912Y-28190548D01*
X270502882Y-28550849D01*
X271224385Y-28774694D01*
X271975695Y-28853480D01*
X272727938Y-28784178D01*
X273452208Y-28569452D01*
X274120670Y-28217555D01*
X274161088Y-28190548D01*
X274521276Y-27700881D01*
X272000000Y-25179605D01*
X269478724Y-27700881D01*
X224853500Y-27700881D01*
X224853500Y-24975695D01*
X268146520Y-24975695D01*
X268215822Y-25727938D01*
X268430548Y-26452208D01*
X268782445Y-27120670D01*
X268809452Y-27161088D01*
X269299119Y-27521276D01*
X271820395Y-25000000D01*
X272179605Y-25000000D01*
X274700881Y-27521276D01*
X275190548Y-27161088D01*
X275550849Y-26497118D01*
X275774694Y-25775615D01*
X275853480Y-25024305D01*
X275784178Y-24272062D01*
X275569452Y-23547792D01*
X275217555Y-22879330D01*
X275190548Y-22838912D01*
X274700881Y-22478724D01*
X272179605Y-25000000D01*
X271820395Y-25000000D01*
X269299119Y-22478724D01*
X268809452Y-22838912D01*
X268449151Y-23502882D01*
X268225306Y-24224385D01*
X268146520Y-24975695D01*
X224853500Y-24975695D01*
X224853500Y-24348413D01*
X224974632Y-24267475D01*
X225181475Y-24060632D01*
X225263909Y-23937261D01*
X225327200Y-23943494D01*
X225335697Y-23942657D01*
X225414525Y-24060632D01*
X225621368Y-24267475D01*
X225864589Y-24429990D01*
X226134842Y-24541932D01*
X226421740Y-24599000D01*
X226714260Y-24599000D01*
X227001158Y-24541932D01*
X227271411Y-24429990D01*
X227514632Y-24267475D01*
X227721475Y-24060632D01*
X227883990Y-23817411D01*
X227995932Y-23547158D01*
X228053000Y-23260260D01*
X228053000Y-22967740D01*
X227995932Y-22680842D01*
X227883990Y-22410589D01*
X227809509Y-22299119D01*
X269478724Y-22299119D01*
X272000000Y-24820395D01*
X274521276Y-22299119D01*
X274161088Y-21809452D01*
X273497118Y-21449151D01*
X272775615Y-21225306D01*
X272024305Y-21146520D01*
X271272062Y-21215822D01*
X270547792Y-21430548D01*
X269879330Y-21782445D01*
X269838912Y-21809452D01*
X269478724Y-22299119D01*
X227809509Y-22299119D01*
X227721475Y-22167368D01*
X227514632Y-21960525D01*
X227271411Y-21798010D01*
X227001158Y-21686068D01*
X226714260Y-21629000D01*
X226421740Y-21629000D01*
X226134842Y-21686068D01*
X225864589Y-21798010D01*
X225761635Y-21866802D01*
X225164198Y-21269366D01*
X225138341Y-21237859D01*
X225012642Y-21134701D01*
X224869234Y-21058047D01*
X224713626Y-21010844D01*
X224592353Y-20998900D01*
X224592350Y-20998900D01*
X224551800Y-20994906D01*
X224511250Y-20998900D01*
X213707150Y-20998900D01*
X213666600Y-20994906D01*
X213626049Y-20998900D01*
X213626047Y-20998900D01*
X213504774Y-21010844D01*
X213357236Y-21055599D01*
X213349166Y-21058047D01*
X213205757Y-21134701D01*
X213111558Y-21212008D01*
X213111557Y-21212009D01*
X213080059Y-21237859D01*
X213054211Y-21269355D01*
X211968552Y-22355015D01*
X211877834Y-22317439D01*
X211513656Y-22245000D01*
X211142344Y-22245000D01*
X210778166Y-22317439D01*
X210435118Y-22459534D01*
X210126382Y-22665825D01*
X209863825Y-22928382D01*
X209657534Y-23237118D01*
X209515439Y-23580166D01*
X209443000Y-23944344D01*
X209443000Y-24315656D01*
X209515439Y-24679834D01*
X209657534Y-25022882D01*
X209863825Y-25331618D01*
X210126382Y-25594175D01*
X210435118Y-25800466D01*
X210535500Y-25842046D01*
X210535501Y-33450500D01*
X197564550Y-33450500D01*
X197523999Y-33446506D01*
X197483449Y-33450500D01*
X197483447Y-33450500D01*
X197362174Y-33462444D01*
X197206566Y-33509647D01*
X197063157Y-33586301D01*
X197001596Y-33636823D01*
X196937459Y-33689459D01*
X196911607Y-33720960D01*
X189128761Y-41503807D01*
X189097260Y-41529659D01*
X189071409Y-41561159D01*
X188994101Y-41655358D01*
X188961191Y-41716928D01*
X187643000Y-41716928D01*
X187518518Y-41729188D01*
X187398820Y-41765498D01*
X187288506Y-41824463D01*
X187191815Y-41903815D01*
X187112463Y-42000506D01*
X187053498Y-42110820D01*
X187017188Y-42230518D01*
X187004928Y-42355000D01*
X187004928Y-44005000D01*
X187017188Y-44129482D01*
X187053498Y-44249180D01*
X187112463Y-44359494D01*
X187191815Y-44456185D01*
X187288506Y-44535537D01*
X187398820Y-44594502D01*
X187498506Y-44624742D01*
X187333944Y-44789304D01*
X187174165Y-45028431D01*
X187064107Y-45294134D01*
X187008000Y-45576203D01*
X187008000Y-45863797D01*
X187064107Y-46145866D01*
X187174165Y-46411569D01*
X187333944Y-46650696D01*
X187537304Y-46854056D01*
X187740759Y-46990000D01*
X187537304Y-47125944D01*
X187333944Y-47329304D01*
X187174165Y-47568431D01*
X187064107Y-47834134D01*
X187008000Y-48116203D01*
X187008000Y-48403797D01*
X187064107Y-48685866D01*
X187174165Y-48951569D01*
X187333944Y-49190696D01*
X187537304Y-49394056D01*
X187740759Y-49530000D01*
X187537304Y-49665944D01*
X187333944Y-49869304D01*
X187174165Y-50108431D01*
X187064107Y-50374134D01*
X187008000Y-50656203D01*
X187008000Y-50943797D01*
X187064107Y-51225866D01*
X187174165Y-51491569D01*
X187333944Y-51730696D01*
X187537304Y-51934056D01*
X187740759Y-52070000D01*
X187537304Y-52205944D01*
X187333944Y-52409304D01*
X187174165Y-52648431D01*
X187064107Y-52914134D01*
X187008000Y-53196203D01*
X187008000Y-53483797D01*
X187064107Y-53765866D01*
X187174165Y-54031569D01*
X187333944Y-54270696D01*
X187537304Y-54474056D01*
X187776431Y-54633835D01*
X188042134Y-54743893D01*
X188324203Y-54800000D01*
X188611797Y-54800000D01*
X188735885Y-54775317D01*
X194205607Y-60245040D01*
X194231459Y-60276541D01*
X194280782Y-60317019D01*
X194357157Y-60379699D01*
X194448457Y-60428500D01*
X194500566Y-60456353D01*
X194656174Y-60503556D01*
X194777447Y-60515500D01*
X194777449Y-60515500D01*
X194817999Y-60519494D01*
X194858550Y-60515500D01*
X195421722Y-60515500D01*
X195481363Y-60604759D01*
X195681241Y-60804637D01*
X195916273Y-60961680D01*
X196177426Y-61069853D01*
X196454665Y-61125000D01*
X196737335Y-61125000D01*
X197014574Y-61069853D01*
X197275727Y-60961680D01*
X197510759Y-60804637D01*
X197710637Y-60604759D01*
X197770278Y-60515500D01*
X202484350Y-60515500D01*
X202524900Y-60519494D01*
X202565450Y-60515500D01*
X202565453Y-60515500D01*
X202686726Y-60503556D01*
X202842334Y-60456353D01*
X202845427Y-60454700D01*
X202897139Y-60454700D01*
X202991301Y-60435970D01*
X203152481Y-60653414D01*
X203360869Y-60842385D01*
X203602119Y-60987070D01*
X203866960Y-61081909D01*
X204089000Y-60960624D01*
X204089000Y-59817000D01*
X204343000Y-59817000D01*
X204343000Y-60960624D01*
X204565040Y-61081909D01*
X204829881Y-60987070D01*
X205071131Y-60842385D01*
X205279519Y-60653414D01*
X205447037Y-60427420D01*
X205567246Y-60173087D01*
X205607904Y-60039039D01*
X205485915Y-59817000D01*
X204343000Y-59817000D01*
X204089000Y-59817000D01*
X204069000Y-59817000D01*
X204069000Y-59563000D01*
X204089000Y-59563000D01*
X204089000Y-58419376D01*
X204343000Y-58419376D01*
X204343000Y-59563000D01*
X205485915Y-59563000D01*
X205607904Y-59340961D01*
X205567246Y-59206913D01*
X205447037Y-58952580D01*
X205279519Y-58726586D01*
X205071131Y-58537615D01*
X204829881Y-58392930D01*
X204565040Y-58298091D01*
X204343000Y-58419376D01*
X204089000Y-58419376D01*
X203866960Y-58298091D01*
X203602119Y-58392930D01*
X203360869Y-58537615D01*
X203351174Y-58546406D01*
X203285456Y-58502495D01*
X203097098Y-58424474D01*
X202897139Y-58384700D01*
X202693261Y-58384700D01*
X202493302Y-58424474D01*
X202304944Y-58502495D01*
X202135426Y-58615763D01*
X201991263Y-58759926D01*
X201921389Y-58864500D01*
X197770278Y-58864500D01*
X197710637Y-58775241D01*
X197510759Y-58575363D01*
X197275727Y-58418320D01*
X197014574Y-58310147D01*
X196737335Y-58255000D01*
X196454665Y-58255000D01*
X196177426Y-58310147D01*
X195916273Y-58418320D01*
X195681241Y-58575363D01*
X195481363Y-58775241D01*
X195421722Y-58864500D01*
X195159933Y-58864500D01*
X192034098Y-55738665D01*
X195161000Y-55738665D01*
X195161000Y-56021335D01*
X195216147Y-56298574D01*
X195324320Y-56559727D01*
X195481363Y-56794759D01*
X195681241Y-56994637D01*
X195916273Y-57151680D01*
X196177426Y-57259853D01*
X196454665Y-57315000D01*
X196737335Y-57315000D01*
X197014574Y-57259853D01*
X197275727Y-57151680D01*
X197510759Y-56994637D01*
X197710637Y-56794759D01*
X197867680Y-56559727D01*
X197975853Y-56298574D01*
X197989684Y-56229039D01*
X202824096Y-56229039D01*
X202864754Y-56363087D01*
X202984963Y-56617420D01*
X203152481Y-56843414D01*
X203360869Y-57032385D01*
X203602119Y-57177070D01*
X203866960Y-57271909D01*
X204089000Y-57150624D01*
X204089000Y-56007000D01*
X202946085Y-56007000D01*
X202824096Y-56229039D01*
X197989684Y-56229039D01*
X198031000Y-56021335D01*
X198031000Y-55738665D01*
X197975853Y-55461426D01*
X197867680Y-55200273D01*
X197710637Y-54965241D01*
X197510759Y-54765363D01*
X197275727Y-54608320D01*
X197014574Y-54500147D01*
X196737335Y-54445000D01*
X196454665Y-54445000D01*
X196177426Y-54500147D01*
X195916273Y-54608320D01*
X195681241Y-54765363D01*
X195481363Y-54965241D01*
X195324320Y-55200273D01*
X195216147Y-55461426D01*
X195161000Y-55738665D01*
X192034098Y-55738665D01*
X189903317Y-53607885D01*
X189928000Y-53483797D01*
X189928000Y-53196203D01*
X189871893Y-52914134D01*
X189761835Y-52648431D01*
X189602056Y-52409304D01*
X189398696Y-52205944D01*
X189195241Y-52070000D01*
X189398696Y-51934056D01*
X189602056Y-51730696D01*
X189761835Y-51491569D01*
X189871893Y-51225866D01*
X189928000Y-50943797D01*
X189928000Y-50887433D01*
X191665611Y-52625045D01*
X191691459Y-52656541D01*
X191722955Y-52682389D01*
X191722958Y-52682392D01*
X191817157Y-52759699D01*
X191923422Y-52816499D01*
X191960566Y-52836353D01*
X192116174Y-52883556D01*
X192237447Y-52895500D01*
X192237449Y-52895500D01*
X192278000Y-52899494D01*
X192318550Y-52895500D01*
X195421722Y-52895500D01*
X195481363Y-52984759D01*
X195681241Y-53184637D01*
X195916273Y-53341680D01*
X196177426Y-53449853D01*
X196454665Y-53505000D01*
X196737335Y-53505000D01*
X197014574Y-53449853D01*
X197275727Y-53341680D01*
X197510759Y-53184637D01*
X197710637Y-52984759D01*
X197867680Y-52749727D01*
X197975853Y-52488574D01*
X198031000Y-52211335D01*
X198031000Y-51928665D01*
X197975853Y-51651426D01*
X197867680Y-51390273D01*
X197710637Y-51155241D01*
X197510759Y-50955363D01*
X197275727Y-50798320D01*
X197014574Y-50690147D01*
X196737335Y-50635000D01*
X196454665Y-50635000D01*
X196177426Y-50690147D01*
X195916273Y-50798320D01*
X195681241Y-50955363D01*
X195481363Y-51155241D01*
X195421722Y-51244500D01*
X192619934Y-51244500D01*
X189903317Y-48527885D01*
X189928000Y-48403797D01*
X189928000Y-48347433D01*
X190395606Y-48815039D01*
X190421459Y-48846541D01*
X190491033Y-48903639D01*
X190547156Y-48949698D01*
X190547158Y-48949699D01*
X190690566Y-49026353D01*
X190846174Y-49073556D01*
X190967447Y-49085500D01*
X190967456Y-49085500D01*
X191007999Y-49089493D01*
X191048542Y-49085500D01*
X195421722Y-49085500D01*
X195481363Y-49174759D01*
X195681241Y-49374637D01*
X195916273Y-49531680D01*
X196177426Y-49639853D01*
X196454665Y-49695000D01*
X196737335Y-49695000D01*
X197014574Y-49639853D01*
X197275727Y-49531680D01*
X197510759Y-49374637D01*
X197710637Y-49174759D01*
X197867680Y-48939727D01*
X197968820Y-48695553D01*
X203789202Y-54515936D01*
X203602119Y-54582930D01*
X203360869Y-54727615D01*
X203152481Y-54916586D01*
X202984963Y-55142580D01*
X202864754Y-55396913D01*
X202824096Y-55530961D01*
X202946085Y-55753000D01*
X204089000Y-55753000D01*
X204089000Y-55733000D01*
X204343000Y-55733000D01*
X204343000Y-55753000D01*
X204363000Y-55753000D01*
X204363000Y-56007000D01*
X204343000Y-56007000D01*
X204343000Y-57150624D01*
X204565040Y-57271909D01*
X204829881Y-57177070D01*
X205071131Y-57032385D01*
X205279519Y-56843414D01*
X205447037Y-56617420D01*
X205567246Y-56363087D01*
X205583329Y-56310063D01*
X206181100Y-56907834D01*
X206181101Y-68802068D01*
X205440047Y-68061015D01*
X205487680Y-67989727D01*
X205595853Y-67728574D01*
X205651000Y-67451335D01*
X205651000Y-67168665D01*
X205595853Y-66891426D01*
X205487680Y-66630273D01*
X205330637Y-66395241D01*
X205130759Y-66195363D01*
X204895727Y-66038320D01*
X204634574Y-65930147D01*
X204357335Y-65875000D01*
X204074665Y-65875000D01*
X203797426Y-65930147D01*
X203536273Y-66038320D01*
X203301241Y-66195363D01*
X203101363Y-66395241D01*
X202944320Y-66630273D01*
X202836147Y-66891426D01*
X202781000Y-67168665D01*
X202781000Y-67451335D01*
X202836147Y-67728574D01*
X202944320Y-67989727D01*
X203101363Y-68224759D01*
X203301241Y-68424637D01*
X203388279Y-68482794D01*
X203386506Y-68500800D01*
X203402444Y-68662626D01*
X203448680Y-68815046D01*
X198902698Y-64269066D01*
X198876841Y-64237559D01*
X198751142Y-64134401D01*
X198607734Y-64057747D01*
X198452126Y-64010544D01*
X198330853Y-63998600D01*
X198330850Y-63998600D01*
X198290300Y-63994606D01*
X198249750Y-63998600D01*
X197945279Y-63998600D01*
X197990853Y-63888574D01*
X198046000Y-63611335D01*
X198046000Y-63328665D01*
X197991663Y-63055500D01*
X201458268Y-63055500D01*
X202427811Y-64025045D01*
X202453659Y-64056541D01*
X202485155Y-64082389D01*
X202485158Y-64082392D01*
X202579357Y-64159699D01*
X202722766Y-64236353D01*
X202878374Y-64283556D01*
X202999647Y-64295500D01*
X202999649Y-64295500D01*
X203040200Y-64299494D01*
X203058206Y-64297721D01*
X203116363Y-64384759D01*
X203316241Y-64584637D01*
X203551273Y-64741680D01*
X203812426Y-64849853D01*
X204089665Y-64905000D01*
X204372335Y-64905000D01*
X204649574Y-64849853D01*
X204910727Y-64741680D01*
X205145759Y-64584637D01*
X205345637Y-64384759D01*
X205502680Y-64149727D01*
X205610853Y-63888574D01*
X205666000Y-63611335D01*
X205666000Y-63328665D01*
X205610853Y-63051426D01*
X205502680Y-62790273D01*
X205345637Y-62555241D01*
X205145759Y-62355363D01*
X204910727Y-62198320D01*
X204649574Y-62090147D01*
X204372335Y-62035000D01*
X204089665Y-62035000D01*
X203812426Y-62090147D01*
X203551273Y-62198320D01*
X203316241Y-62355363D01*
X203204619Y-62466985D01*
X202412598Y-61674966D01*
X202386741Y-61643459D01*
X202261042Y-61540301D01*
X202117634Y-61463647D01*
X201962026Y-61416444D01*
X201840753Y-61404500D01*
X201840750Y-61404500D01*
X201800200Y-61400506D01*
X201759650Y-61404500D01*
X189864175Y-61404500D01*
X189871893Y-61385866D01*
X189928000Y-61103797D01*
X189928000Y-60816203D01*
X189871893Y-60534134D01*
X189761835Y-60268431D01*
X189602056Y-60029304D01*
X189437494Y-59864742D01*
X189537180Y-59834502D01*
X189647494Y-59775537D01*
X189744185Y-59696185D01*
X189823537Y-59599494D01*
X189882502Y-59489180D01*
X189918812Y-59369482D01*
X189931072Y-59245000D01*
X189928000Y-58705750D01*
X189769250Y-58547000D01*
X188595000Y-58547000D01*
X188595000Y-58567000D01*
X188341000Y-58567000D01*
X188341000Y-58547000D01*
X187166750Y-58547000D01*
X187008000Y-58705750D01*
X187004928Y-59245000D01*
X187017188Y-59369482D01*
X187053498Y-59489180D01*
X187112463Y-59599494D01*
X187191815Y-59696185D01*
X187288506Y-59775537D01*
X187398820Y-59834502D01*
X187498506Y-59864742D01*
X187333944Y-60029304D01*
X187174165Y-60268431D01*
X187064107Y-60534134D01*
X187008000Y-60816203D01*
X187008000Y-61103797D01*
X187064107Y-61385866D01*
X187174165Y-61651569D01*
X187274634Y-61801933D01*
X186102066Y-62974502D01*
X186070559Y-63000359D01*
X186025307Y-63055500D01*
X185967401Y-63126058D01*
X185890748Y-63269466D01*
X185890747Y-63269467D01*
X185843544Y-63425075D01*
X185836165Y-63500000D01*
X185827606Y-63586900D01*
X185660000Y-63586900D01*
X185660000Y-57595000D01*
X187004928Y-57595000D01*
X187008000Y-58134250D01*
X187166750Y-58293000D01*
X188341000Y-58293000D01*
X188341000Y-57118750D01*
X188595000Y-57118750D01*
X188595000Y-58293000D01*
X189769250Y-58293000D01*
X189928000Y-58134250D01*
X189931072Y-57595000D01*
X189918812Y-57470518D01*
X189882502Y-57350820D01*
X189823537Y-57240506D01*
X189744185Y-57143815D01*
X189647494Y-57064463D01*
X189537180Y-57005498D01*
X189417482Y-56969188D01*
X189293000Y-56956928D01*
X188753750Y-56960000D01*
X188595000Y-57118750D01*
X188341000Y-57118750D01*
X188182250Y-56960000D01*
X187643000Y-56956928D01*
X187518518Y-56969188D01*
X187398820Y-57005498D01*
X187288506Y-57064463D01*
X187191815Y-57143815D01*
X187112463Y-57240506D01*
X187053498Y-57350820D01*
X187017188Y-57470518D01*
X187004928Y-57595000D01*
X185660000Y-57595000D01*
X185660000Y-27700881D01*
X187478724Y-27700881D01*
X187838912Y-28190548D01*
X188502882Y-28550849D01*
X189224385Y-28774694D01*
X189975695Y-28853480D01*
X190727938Y-28784178D01*
X191452208Y-28569452D01*
X192120670Y-28217555D01*
X192161088Y-28190548D01*
X192521276Y-27700881D01*
X190000000Y-25179605D01*
X187478724Y-27700881D01*
X185660000Y-27700881D01*
X185660000Y-25029392D01*
X185664792Y-24975695D01*
X186146520Y-24975695D01*
X186215822Y-25727938D01*
X186430548Y-26452208D01*
X186782445Y-27120670D01*
X186809452Y-27161088D01*
X187299119Y-27521276D01*
X189820395Y-25000000D01*
X190179605Y-25000000D01*
X192700881Y-27521276D01*
X193190548Y-27161088D01*
X193550849Y-26497118D01*
X193774694Y-25775615D01*
X193809510Y-25443605D01*
X205194000Y-25443605D01*
X205319914Y-25733577D01*
X205652126Y-25899433D01*
X206010312Y-25997290D01*
X206380706Y-26023389D01*
X206749075Y-25976725D01*
X207101262Y-25859094D01*
X207336086Y-25733577D01*
X207462000Y-25443605D01*
X206328000Y-24309605D01*
X205194000Y-25443605D01*
X193809510Y-25443605D01*
X193853480Y-25024305D01*
X193784178Y-24272062D01*
X193757687Y-24182706D01*
X204434611Y-24182706D01*
X204481275Y-24551075D01*
X204598906Y-24903262D01*
X204724423Y-25138086D01*
X205014395Y-25264000D01*
X206148395Y-24130000D01*
X206507605Y-24130000D01*
X207641605Y-25264000D01*
X207931577Y-25138086D01*
X208097433Y-24805874D01*
X208195290Y-24447688D01*
X208221389Y-24077294D01*
X208174725Y-23708925D01*
X208057094Y-23356738D01*
X207931577Y-23121914D01*
X207641605Y-22996000D01*
X206507605Y-24130000D01*
X206148395Y-24130000D01*
X205014395Y-22996000D01*
X204724423Y-23121914D01*
X204558567Y-23454126D01*
X204460710Y-23812312D01*
X204434611Y-24182706D01*
X193757687Y-24182706D01*
X193569452Y-23547792D01*
X193217555Y-22879330D01*
X193190548Y-22838912D01*
X193159937Y-22816395D01*
X205194000Y-22816395D01*
X206328000Y-23950395D01*
X207462000Y-22816395D01*
X207336086Y-22526423D01*
X207003874Y-22360567D01*
X206645688Y-22262710D01*
X206275294Y-22236611D01*
X205906925Y-22283275D01*
X205554738Y-22400906D01*
X205319914Y-22526423D01*
X205194000Y-22816395D01*
X193159937Y-22816395D01*
X192700881Y-22478724D01*
X190179605Y-25000000D01*
X189820395Y-25000000D01*
X187299119Y-22478724D01*
X186809452Y-22838912D01*
X186449151Y-23502882D01*
X186225306Y-24224385D01*
X186146520Y-24975695D01*
X185664792Y-24975695D01*
X185731173Y-24231917D01*
X185934656Y-23488109D01*
X186266638Y-22792095D01*
X186620876Y-22299119D01*
X187478724Y-22299119D01*
X190000000Y-24820395D01*
X192521276Y-22299119D01*
X192161088Y-21809452D01*
X191497118Y-21449151D01*
X190775615Y-21225306D01*
X190024305Y-21146520D01*
X189272062Y-21215822D01*
X188547792Y-21430548D01*
X187879330Y-21782445D01*
X187838912Y-21809452D01*
X187478724Y-22299119D01*
X186620876Y-22299119D01*
X186716626Y-22165870D01*
X187270403Y-21629223D01*
X187910451Y-21199129D01*
X188616553Y-20889171D01*
X189371457Y-20707935D01*
X190024207Y-20660000D01*
X271970608Y-20660000D01*
X272768083Y-20731173D01*
G37*
G04 #@! TD.AperFunction*
D32*
X248285000Y-111333000D02*
X248305000Y-111333000D01*
X248305000Y-111587000D01*
X248285000Y-111587000D01*
X248285000Y-111607000D01*
X248031000Y-111607000D01*
X248031000Y-111587000D01*
X248011000Y-111587000D01*
X248011000Y-111333000D01*
X248031000Y-111333000D01*
X248031000Y-111313000D01*
X248285000Y-111313000D01*
X248285000Y-111333000D01*
G04 #@! TA.AperFunction,Conductor*
D33*
G36*
X248285000Y-111333000D02*
G01*
X248305000Y-111333000D01*
X248305000Y-111587000D01*
X248285000Y-111587000D01*
X248285000Y-111607000D01*
X248031000Y-111607000D01*
X248031000Y-111587000D01*
X248011000Y-111587000D01*
X248011000Y-111333000D01*
X248031000Y-111333000D01*
X248031000Y-111313000D01*
X248285000Y-111313000D01*
X248285000Y-111333000D01*
G37*
G04 #@! TD.AperFunction*
D32*
X217463000Y-22828250D02*
X217621750Y-22987000D01*
X218821000Y-22987000D01*
X218821000Y-22967000D01*
X219075000Y-22967000D01*
X219075000Y-22987000D01*
X219095000Y-22987000D01*
X219095000Y-23241000D01*
X219075000Y-23241000D01*
X219075000Y-24440250D01*
X219233750Y-24599000D01*
X219798000Y-24602072D01*
X219922482Y-24589812D01*
X220042180Y-24553502D01*
X220152494Y-24494537D01*
X220249185Y-24415185D01*
X220328537Y-24318494D01*
X220387502Y-24208180D01*
X220409513Y-24135620D01*
X220541368Y-24267475D01*
X220784589Y-24429990D01*
X221054842Y-24541932D01*
X221341740Y-24599000D01*
X221634260Y-24599000D01*
X221921158Y-24541932D01*
X222191411Y-24429990D01*
X222434632Y-24267475D01*
X222641475Y-24060632D01*
X222758000Y-23886240D01*
X222874525Y-24060632D01*
X223081368Y-24267475D01*
X223202501Y-24348413D01*
X223202500Y-56767367D01*
X220037300Y-59932567D01*
X220037300Y-52167350D01*
X220041294Y-52126799D01*
X220033352Y-52046165D01*
X220025356Y-51964974D01*
X219978153Y-51809366D01*
X219901499Y-51665957D01*
X219824191Y-51571758D01*
X219798341Y-51540259D01*
X219766839Y-51514407D01*
X217049650Y-48797218D01*
X217077561Y-48729834D01*
X217150000Y-48365656D01*
X217150000Y-47994344D01*
X217077561Y-47630166D01*
X216935466Y-47287118D01*
X216729175Y-46978382D01*
X216466618Y-46715825D01*
X216157882Y-46509534D01*
X215814834Y-46367439D01*
X215450656Y-46295000D01*
X215079344Y-46295000D01*
X214715166Y-46367439D01*
X214372118Y-46509534D01*
X214063382Y-46715825D01*
X213800825Y-46978382D01*
X213594534Y-47287118D01*
X213452439Y-47630166D01*
X213380000Y-47994344D01*
X213380000Y-48365656D01*
X213452439Y-48729834D01*
X213594534Y-49072882D01*
X213800825Y-49381618D01*
X214063382Y-49644175D01*
X214372118Y-49850466D01*
X214715166Y-49992561D01*
X215079344Y-50065000D01*
X215450656Y-50065000D01*
X215814834Y-49992561D01*
X215882218Y-49964650D01*
X218386301Y-52468734D01*
X218386300Y-56884585D01*
X218375429Y-56879296D01*
X218063892Y-56797616D01*
X217742405Y-56778282D01*
X217423325Y-56822039D01*
X217118912Y-56927205D01*
X216944956Y-57020186D01*
X216849192Y-57284587D01*
X217805000Y-58240395D01*
X217819143Y-58226253D01*
X217998748Y-58405858D01*
X217984605Y-58420000D01*
X217998748Y-58434143D01*
X217819143Y-58613748D01*
X217805000Y-58599605D01*
X216849192Y-59555413D01*
X216944956Y-59819814D01*
X217234571Y-59960704D01*
X217546108Y-60042384D01*
X217867595Y-60061718D01*
X218186675Y-60017961D01*
X218386300Y-59948996D01*
X218386300Y-60086566D01*
X207832100Y-70640768D01*
X207832100Y-57420000D01*
X211166928Y-57420000D01*
X211166928Y-59420000D01*
X211179188Y-59544482D01*
X211215498Y-59664180D01*
X211274463Y-59774494D01*
X211353815Y-59871185D01*
X211450506Y-59950537D01*
X211560820Y-60009502D01*
X211680518Y-60045812D01*
X211805000Y-60058072D01*
X213805000Y-60058072D01*
X213929482Y-60045812D01*
X214049180Y-60009502D01*
X214159494Y-59950537D01*
X214256185Y-59871185D01*
X214335537Y-59774494D01*
X214394502Y-59664180D01*
X214430812Y-59544482D01*
X214443072Y-59420000D01*
X214443072Y-58482595D01*
X216163282Y-58482595D01*
X216207039Y-58801675D01*
X216312205Y-59106088D01*
X216405186Y-59280044D01*
X216669587Y-59375808D01*
X217625395Y-58420000D01*
X216669587Y-57464192D01*
X216405186Y-57559956D01*
X216264296Y-57849571D01*
X216182616Y-58161108D01*
X216163282Y-58482595D01*
X214443072Y-58482595D01*
X214443072Y-57420000D01*
X214430812Y-57295518D01*
X214394502Y-57175820D01*
X214335537Y-57065506D01*
X214256185Y-56968815D01*
X214159494Y-56889463D01*
X214049180Y-56830498D01*
X213929482Y-56794188D01*
X213805000Y-56781928D01*
X211805000Y-56781928D01*
X211680518Y-56794188D01*
X211560820Y-56830498D01*
X211450506Y-56889463D01*
X211353815Y-56968815D01*
X211274463Y-57065506D01*
X211215498Y-57175820D01*
X211179188Y-57295518D01*
X211166928Y-57420000D01*
X207832100Y-57420000D01*
X207832100Y-56606450D01*
X207836094Y-56565900D01*
X207829299Y-56496909D01*
X207820156Y-56404074D01*
X207772953Y-56248466D01*
X207696300Y-56105059D01*
X207696299Y-56105057D01*
X207618992Y-56010858D01*
X207618989Y-56010855D01*
X207593141Y-55979359D01*
X207561646Y-55953512D01*
X204920723Y-53312589D01*
X205071131Y-53222385D01*
X205279519Y-53033414D01*
X205447037Y-52807420D01*
X205567246Y-52553087D01*
X205607904Y-52419039D01*
X205485915Y-52197000D01*
X204343000Y-52197000D01*
X204343000Y-52217000D01*
X204089000Y-52217000D01*
X204089000Y-52197000D01*
X204069000Y-52197000D01*
X204069000Y-51943000D01*
X204089000Y-51943000D01*
X204089000Y-50799376D01*
X204343000Y-50799376D01*
X204343000Y-51943000D01*
X205485915Y-51943000D01*
X205607904Y-51720961D01*
X205567246Y-51586913D01*
X205447037Y-51332580D01*
X205279519Y-51106586D01*
X205071131Y-50917615D01*
X204829881Y-50772930D01*
X204565040Y-50678091D01*
X204343000Y-50799376D01*
X204089000Y-50799376D01*
X203866960Y-50678091D01*
X203602119Y-50772930D01*
X203360869Y-50917615D01*
X203152481Y-51106586D01*
X202984963Y-51332580D01*
X202970761Y-51362628D01*
X200217172Y-48609039D01*
X202824096Y-48609039D01*
X202864754Y-48743087D01*
X202984963Y-48997420D01*
X203152481Y-49223414D01*
X203360869Y-49412385D01*
X203602119Y-49557070D01*
X203866960Y-49651909D01*
X204089000Y-49530624D01*
X204089000Y-48387000D01*
X204343000Y-48387000D01*
X204343000Y-49530624D01*
X204565040Y-49651909D01*
X204829881Y-49557070D01*
X205071131Y-49412385D01*
X205279519Y-49223414D01*
X205447037Y-48997420D01*
X205567246Y-48743087D01*
X205607904Y-48609039D01*
X205485915Y-48387000D01*
X204343000Y-48387000D01*
X204089000Y-48387000D01*
X202946085Y-48387000D01*
X202824096Y-48609039D01*
X200217172Y-48609039D01*
X199519094Y-47910961D01*
X202824096Y-47910961D01*
X202946085Y-48133000D01*
X204089000Y-48133000D01*
X204089000Y-46989376D01*
X204343000Y-46989376D01*
X204343000Y-48133000D01*
X205485915Y-48133000D01*
X205607904Y-47910961D01*
X205567246Y-47776913D01*
X205447037Y-47522580D01*
X205279519Y-47296586D01*
X205071131Y-47107615D01*
X204829881Y-46962930D01*
X204565040Y-46868091D01*
X204343000Y-46989376D01*
X204089000Y-46989376D01*
X203866960Y-46868091D01*
X203602119Y-46962930D01*
X203360869Y-47107615D01*
X203152481Y-47296586D01*
X202984963Y-47522580D01*
X202864754Y-47776913D01*
X202824096Y-47910961D01*
X199519094Y-47910961D01*
X197225500Y-45617368D01*
X197225500Y-44493605D01*
X214131000Y-44493605D01*
X214256914Y-44783577D01*
X214589126Y-44949433D01*
X214947312Y-45047290D01*
X215317706Y-45073389D01*
X215686075Y-45026725D01*
X216038262Y-44909094D01*
X216273086Y-44783577D01*
X216399000Y-44493605D01*
X215265000Y-43359605D01*
X214131000Y-44493605D01*
X197225500Y-44493605D01*
X197225500Y-43232706D01*
X213371611Y-43232706D01*
X213418275Y-43601075D01*
X213535906Y-43953262D01*
X213661423Y-44188086D01*
X213951395Y-44314000D01*
X215085395Y-43180000D01*
X215444605Y-43180000D01*
X216578605Y-44314000D01*
X216868577Y-44188086D01*
X217034433Y-43855874D01*
X217132290Y-43497688D01*
X217158389Y-43127294D01*
X217111725Y-42758925D01*
X216994094Y-42406738D01*
X216868577Y-42171914D01*
X216578605Y-42046000D01*
X215444605Y-43180000D01*
X215085395Y-43180000D01*
X213951395Y-42046000D01*
X213661423Y-42171914D01*
X213495567Y-42504126D01*
X213397710Y-42862312D01*
X213371611Y-43232706D01*
X197225500Y-43232706D01*
X197225500Y-41866395D01*
X214131000Y-41866395D01*
X215265000Y-43000395D01*
X216399000Y-41866395D01*
X216273086Y-41576423D01*
X215940874Y-41410567D01*
X215582688Y-41312710D01*
X215212294Y-41286611D01*
X214843925Y-41333275D01*
X214491738Y-41450906D01*
X214256914Y-41576423D01*
X214131000Y-41866395D01*
X197225500Y-41866395D01*
X197225500Y-39638072D01*
X197400000Y-39638072D01*
X197524482Y-39625812D01*
X197644180Y-39589502D01*
X197754494Y-39530537D01*
X197851185Y-39451185D01*
X197930537Y-39354494D01*
X197989502Y-39244180D01*
X198022496Y-39135413D01*
X203044192Y-39135413D01*
X203139956Y-39399814D01*
X203429571Y-39540704D01*
X203741108Y-39622384D01*
X204062595Y-39641718D01*
X204381675Y-39597961D01*
X204686088Y-39492795D01*
X204860044Y-39399814D01*
X204955808Y-39135413D01*
X204000000Y-38179605D01*
X203044192Y-39135413D01*
X198022496Y-39135413D01*
X198025812Y-39124482D01*
X198038072Y-39000000D01*
X198038072Y-38062595D01*
X202358282Y-38062595D01*
X202402039Y-38381675D01*
X202507205Y-38686088D01*
X202600186Y-38860044D01*
X202864587Y-38955808D01*
X203820395Y-38000000D01*
X204179605Y-38000000D01*
X205135413Y-38955808D01*
X205399814Y-38860044D01*
X205540704Y-38570429D01*
X205622384Y-38258892D01*
X205641718Y-37937405D01*
X205597961Y-37618325D01*
X205492795Y-37313912D01*
X205399814Y-37139956D01*
X205135413Y-37044192D01*
X204179605Y-38000000D01*
X203820395Y-38000000D01*
X202864587Y-37044192D01*
X202600186Y-37139956D01*
X202459296Y-37429571D01*
X202377616Y-37741108D01*
X202358282Y-38062595D01*
X198038072Y-38062595D01*
X198038072Y-37000000D01*
X198025812Y-36875518D01*
X198022497Y-36864587D01*
X203044192Y-36864587D01*
X204000000Y-37820395D01*
X204955808Y-36864587D01*
X204860044Y-36600186D01*
X204570429Y-36459296D01*
X204258892Y-36377616D01*
X203937405Y-36358282D01*
X203618325Y-36402039D01*
X203313912Y-36507205D01*
X203139956Y-36600186D01*
X203044192Y-36864587D01*
X198022497Y-36864587D01*
X197989502Y-36755820D01*
X197930537Y-36645506D01*
X197851185Y-36548815D01*
X197754494Y-36469463D01*
X197644180Y-36410498D01*
X197524482Y-36374188D01*
X197400000Y-36361928D01*
X196605505Y-36361928D01*
X197865933Y-35101500D01*
X211019068Y-35101500D01*
X213480350Y-37562783D01*
X213452439Y-37630166D01*
X213380000Y-37994344D01*
X213380000Y-38365656D01*
X213452439Y-38729834D01*
X213594534Y-39072882D01*
X213800825Y-39381618D01*
X214063382Y-39644175D01*
X214372118Y-39850466D01*
X214715166Y-39992561D01*
X215079344Y-40065000D01*
X215450656Y-40065000D01*
X215814834Y-39992561D01*
X216157882Y-39850466D01*
X216466618Y-39644175D01*
X216729175Y-39381618D01*
X216935466Y-39072882D01*
X217077561Y-38729834D01*
X217150000Y-38365656D01*
X217150000Y-37994344D01*
X217077561Y-37630166D01*
X216935466Y-37287118D01*
X216729175Y-36978382D01*
X216466618Y-36715825D01*
X216157882Y-36509534D01*
X215814834Y-36367439D01*
X215450656Y-36295000D01*
X215079344Y-36295000D01*
X214715166Y-36367439D01*
X214647783Y-36395350D01*
X212186500Y-33934068D01*
X212186500Y-25814707D01*
X212220882Y-25800466D01*
X212529618Y-25594175D01*
X212792175Y-25331618D01*
X212998466Y-25022882D01*
X213140561Y-24679834D01*
X213213000Y-24315656D01*
X213213000Y-23964000D01*
X217459928Y-23964000D01*
X217472188Y-24088482D01*
X217508498Y-24208180D01*
X217567463Y-24318494D01*
X217646815Y-24415185D01*
X217743506Y-24494537D01*
X217853820Y-24553502D01*
X217973518Y-24589812D01*
X218098000Y-24602072D01*
X218662250Y-24599000D01*
X218821000Y-24440250D01*
X218821000Y-23241000D01*
X217621750Y-23241000D01*
X217463000Y-23399750D01*
X217459928Y-23964000D01*
X213213000Y-23964000D01*
X213213000Y-23944344D01*
X213140561Y-23580166D01*
X213122316Y-23536117D01*
X214008534Y-22649900D01*
X217462029Y-22649900D01*
X217463000Y-22828250D01*
G04 #@! TA.AperFunction,Conductor*
D33*
G36*
X217463000Y-22828250D02*
G01*
X217621750Y-22987000D01*
X218821000Y-22987000D01*
X218821000Y-22967000D01*
X219075000Y-22967000D01*
X219075000Y-22987000D01*
X219095000Y-22987000D01*
X219095000Y-23241000D01*
X219075000Y-23241000D01*
X219075000Y-24440250D01*
X219233750Y-24599000D01*
X219798000Y-24602072D01*
X219922482Y-24589812D01*
X220042180Y-24553502D01*
X220152494Y-24494537D01*
X220249185Y-24415185D01*
X220328537Y-24318494D01*
X220387502Y-24208180D01*
X220409513Y-24135620D01*
X220541368Y-24267475D01*
X220784589Y-24429990D01*
X221054842Y-24541932D01*
X221341740Y-24599000D01*
X221634260Y-24599000D01*
X221921158Y-24541932D01*
X222191411Y-24429990D01*
X222434632Y-24267475D01*
X222641475Y-24060632D01*
X222758000Y-23886240D01*
X222874525Y-24060632D01*
X223081368Y-24267475D01*
X223202501Y-24348413D01*
X223202500Y-56767367D01*
X220037300Y-59932567D01*
X220037300Y-52167350D01*
X220041294Y-52126799D01*
X220033352Y-52046165D01*
X220025356Y-51964974D01*
X219978153Y-51809366D01*
X219901499Y-51665957D01*
X219824191Y-51571758D01*
X219798341Y-51540259D01*
X219766839Y-51514407D01*
X217049650Y-48797218D01*
X217077561Y-48729834D01*
X217150000Y-48365656D01*
X217150000Y-47994344D01*
X217077561Y-47630166D01*
X216935466Y-47287118D01*
X216729175Y-46978382D01*
X216466618Y-46715825D01*
X216157882Y-46509534D01*
X215814834Y-46367439D01*
X215450656Y-46295000D01*
X215079344Y-46295000D01*
X214715166Y-46367439D01*
X214372118Y-46509534D01*
X214063382Y-46715825D01*
X213800825Y-46978382D01*
X213594534Y-47287118D01*
X213452439Y-47630166D01*
X213380000Y-47994344D01*
X213380000Y-48365656D01*
X213452439Y-48729834D01*
X213594534Y-49072882D01*
X213800825Y-49381618D01*
X214063382Y-49644175D01*
X214372118Y-49850466D01*
X214715166Y-49992561D01*
X215079344Y-50065000D01*
X215450656Y-50065000D01*
X215814834Y-49992561D01*
X215882218Y-49964650D01*
X218386301Y-52468734D01*
X218386300Y-56884585D01*
X218375429Y-56879296D01*
X218063892Y-56797616D01*
X217742405Y-56778282D01*
X217423325Y-56822039D01*
X217118912Y-56927205D01*
X216944956Y-57020186D01*
X216849192Y-57284587D01*
X217805000Y-58240395D01*
X217819143Y-58226253D01*
X217998748Y-58405858D01*
X217984605Y-58420000D01*
X217998748Y-58434143D01*
X217819143Y-58613748D01*
X217805000Y-58599605D01*
X216849192Y-59555413D01*
X216944956Y-59819814D01*
X217234571Y-59960704D01*
X217546108Y-60042384D01*
X217867595Y-60061718D01*
X218186675Y-60017961D01*
X218386300Y-59948996D01*
X218386300Y-60086566D01*
X207832100Y-70640768D01*
X207832100Y-57420000D01*
X211166928Y-57420000D01*
X211166928Y-59420000D01*
X211179188Y-59544482D01*
X211215498Y-59664180D01*
X211274463Y-59774494D01*
X211353815Y-59871185D01*
X211450506Y-59950537D01*
X211560820Y-60009502D01*
X211680518Y-60045812D01*
X211805000Y-60058072D01*
X213805000Y-60058072D01*
X213929482Y-60045812D01*
X214049180Y-60009502D01*
X214159494Y-59950537D01*
X214256185Y-59871185D01*
X214335537Y-59774494D01*
X214394502Y-59664180D01*
X214430812Y-59544482D01*
X214443072Y-59420000D01*
X214443072Y-58482595D01*
X216163282Y-58482595D01*
X216207039Y-58801675D01*
X216312205Y-59106088D01*
X216405186Y-59280044D01*
X216669587Y-59375808D01*
X217625395Y-58420000D01*
X216669587Y-57464192D01*
X216405186Y-57559956D01*
X216264296Y-57849571D01*
X216182616Y-58161108D01*
X216163282Y-58482595D01*
X214443072Y-58482595D01*
X214443072Y-57420000D01*
X214430812Y-57295518D01*
X214394502Y-57175820D01*
X214335537Y-57065506D01*
X214256185Y-56968815D01*
X214159494Y-56889463D01*
X214049180Y-56830498D01*
X213929482Y-56794188D01*
X213805000Y-56781928D01*
X211805000Y-56781928D01*
X211680518Y-56794188D01*
X211560820Y-56830498D01*
X211450506Y-56889463D01*
X211353815Y-56968815D01*
X211274463Y-57065506D01*
X211215498Y-57175820D01*
X211179188Y-57295518D01*
X211166928Y-57420000D01*
X207832100Y-57420000D01*
X207832100Y-56606450D01*
X207836094Y-56565900D01*
X207829299Y-56496909D01*
X207820156Y-56404074D01*
X207772953Y-56248466D01*
X207696300Y-56105059D01*
X207696299Y-56105057D01*
X207618992Y-56010858D01*
X207618989Y-56010855D01*
X207593141Y-55979359D01*
X207561646Y-55953512D01*
X204920723Y-53312589D01*
X205071131Y-53222385D01*
X205279519Y-53033414D01*
X205447037Y-52807420D01*
X205567246Y-52553087D01*
X205607904Y-52419039D01*
X205485915Y-52197000D01*
X204343000Y-52197000D01*
X204343000Y-52217000D01*
X204089000Y-52217000D01*
X204089000Y-52197000D01*
X204069000Y-52197000D01*
X204069000Y-51943000D01*
X204089000Y-51943000D01*
X204089000Y-50799376D01*
X204343000Y-50799376D01*
X204343000Y-51943000D01*
X205485915Y-51943000D01*
X205607904Y-51720961D01*
X205567246Y-51586913D01*
X205447037Y-51332580D01*
X205279519Y-51106586D01*
X205071131Y-50917615D01*
X204829881Y-50772930D01*
X204565040Y-50678091D01*
X204343000Y-50799376D01*
X204089000Y-50799376D01*
X203866960Y-50678091D01*
X203602119Y-50772930D01*
X203360869Y-50917615D01*
X203152481Y-51106586D01*
X202984963Y-51332580D01*
X202970761Y-51362628D01*
X200217172Y-48609039D01*
X202824096Y-48609039D01*
X202864754Y-48743087D01*
X202984963Y-48997420D01*
X203152481Y-49223414D01*
X203360869Y-49412385D01*
X203602119Y-49557070D01*
X203866960Y-49651909D01*
X204089000Y-49530624D01*
X204089000Y-48387000D01*
X204343000Y-48387000D01*
X204343000Y-49530624D01*
X204565040Y-49651909D01*
X204829881Y-49557070D01*
X205071131Y-49412385D01*
X205279519Y-49223414D01*
X205447037Y-48997420D01*
X205567246Y-48743087D01*
X205607904Y-48609039D01*
X205485915Y-48387000D01*
X204343000Y-48387000D01*
X204089000Y-48387000D01*
X202946085Y-48387000D01*
X202824096Y-48609039D01*
X200217172Y-48609039D01*
X199519094Y-47910961D01*
X202824096Y-47910961D01*
X202946085Y-48133000D01*
X204089000Y-48133000D01*
X204089000Y-46989376D01*
X204343000Y-46989376D01*
X204343000Y-48133000D01*
X205485915Y-48133000D01*
X205607904Y-47910961D01*
X205567246Y-47776913D01*
X205447037Y-47522580D01*
X205279519Y-47296586D01*
X205071131Y-47107615D01*
X204829881Y-46962930D01*
X204565040Y-46868091D01*
X204343000Y-46989376D01*
X204089000Y-46989376D01*
X203866960Y-46868091D01*
X203602119Y-46962930D01*
X203360869Y-47107615D01*
X203152481Y-47296586D01*
X202984963Y-47522580D01*
X202864754Y-47776913D01*
X202824096Y-47910961D01*
X199519094Y-47910961D01*
X197225500Y-45617368D01*
X197225500Y-44493605D01*
X214131000Y-44493605D01*
X214256914Y-44783577D01*
X214589126Y-44949433D01*
X214947312Y-45047290D01*
X215317706Y-45073389D01*
X215686075Y-45026725D01*
X216038262Y-44909094D01*
X216273086Y-44783577D01*
X216399000Y-44493605D01*
X215265000Y-43359605D01*
X214131000Y-44493605D01*
X197225500Y-44493605D01*
X197225500Y-43232706D01*
X213371611Y-43232706D01*
X213418275Y-43601075D01*
X213535906Y-43953262D01*
X213661423Y-44188086D01*
X213951395Y-44314000D01*
X215085395Y-43180000D01*
X215444605Y-43180000D01*
X216578605Y-44314000D01*
X216868577Y-44188086D01*
X217034433Y-43855874D01*
X217132290Y-43497688D01*
X217158389Y-43127294D01*
X217111725Y-42758925D01*
X216994094Y-42406738D01*
X216868577Y-42171914D01*
X216578605Y-42046000D01*
X215444605Y-43180000D01*
X215085395Y-43180000D01*
X213951395Y-42046000D01*
X213661423Y-42171914D01*
X213495567Y-42504126D01*
X213397710Y-42862312D01*
X213371611Y-43232706D01*
X197225500Y-43232706D01*
X197225500Y-41866395D01*
X214131000Y-41866395D01*
X215265000Y-43000395D01*
X216399000Y-41866395D01*
X216273086Y-41576423D01*
X215940874Y-41410567D01*
X215582688Y-41312710D01*
X215212294Y-41286611D01*
X214843925Y-41333275D01*
X214491738Y-41450906D01*
X214256914Y-41576423D01*
X214131000Y-41866395D01*
X197225500Y-41866395D01*
X197225500Y-39638072D01*
X197400000Y-39638072D01*
X197524482Y-39625812D01*
X197644180Y-39589502D01*
X197754494Y-39530537D01*
X197851185Y-39451185D01*
X197930537Y-39354494D01*
X197989502Y-39244180D01*
X198022496Y-39135413D01*
X203044192Y-39135413D01*
X203139956Y-39399814D01*
X203429571Y-39540704D01*
X203741108Y-39622384D01*
X204062595Y-39641718D01*
X204381675Y-39597961D01*
X204686088Y-39492795D01*
X204860044Y-39399814D01*
X204955808Y-39135413D01*
X204000000Y-38179605D01*
X203044192Y-39135413D01*
X198022496Y-39135413D01*
X198025812Y-39124482D01*
X198038072Y-39000000D01*
X198038072Y-38062595D01*
X202358282Y-38062595D01*
X202402039Y-38381675D01*
X202507205Y-38686088D01*
X202600186Y-38860044D01*
X202864587Y-38955808D01*
X203820395Y-38000000D01*
X204179605Y-38000000D01*
X205135413Y-38955808D01*
X205399814Y-38860044D01*
X205540704Y-38570429D01*
X205622384Y-38258892D01*
X205641718Y-37937405D01*
X205597961Y-37618325D01*
X205492795Y-37313912D01*
X205399814Y-37139956D01*
X205135413Y-37044192D01*
X204179605Y-38000000D01*
X203820395Y-38000000D01*
X202864587Y-37044192D01*
X202600186Y-37139956D01*
X202459296Y-37429571D01*
X202377616Y-37741108D01*
X202358282Y-38062595D01*
X198038072Y-38062595D01*
X198038072Y-37000000D01*
X198025812Y-36875518D01*
X198022497Y-36864587D01*
X203044192Y-36864587D01*
X204000000Y-37820395D01*
X204955808Y-36864587D01*
X204860044Y-36600186D01*
X204570429Y-36459296D01*
X204258892Y-36377616D01*
X203937405Y-36358282D01*
X203618325Y-36402039D01*
X203313912Y-36507205D01*
X203139956Y-36600186D01*
X203044192Y-36864587D01*
X198022497Y-36864587D01*
X197989502Y-36755820D01*
X197930537Y-36645506D01*
X197851185Y-36548815D01*
X197754494Y-36469463D01*
X197644180Y-36410498D01*
X197524482Y-36374188D01*
X197400000Y-36361928D01*
X196605505Y-36361928D01*
X197865933Y-35101500D01*
X211019068Y-35101500D01*
X213480350Y-37562783D01*
X213452439Y-37630166D01*
X213380000Y-37994344D01*
X213380000Y-38365656D01*
X213452439Y-38729834D01*
X213594534Y-39072882D01*
X213800825Y-39381618D01*
X214063382Y-39644175D01*
X214372118Y-39850466D01*
X214715166Y-39992561D01*
X215079344Y-40065000D01*
X215450656Y-40065000D01*
X215814834Y-39992561D01*
X216157882Y-39850466D01*
X216466618Y-39644175D01*
X216729175Y-39381618D01*
X216935466Y-39072882D01*
X217077561Y-38729834D01*
X217150000Y-38365656D01*
X217150000Y-37994344D01*
X217077561Y-37630166D01*
X216935466Y-37287118D01*
X216729175Y-36978382D01*
X216466618Y-36715825D01*
X216157882Y-36509534D01*
X215814834Y-36367439D01*
X215450656Y-36295000D01*
X215079344Y-36295000D01*
X214715166Y-36367439D01*
X214647783Y-36395350D01*
X212186500Y-33934068D01*
X212186500Y-25814707D01*
X212220882Y-25800466D01*
X212529618Y-25594175D01*
X212792175Y-25331618D01*
X212998466Y-25022882D01*
X213140561Y-24679834D01*
X213213000Y-24315656D01*
X213213000Y-23964000D01*
X217459928Y-23964000D01*
X217472188Y-24088482D01*
X217508498Y-24208180D01*
X217567463Y-24318494D01*
X217646815Y-24415185D01*
X217743506Y-24494537D01*
X217853820Y-24553502D01*
X217973518Y-24589812D01*
X218098000Y-24602072D01*
X218662250Y-24599000D01*
X218821000Y-24440250D01*
X218821000Y-23241000D01*
X217621750Y-23241000D01*
X217463000Y-23399750D01*
X217459928Y-23964000D01*
X213213000Y-23964000D01*
X213213000Y-23944344D01*
X213140561Y-23580166D01*
X213122316Y-23536117D01*
X214008534Y-22649900D01*
X217462029Y-22649900D01*
X217463000Y-22828250D01*
G37*
G04 #@! TD.AperFunction*
M02*
